<?xml version="1.0" encoding="UTF-8" standalone="no"?>
<svg
   viewBox="0 0 1024 1024"
   id="icon-user-logged-out"
   version="1.1"
   xmlns="http://www.w3.org/2000/svg"
   xmlns:svg="http://www.w3.org/2000/svg">
  <defs
     id="defs299" />
  <path
     d="M 590.00021,607.81268 H 397.99979 c -194.40042,0 -352.000765,157.29249 -352.000765,351.31317 0,35.27105 28.660065,63.87515 64.000135,63.87515 h 768.00168 c 35.34007,0 64.00013,-28.6041 64.00013,-63.87515 0,-194.02068 -157.60034,-351.31317 -352.00076,-351.31317 z M 143.97924,927.18829 C 159.77927,801.23454 267.59951,703.62537 397.99979,703.62537 h 192.00042 c 130.32028,0 238.20052,97.70897 254.00055,223.56292 z M 494,512 C 635.38031,512 750.00056,397.60365 750.00056,256.49951 750.00056,115.39538 635.38031,0.999025 494,0.999025 352.61969,0.999025 237.99944,115.39538 237.99944,256.49951 237.99944,397.62361 352.59969,512 494,512 Z m 0,-415.188292 c 88.22019,0 160.00035,71.639942 160.00035,159.687802 0,88.04787 -71.78016,159.68781 -160.00035,159.68781 -88.22019,0 -160.00035,-71.65991 -160.00035,-159.68781 0,-88.04786 71.80016,-159.687802 160.00035,-159.687802 z"
     style="fill:currentColor;stroke:currentColor;stroke-width:1.99805"
     id="path294" />
</svg>
