<svg xmlns="http://www.w3.org/2000/svg" style="display: none;">
    <symbol xmlns="http://www.w3.org/2000/svg" viewBox="0 0 40 40" id="accessible-assistance" fill="none">
        <path fill="currentColor" d="M0 0h40v40H0z"/>
        <path fill="#fff" d="M19.955 11.16a2.39 2.39 0 0 1 2.386-2.386 2.38 2.38 0 0 1 2.385 2.386 2.38 2.38 0 0 1-2.386 2.385 2.38 2.38 0 0 1-2.385-2.386M8.64 8.969a2.39 2.39 0 0 1 2.386-2.386 2.38 2.38 0 0 1 2.386 2.386 2.38 2.38 0 0 1-2.386 2.385 2.38 2.38 0 0 1-2.385-2.385m3.789 10.463a.97.97 0 0 1-.43-.43l-1.352-2.56-1.362 3.584c.062.071.123.163.184.245l3.686 5.764c.154.236.246.482.276.727l-.03-.133 1.208 5.232c.194.83-.215 1.617-.921 1.75-.707.134-1.434-.43-1.628-1.259l-1.219-5.21c-.02-.073-.04-.144-.04-.216l-2.878-4.075.267 3.46c.03.216.03.42 0 .625v-.05c0 .112-.02.235-.052.358l-1.423 5.17c-.225.819-.972 1.361-1.668 1.197-.697-.153-1.075-.952-.85-1.77l1.423-5.17c.02-.072.03-.134.061-.195l-1.003-6.44s-.01-.072 0-.113a1.83 1.83 0 0 1 .102-1.064l2.13-5.6c.43-1.127 1.771-1.72 3-1.342a2.28 2.28 0 0 1 1.392 1.188l2.355 4.371 3.542.369c.563.061.973.563.911 1.126v.123a1.04 1.04 0 0 1-1.136.911l-4.075-.43a1 1 0 0 1-.44-.153h.03z"/>
        <path fill="#fff" d="M19.955 18.828V16.76a2.386 2.386 0 0 1 2.375-2.386c1.31 0 2.375 1.075 2.386 2.386v1.617h4.821c.564 0 1.025.461 1.025 1.024v.143c0 .564-.461 1.024-1.024 1.024h-4.822v1.823h5.19c.39.02.748.256.912.634l2.467 5.55h1.74c.563 0 1.024.46 1.024 1.023v.03c0 .564-.46 1.025-1.024 1.025h-2.887c-.41 0-.768-.246-.931-.584l-.154-.338a8.03 8.03 0 0 1-6.92 3.962c-4.434 0-8.027-3.593-8.027-8.016a8 8 0 0 1 3.839-6.839z"/>
        <path fill="currentColor" d="M19.954 20.507a6.655 6.655 0 0 0 4.187 11.825c2.815 0 5.211-1.75 6.194-4.218L29.117 25.4h-6.153.03-1.351c-.942 0-1.71-.768-1.71-1.71v-3.184z"/>
    </symbol>
    <symbol xmlns="http://www.w3.org/2000/svg" viewBox="0 0 40 40" id="accessible" fill="none">
        <path fill="currentColor" d="M0 0h40v40H0z"/>
        <path fill="#fff" d="M13.969 9.203c0-1.434 1.166-2.6 2.6-2.6s2.6 1.166 2.6 2.6-1.166 2.6-2.6 2.6a2.6 2.6 0 0 1-2.6-2.6m2.59 3.188c1.61 0 2.476 1.27 2.476 2.3v1.786h4.767c.835 0 1.176.722 1.165 1.227 0 .537-.381 1.104-1.186 1.104h-4.746v1.888h5.21c.918 0 1.094.372 1.238.795l2.033 5.355h1.929c.722 0 1.217.515 1.217 1.31 0 .939-.577 1.083-1.227 1.083h-3.508c-.402 0-.743-.867-.743-.867s-2.084 3.88-6.933 3.9c-4.53.021-8.089-3.652-8.15-8.315-.052-4.065 3.517-6.79 4.013-6.892v-2.507c0-.671.887-2.177 2.424-2.177z"/>
        <path fill="currentColor" d="M14.207 18.89v3.52c0 .618.496 1.557 1.435 1.557h7.83l.97 2.528s-1.537 4.25-6.139 4.199c-4.374-.052-6.654-3.745-6.613-6.613.041-2.662 1.517-4.447 2.507-5.2z"/>
    </symbol>
    <symbol xmlns="http://www.w3.org/2000/svg" viewBox="0 0 40 40" id="bbq" fill="none">
        <path fill="currentColor" d="M0 0h40v40H0z"/>
        <path fill="#fff" d="M6.992 32.084v-5.24c.062-3.168 2.348-5.014 2.348-5.014s.092 2.656.963 3.825c.298.4 1.251 1.692 1.21 1.374s0-1.354.133-2.615c.308-2.779 1.61-3.435 1.61-3.435s.235 1.774.8 2.83c.584 1.067 1.557 2.215 1.557 2.215 0-.359.349-1.65 1.046-2.871 1.128-1.99 3.342-2.84 3.342-2.84s-.308 1.097-.297 1.825c.04 3.097 1.65 4.05 1.65 4.05.092-.266.472-1.528.953-2.256.913-1.394 2.758-1.989 2.758-1.989s-.697 1.62.676 3.168c.687.78 1.764 1.539 1.764 1.539s-.041-.944-.185-1.538c-.133-.585-.225-1.22.041-2.164.267-.954.636-1.128.636-1.128s0 1.405 2.122 3.076c.605.482 1.896 1.856 2.03 2.666s.184 1.446.184 1.446v3.117H6.993zm12.64-22.014c-.44 0-.564.112-.564.512v.882c0 .369-.164.44-.82.44H6.992v1.313h11.266c.605 0 .82.072.82.441v.882c0 .215-.02.461.564.461h4.295c.113 1.19.37 2.646 1.066 3.825.462.79 1.21 1.866 2.43 1.405 1.568-.605.933-1.723.933-1.723s-1.097-2.615-1.353-3.496h3.075c.256 0 .513-.052.513-.37 0-.348-.328-.42-.513-.42H26.9c-.03-.38-.062-.81-.062-1.261h3.26c.236 0 .513-.052.513-.4 0-.256-.277-.4-.513-.4h-3.24c.011-.318.042-.615.073-.882.02-.113.03-.236.05-.369h3.117c.185 0 .513-.072.513-.4s-.277-.44-.513-.44h-2.952c.174-.862.359-1.754.287-2.236-.061-.462-.4-1.118-1.117-1.118-.892 0-1.815.328-2.05 1.866-.072.462-.144.974-.206 1.508l-4.418-.01z"/>
        <path fill="currentColor" d="M23.824 12.96v.513c0 .216.03.462.041.749h-2.501c-.144 0-.257-.092-.257-.205v-.82c0-.144.093-.236.257-.236zm-2.441-.8c-.184 0-.256-.051-.256-.236v-.697c0-.236.092-.328.256-.328h2.573c-.04.44-.082.871-.102 1.271l-2.481-.01z"/>
    </symbol>
    <symbol xmlns="http://www.w3.org/2000/svg" viewBox="0 0 40 40" id="boat-launch" fill="none">
        <path fill="currentColor" d="M0 0h40v40H0z"/>
        <path fill="#fff" d="M23.445 8.58c3.235.409 4.638 2.364 4.638 2.364l4.269-1.32s.952 4.975-5.078 8.385l6.358-1.393v.932l-11.6 2.529s-.778-2.816-3.42-2.56c-3.081.38-3.112 3.225-3.112 3.225l-7.422.604-.748-2.887 17.784-6.562-1.659-3.318zM33.63 27.632s-.368.144-.88.144c-1.577 0-2.723-1.157-4.812-1.106-1.986.041-3.102 1.25-4.484 1.25-.88 0-2.775-1.485-4.996-1.434-1.945.05-2.826 1.433-4.536 1.433-1.249 0-3.378-1.617-5.549-1.577-1.945.041-2.037.461-2.037.461v1.761s1.065-.645 2.078-.645c1.577 0 4.024 1.577 5.6 1.577 1.71 0 3.246-1.434 4.669-1.434s3.327 1.434 4.945 1.393 3.01-1.208 4.484-1.208c1.157 0 2.222 1.023 4.577 1.116.747.03.931-.041.931-.041v-1.67z"/>
        <path fill="#fff" d="M9.993 24.766c1.372.46 2.918 1.239 4.023 1.239 1.71 0 3.246-1.434 4.669-1.434s3.327 1.434 4.945 1.393c1.617-.051 3.01-1.208 4.484-1.208 1.157 0 2.222 1.023 4.576 1.105.748.031.932-.04.932-.04v-6.082l-14.139 3a2.16 2.16 0 1 0-2.856-2.048c0 1.188.973 2.16 2.16 2.16h.195l-9 1.915z"/>
    </symbol>
    <symbol viewBox="0 0 40 40" id="bunk-bed" xmlns="http://www.w3.org/2000/svg">
        <path fill="currentColor" d="M 40,0 H 0 v 40 h 40 z" />
        <path d="M 31.862,10.196 H 8.145 a 0.745,0.745 0 0 0 -0.743,0.753 v 2.91 h 25.203 v -2.91 a 0.745,0.745 0 0 0 -0.743,-0.753" style="display:inline;fill:#ffffff" />
        <path d="M11.878 5.668h-1.32v28.664h1.32zM17.652 5.668h-1.32v28.664h1.32z" style="fill:#ffffff" />
        <path d="M16.766 10.847h-5.578v1.242h5.578zM16.766 14.927h-5.578v1.242h5.578zM16.766 19.008h-5.578v1.241h5.578zM16.766 23.088h-5.578v1.242h5.578zM16.766 31.249h-5.578v1.241h5.578zM16.766 7.703h-5.578v1.241h5.578zM31.862 25.571H8.145a.745.745 0 0 0-.743.753v2.91h25.203v-2.91a.745.745 0 0 0-.743-.753" style="fill:#ffffff" />
        <path fill="#ffffff" d="M 6.704,5.668 H 4.436 v 28.664 h 2.268 z m 28.862,0 h -2.27 v 28.664 h 2.27 z" />
    </symbol>
    <symbol xmlns="http://www.w3.org/2000/svg" viewBox="0 0 40 40" id="cooking-shelter" fill="none">
        <path fill="currentColor" d="M0 0h40v40H0z"/>
        <path fill="#fff" d="M20.354 31.892v-.134l-.01-.43c.02-.675.43-.941.43-.941.512-.369 1.177-.533 1.177-.533s0 .215-.112.696c-.113.482-.338.645-.543.717a1.8 1.8 0 0 0-.42.184c-.133.072-.522.42-.522.42zm3.666-2.017s0 .215-.113.696-.338.645-.543.716a1.8 1.8 0 0 0-.42.185c-.133.071-.522.42-.522.42v-.134l-.01-.43c.02-.675.43-.941.43-.941.512-.369 1.178-.533 1.178-.533zM6.03 17.169 19.924 5.54l.072-.092.113.092 13.862 11.6v2.907L20.016 8.365 6.052 20.056l-.02-2.897zm13.945 11.907h-3.758a.8.8 0 0 1-.799-.799v-4.525h9.112v4.526a.8.8 0 0 1-.798.798zm-4.27 3.174h8.518v.85H21.46l-.911 1.453H19.37l-.91-1.453h-2.765v-.85zm4.27-11.58h-.645c-.062 0-.533-.01-.594.164a1.5 1.5 0 0 0-.062.43h2.6c0-.143-.02-.296-.06-.43-.062-.184-.533-.163-.595-.163zm0 2.673h-5.232c0-.051.02-.307.379-.338.358-.02.48-.256.48-.256.41-.676 1.946-1.106 2.294-1.208.113-.03.184-.092.215-.164v-.123c.01-.809.297-1.146 1.219-1.146h1.29c.92 0 1.207.337 1.218 1.146v.123c.04.072.102.123.215.164.348.102 1.884.532 2.293 1.208 0 0 .123.235.481.256.359.02.38.287.38.338zm-2.16 6.532s0 .215-.113.696-.338.645-.543.716c-.205.072-.287.103-.41.185-.133.071-.522.42-.522.42v-.134l-.01-.43c.02-.675.43-.941.43-.941.512-.369 1.178-.533 1.178-.533zm.47 2.017v-.134l-.01-.43c.02-.675.43-.941.43-.941.512-.369 1.188-.533 1.188-.533s0 .215-.113.696c-.113.482-.338.645-.543.717-.204.072-.286.102-.41.184-.132.072-.521.42-.521.42z"/>
    </symbol>
    <symbol xmlns="http://www.w3.org/2000/svg" viewBox="0 0 40 40" id="cooking" fill="none">
        <path fill="currentColor" d="M0 0h40v40H0z"/>
        <path fill="#fff" d="M31.123 22.36c0 .768-.625 1.392-1.393 1.392H10.38a1.377 1.377 0 0 1-1.392-1.372v.041-10.678h22.125v10.678-.061zm1.383-11.58c-.061-.736-.747-.736-1.3-.798-.553-.061-.379-.287-1.29-1.136-1.198-1.116-4.126-1.935-4.648-2.058s-.604-.174-.84-.522c0 0-.082-.133-.082-.952 0-1.106-.91-1.72-1.494-1.72h-5.703c-.594 0-1.505.614-1.505 1.72 0 .808-.123.982-.123.982-.246.297-.276.369-.798.492-.523.123-3.45.942-4.648 2.058-.901.84-.738 1.075-1.29 1.136-.553.062-1.24.062-1.3.799z"/>
        <path fill="currentColor" d="M18.08 4.576c-.86 0-1.372.236-1.3 1.516h6.317c.082-1.27-.44-1.516-1.3-1.516z"/>
        <path fill="#fff" d="M25.607 30.223c.993-1.106 1.74-1.096 2.303-1.362.799-.379 1.024-.86 1.27-2.068.215-1.044.245-1.136.245-1.136-.092.03-3.245.962-3.665 2.252-.42 1.28-.153 2.314-.153 2.314m-4.947 0c.994-1.106 1.74-1.096 2.304-1.362.799-.379 1.024-.86 1.27-2.068.214-1.044.245-1.136.245-1.136-.092.03-3.204.982-3.655 2.252-.46 1.27-.153 2.314-.153 2.314zm-4.811 0c.993-1.106 1.74-1.096 2.303-1.362.799-.379 1.024-.86 1.27-2.068.215-1.044.245-1.136.245-1.136-.092.03-3.225.91-3.665 2.252-.41 1.28-.153 2.314-.153 2.314m-4.844 0c.993-1.106 1.74-1.096 2.303-1.362.799-.379 1.024-.86 1.27-2.068.215-1.044.246-1.136.246-1.136-.093.03-3.236.92-3.666 2.252-.41 1.28-.153 2.314-.153 2.314m5.313 2.651 2.242 3.41h2.478l2.549-3.41h6.276v-1.74H9.766v1.74z"/>
    </symbol>
    <symbol xmlns="http://www.w3.org/2000/svg" viewBox="0 0 40 40" id="dump-station" fill="none">
        <path fill="currentColor" d="M0 0h40v40H0z"/>
        <path fill="#fff" fill-rule="evenodd" d="m16.771 28.216-.01-3.9 2.795 3.224v-4.156H15.85v11.303h10.125V23.384h-3.696v4.156l2.795-3.225-.01 3.901-4.147 4.638z" clip-rule="evenodd"/>
        <path fill="#fff" fill-rule="evenodd" d="m21.807 28.738 2.774-3.184v2.57l-3.665 4.054-3.675-4.054v-2.57l2.785 3.184v-8.446h-2.898a3.48 3.48 0 0 0-3.44-3 3.46 3.46 0 0 0-3.44 3H7.771S5.63 14.896 5.63 14.2s2.14-6.777 2.14-6.777h11.64s5.263-2.028 5.733-2.028h7.27c.204.461 1.679 3.993 1.679 3.993h-1.997l2.314 5.498v5.385h-2.621a3.48 3.48 0 0 0-3.44-2.99 3.48 3.48 0 0 0-3.44 2.99h-3.082v8.447z" clip-rule="evenodd"/>
        <path fill="currentColor" fill-rule="evenodd" d="M14.64 9.86v5.272H9.08V9.859zm9.04 0v5.272h-3.42V9.859zm3.533 5.272V9.859h3.819l1.924 5.037-.01 1.854h-2.232l-.665-1.618z" clip-rule="evenodd"/>
        <path fill="#fff" fill-rule="evenodd" d="M13.688 23.22a2.495 2.495 0 0 1-2.498-2.498 2.495 2.495 0 0 1 2.498-2.498 2.495 2.495 0 0 1 2.498 2.498 2.495 2.495 0 0 1-2.498 2.498m14.712 0a2.495 2.495 0 0 1-2.498-2.498 2.495 2.495 0 0 1 2.498-2.498 2.495 2.495 0 0 1 2.499 2.498A2.495 2.495 0 0 1 28.4 23.22" clip-rule="evenodd"/>
    </symbol>
    <symbol xmlns="http://www.w3.org/2000/svg" viewBox="0 0 40 40" id="fire-pit" fill="none">
        <path fill="currentColor" d="M0 40h40V0H0z"/>
        <path fill="#fff" d="M23.279 12.16c-.205-1.351-.84-2.467-1.259-3.726-.45-1.34-.614-2.661-.327-4.125-1.811 1.525-1.218 5.68-1.852 6.285-.318.307-.747-.614-.921-1.014-.256-.583-.931-1.627-.645-3.173-.43.4-.593.993-.716 1.556-.236 1.034.05 2.047.05 3.081 0 .194.38 2.2-.398 2.344-.164.03-1.77-1.249-1.709-4.76-.205.277-.44.86-.563 1.157-1.207 2.825.522 8.055.727 8.495.48 1.075.071 1.372-1.116.195-1.3-1.29-.788-1.628-1.504-2.385-.41-.44-1.484-.809-2.17-.532.727.532 1.495 1.832 1.413 2.64-.174 1.71 2.077 5.538 2.077 5.538l-5.239.798.399 2.211 6.508-.921-3.305 3.296 1.637 1.617 4.165-4.125.03 4.688h2.17l.03-4.985 4.493 4.514 1.8-1.78-3.345-3.368 6.733 1.3.48-2.211-4.747-.942s1.78-2.21 2.149-3.337c1.064-3.244-.573-2.907.583-5.547-.972.839-1.79 2.374-2.262 3.193-1.043 1.802-1.3.01-.961-.48 2.69-3.962-.799-5.784.276-9.663-1.013.88-1.504 2.22-1.494 3.51 0 .42.03 2.457-.062 3.102-.04.297-.194 1.3-.972.952-.777-.348.062-2.262-.122-3.43"/>
        <path fill="#fff" d="M20.025 37.349c-9.414 0-17.007-5.271-17.283-12.006v-.051h2.763v.03c.276 5.118 6.764 9.263 14.52 9.263 7.757 0 14.244-4.155 14.52-9.273v-.02h2.764v.061c-.277 6.725-7.87 11.996-17.284 11.996"/>
    </symbol>
    <symbol xmlns="http://www.w3.org/2000/svg" viewBox="0 0 40 40" id="heating" fill="none">
        <path fill="currentColor" d="M0 0h40v40H0z"/>
        <path fill="#fff" d="M12.729 33.99c0-.245.184-.45.399-.45H26.86c.225 0 .399.205.399.45v1.137c0 .245-.184.45-.4.45h-13.73c-.225 0-.4-.194-.4-.45zM24.22 18.03h1.362c.123-.37.44-.636.82-.636.48 0 .87.43.87.963s-.39.962-.87.962c-.37 0-.687-.256-.81-.614H24.22V32.72h-8.366V15.11h8.366v2.918m-8.366-4.442h2.478V4.423h.717v9.163h.983V4.423h1.71v9.163h2.478v.788h-8.366z"/>
        <path fill="currentColor" d="M16.65 24.684h6.76v-3.532c0-1.73-1.26-3.133-2.817-3.133h-1.126c-1.557 0-2.817 1.403-2.817 3.133zm6.77.901h-6.77v6.245h.615v-5.58h5.55l-.01 5.58h.614z"/>
        <path fill="#fff" d="M22.806 24.019h-5.55v-2.857c0-1.361.993-2.457 2.212-2.457h1.126c1.219 0 2.212 1.106 2.212 2.457z"/>
        <path fill="currentColor" d="M18.412 23.507h3.533c.164-.082.154-.686.082-.963-.061-.276.072-.594.072-.594-.256.175-.46.881-.625.994-.163.112-.184-.215 0-.482.185-.266.154-.89-.01-1.32-.174-.44-.061-.993-.061-.993-.277.133-.328.819-.328.962s.123.819-.102.983c-.226.174-.195-.246-.195-.246s.062-.952-.113-1.167c-.174-.225-.297-1.372-.297-1.372-.122.123-.266.911-.276 1.25-.01.337-.143.255-.143.255-.349-.256-.318-1.065-.318-1.065-.205.133-.205.963-.133 1.444s-.154.317-.154.317c-.338-.215-.338-1.208-.338-1.208-.491 1.075-.061 2.15-.03 2.324.04.164.245.43.061.45s-.369-.368-.553-.706c-.174-.338-.584-.235-.584-.235s.318.215.359.624c.03.41.153.768.153.768z"/>
    </symbol>
    <symbol xmlns="http://www.w3.org/2000/svg" viewBox="0 0 40 40" id="jetty" fill="none">
        <path fill="currentColor" d="M0 0h40v40H0z"/>
        <path fill="#fff" d="M4.023 31.083a9.3 9.3 0 0 1 4.945.809c2.396.931 4.433-1.086 6.85-1.086.87 0 1.801.144 2.59.543.245.102 2.15.89 3.399.89s3.153-.788 3.399-.89c.778-.4 1.72-.543 2.59-.543 2.416 0 4.454 2.027 6.85 1.085a9.5 9.5 0 0 1 1.371-.511v1.873c-.215.082-.43.174-.645.266 0 0-.553.236-1.341.369-2.877.46-3.829-1.3-6.235-1.3-.604 0-1.27.092-1.812.368 0 0-.625.277-1.423.533-.768.256-1.823.532-2.744.532-1.3 0-2.98-.543-4.167-1.075 0 0-.184-.092-.45-.174a4.8 4.8 0 0 0-1.362-.195c-2.754 0-4.146 2.417-7.576.942-1.177-.552-2.908-.89-4.218-.634v-1.802zm23.865-3.676v-3.931h-9.89v4.29c.133.05.277.112.4.174.245.102 2.15.89 3.399.89s3.153-.788 3.399-.89c.778-.4 1.72-.543 2.59-.543h.102zm-23.087.236v-4.157h-.819v-1.7H20.65v-5.344l.092-1.003H3.982v-1.7h13.77a.6.6 0 0 1 .062-.215l.522-1.945 2.355-1.607s.635-.44.921-.614c.297-.185 1.26-.256 1.884-.041.676.235.911.583.952.655.062.113 1.474 2.355 1.474 2.355l.83.542.573.42c.215.143.348.297.41.45h2.529v1.7h-.727v6.348h.808v1.7h-.808v4.238c1.7.522 3.296 1.484 5.088.778a9 9 0 0 1 1.372-.512v1.873c-.215.082-.43.164-.645.267 0 0-.553.235-1.341.368-2.877.46-3.83-1.3-6.235-1.3-.604 0-1.27.092-1.812.358 0 0-.625.277-1.424.543-.767.246-1.822.532-2.743.532-1.3 0-2.98-.542-4.167-1.075 0 0-.185-.092-.45-.174a4.8 4.8 0 0 0-1.362-.194c-2.754 0-4.147 2.416-7.577.931-1.177-.553-2.907-.88-4.218-.634v-1.802c.195-.02.461-.041.778-.052zm11.549-.215v-3.952H6.46v4.27a9.3 9.3 0 0 1 2.508.747c2.396.941 4.433-1.086 6.85-1.086.174 0 .348 0 .532.02m11.538-6.358v-5.631h-4.29l-.071.768 1.31 5.58h3.051zm-4.29.716-1.269-5.19c-.041-.092-.184-.184-.307-.02-.133.48-.113 3.409-.082 5.22h1.659zm-2.682-8.047.256-2.63-1.822 1.238-.369 1.393zm4.966 0-.748-.511-1.167-1.843-.215 2.355zm-3.625-6.316c0-.799.645-1.434 1.434-1.434s1.433.645 1.433 1.434-.645 1.433-1.433 1.433a1.44 1.44 0 0 1-1.434-1.433"/>
    </symbol>
    <symbol xmlns="http://www.w3.org/2000/svg" viewBox="0 0 40 40" id="lighting" fill="none">
        <path fill="currentColor" d="M0 0h40v40H0z"/>
        <path fill="#fff" d="M17.83 12.51a.86.86 0 0 1 .665-.327h1.065v-.675c0-.236.195-.42.43-.42h.113c.235 0 .42.184.42.42v.675h1.054c.277 0 .512.123.666.328 1.393.02 2.509.993 2.509 2.201 0 .143-.01.287-.041.43h-9.35a2 2 0 0 1-.04-.43c0-1.208 1.115-2.18 2.508-2.201m-3.595-1.822a.433.433 0 0 1-.604 0l-1.28-1.28a.43.43 0 0 1 0-.604l.092-.092a.433.433 0 0 1 .604 0l1.28 1.28a.43.43 0 0 1 0 .603zm-3.584 7.33a.426.426 0 0 1-.522.297l-1.752-.471a.426.426 0 0 1-.297-.522l.031-.123a.426.426 0 0 1 .522-.297l1.752.471a.426.426 0 0 1 .297.522zm1.136 7.331a.426.426 0 0 1-.297.522l-1.751.47a.426.426 0 0 1-.522-.296l-.031-.123a.426.426 0 0 1 .297-.522l1.751-.471a.426.426 0 0 1 .522.297zm13.632 4.146-.738.727a.5.5 0 0 1-.276.143v2.723c0 .246-.256.45-.574.461h-7.65c-.317-.01-.573-.215-.573-.46v-2.714a.53.53 0 0 1-.307-.143l-.727-.727a.51.51 0 0 1-.02-.696l-1.598-11.364a.44.44 0 0 1 .04-.256.43.43 0 0 1 .4-.246h1.106c.01-.46.39-.82.85-.82h9.309c.46 0 .84.37.85.82h1.106c.184 0 .338.102.4.246a.5.5 0 0 1 .04.256L25.46 28.83a.493.493 0 0 1-.041.676z"/>
        <path fill="currentColor" d="m23.461 28.83.646-.645a.5.5 0 0 1 .634-.061l1.465-10.443h-.717a.866.866 0 0 1-.84.717h-.686v6.286c0 .368-.379.676-.85.676h-.502v3.47zm-3.42-3.47h-1.935v3.46h3.789v-3.46H20.04M20 19.37c-.533.082-.79.45-.79.697v3.941h1.578v-3.941c0-.256-.256-.615-.788-.697"/>
        <path fill="currentColor" d="M20 18.388h-2.592v5.61h1.157v-3.983s0-.082.01-.123c.093-.604.646-1.075 1.373-1.177h.082c.727.102 1.28.584 1.372 1.177 0 .041.01.082.01.123v3.983h1.158v-5.61h-2.581zM16.52 28.83h.86v-3.47h-.502c-.471 0-.85-.308-.85-.676v-6.286h-.686a.86.86 0 0 1-.84-.717h-.717l1.465 10.433a.5.5 0 0 1 .614.071l.645.645z"/>
        <path fill="#fff" d="m25.764 10.689-.092-.093a.433.433 0 0 1 0-.604l1.28-1.28a.433.433 0 0 1 .604 0l.082.093a.43.43 0 0 1 0 .604l-1.28 1.28a.433.433 0 0 1-.604 0zm3.586 7.33-.03-.123a.426.426 0 0 1 .297-.522l1.75-.471a.426.426 0 0 1 .523.297l.03.123a.426.426 0 0 1-.296.522l-1.751.47a.426.426 0 0 1-.523-.296m-1.138 7.331.031-.123a.426.426 0 0 1 .522-.297l1.751.47a.426.426 0 0 1 .297.523l-.03.123a.426.426 0 0 1-.523.297l-1.75-.471a.426.426 0 0 1-.298-.523M19.559 6.86c0-.236.194-.42.43-.42h.112c.236 0 .42.194.42.42v1.812c0 .235-.184.43-.42.43h-.112a.433.433 0 0 1-.43-.43z"/>
    </symbol>
    <symbol xmlns="http://www.w3.org/2000/svg" viewBox="0 0 40 40" id="mattresses" fill="none">
        <path fill="currentColor" d="M0 0h40v40H0z"/>
        <path fill="#fff" d="M23.088 24.09a.67.67 0 0 1 .573-.645L35.19 21.94a.494.494 0 0 1 .574.502v1.218a.67.67 0 0 1-.574.645L23.661 25.81a.494.494 0 0 1-.573-.502zm9.767-2.57-2.867-1.218-8.743-.143 7.402-.43-7.843-3.358-8.23 1.597 7.248-2.017-1.69-.727-.03-.02a.6.6 0 0 0-.287-.052L7.3 16.504l-1.77-.758 12.275-1.587c.112-.01.215 0 .297.041l16.534 7.075-1.792.235z"/>
        <path fill="#fff" d="M4.238 16.524c0-.317.256-.46.574-.327l7.78 3.327 9.522-.666-8.303 1.188 7.77 3.327c.318.133.574.502.574.82v1.218c0 .317-.256.46-.574.327l-16.77-7.177c-.317-.133-.573-.501-.573-.819z"/>
    </symbol>
    <symbol xmlns="http://www.w3.org/2000/svg" viewBox="0 0 40 40" id="phone" fill="none">
        <path fill="currentColor" d="M0 0h40v40H0z"/>
        <path fill="#fff" d="M21.664 13.678c.43.113.799.164 1.218.225.758.113.983-.061 1.106-.522.113-.46 1.454-5.395 1.567-5.856.112-.46.286-.758-.584-1.28-.256-.153-.666-.297-1.147-.43l-2.16 7.853z"/>
        <path fill="#fff" d="M23.65 33.673c-1.116.266-2.939.47-3.84.184-1.177-.368-1.976-.635-3.542-5.283-1.566-4.638-1.915-7.136-1.915-9.337s.349-4.003 1.332-6.665c.982-2.672 1.678-4.003 2.15-5.109.46-1.095 1.392-1.965 2.549-2.088.706-.072 1.935.072 2.979.317l-2.109 7.873c-.676-.194-.962-.399-1.157-.573-.727-.635-1.28-.348-1.28.737v12.44c0 1.085.553 1.392 1.28.757.215-.184.532-.41 1.362-.624z"/>
        <path fill="#fff" d="M24.142 33.56s.092-.03.123-.051c.87-.348 1.392-1.044 1.33-1.628-.04-.45-1.064-3.767-1.494-5.16-.102-.338-.225-.542-.655-.593-.502-.072-1.147 0-1.536.071l2.222 7.372z"/>
    </symbol>
    <symbol viewBox="40 40 40 40" id="powered-site" fill="none"
        xmlns="http://www.w3.org/2000/svg">
        <path fill="currentColor" d="M 40,40 H 80 V 80 H 40 Z" />
        <path fill="#ffffff" d="m 70.495296,70.272998 a 3.118401,3.118401 0 0 1 -3.120214,-3.120213 c 0,-1.727813 1.392403,-3.120215 3.120214,-3.120215 1.727812,0 3.120214,1.392402 3.120214,3.118402 0,1.729624 -1.392402,3.122026 -3.118402,3.122026 m -18.411257,0 a 3.118401,3.118401 0 0 1 -3.122026,-3.120213 c 0,-1.727813 1.394215,-3.120215 3.122026,-3.120215 1.727813,0 3.120216,1.392402 3.120216,3.118402 0,1.729624 -1.392403,3.122026 -3.120216,3.122026" style="stroke-width:1.81303" />
        <path fill="#ffffff" fill-rule="evenodd" d="m 74.730519,66.614317 a 4.3512573,4.3512573 0 0 0 -4.309556,-3.73483 4.3693876,4.3693876 0 0 0 -4.309559,3.73483 H 56.39541 a 4.3693876,4.3693876 0 0 0 -4.309559,-3.73483 4.3693876,4.3693876 0 0 0 -4.309557,3.752959 h -3.100271 c 0,0 -2.676023,-6.744449 -2.676023,-7.614699 0,-0.873879 2.674211,-8.472261 2.674211,-8.472261 h 14.56402 c 0,0 6.593968,-2.545486 7.170509,-2.545486 h 9.10138 c 0.261076,0.576541 2.099481,4.998507 2.099481,4.998507 h -2.507412 l 2.897213,6.88949 v 6.744449 H 74.71239 Z m -2.153871,-6.465244 0.83399,2.025147 h 2.786618 v -2.320671 l -2.395004,-6.316575 h -4.793636 v 6.593968 h 3.548088 z M 60.313354,53.556918 v 6.593968 h 4.273297 v -6.593968 z m -13.987479,0 v 6.593968 h 6.965637 v -6.593968 z" clip-rule="evenodd" style="stroke-width:1.81303" />
    </symbol>
    <symbol xmlns="http://www.w3.org/2000/svg" viewBox="0 0 40 40" id="shop" fill="none">
        <path fill="currentColor" d="M0 0h40v40H0z"/>
        <path fill="#fff" d="M35.884 32.424H11.405V21.449H7.208v10.975H4.105V14.937h7.33v-7.35h17.068v7.35h7.381z"/>
        <path fill="currentColor" d="M14.62 21.449v7.658h18.049v-7.658zm9.47-11.498v2.816h.624v-1.003h.645c.174 0 .328-.02.45-.072a.8.8 0 0 0 .298-.205.6.6 0 0 0 .163-.287 1 1 0 0 0 .052-.337q-.002-.17-.052-.338a.73.73 0 0 0-.46-.482 1.2 1.2 0 0 0-.45-.081h-1.27zm-3.777 1.424c0 .204.03.399.092.573a1.32 1.32 0 0 0 .706.768c.174.071.369.112.584.112q.323-.002.583-.112a1.1 1.1 0 0 0 .43-.307c.123-.134.205-.287.277-.461.061-.174.092-.369.092-.574s-.031-.409-.092-.583a1.3 1.3 0 0 0-.277-.471 1.2 1.2 0 0 0-.43-.317 1.35 1.35 0 0 0-.583-.113q-.323.002-.584.113a1.2 1.2 0 0 0-.43.317 1.3 1.3 0 0 0-.276.471 1.8 1.8 0 0 0-.093.583m-3.39-1.423v2.816h.624v-1.208h1.137v1.208h.614V9.95h-.614v1.086h-1.137V9.95zM14.2 11.835h-.604c0 .174.03.318.092.45a.85.85 0 0 0 .266.308c.113.082.246.143.39.174.142.04.296.061.45.061.194 0 .358-.02.501-.071q.215-.062.369-.185a.76.76 0 0 0 .225-.286.8.8 0 0 0 .072-.359.67.67 0 0 0-.103-.389.8.8 0 0 0-.235-.245 1.1 1.1 0 0 0-.277-.133 2 2 0 0 0-.215-.062l-.43-.113a2 2 0 0 1-.256-.092.3.3 0 0 1-.122-.092.3.3 0 0 1-.031-.133.25.25 0 0 1 .04-.153c.021-.041.062-.072.093-.103.04-.03.092-.04.133-.051a1 1 0 0 1 .154-.02c.071 0 .143 0 .204.02.062.01.123.03.174.072.052.03.093.071.123.133a.4.4 0 0 1 .052.215h.603a.84.84 0 0 0-.337-.697 1 1 0 0 0-.359-.163 2 2 0 0 0-.42-.051c-.122 0-.255.02-.378.05a.8.8 0 0 0-.338.165.8.8 0 0 0-.246.266.7.7 0 0 0-.092.378.65.65 0 0 0 .266.553c.082.062.164.113.266.154.103.03.205.072.308.092.102.03.204.051.297.082.102.02.194.051.266.082q.123.046.184.123c.051.04.072.112.072.184s-.02.133-.052.174a.3.3 0 0 1-.133.102.6.6 0 0 1-.184.052c-.061 0-.123.01-.174.01-.082 0-.154 0-.236-.03a.6.6 0 0 1-.194-.093.4.4 0 0 1-.133-.164.6.6 0 0 1-.051-.235z"/>
        <path fill="#fff" d="M20.936 11.375c0-.123.01-.246.04-.359.031-.113.072-.215.134-.307a.7.7 0 0 1 .235-.215.8.8 0 0 1 .706 0 .6.6 0 0 1 .236.215.8.8 0 0 1 .123.307c.03.113.04.236.04.358 0 .123-.01.236-.04.348a.9.9 0 0 1-.123.298.7.7 0 0 1-.235.214.8.8 0 0 1-.359.082.7.7 0 0 1-.348-.082.8.8 0 0 1-.235-.214 1 1 0 0 1-.133-.297 1.3 1.3 0 0 1-.041-.349m3.779-.092v-.84h.481c.072 0 .133 0 .205.011.061.01.123.03.174.061q.076.046.123.123c.03.062.04.123.04.215s-.01.164-.04.215a.4.4 0 0 1-.123.133.5.5 0 0 1-.174.062c-.062 0-.133.02-.205.02z"/>
    </symbol>
    <symbol xmlns="http://www.w3.org/2000/svg" viewBox="0 0 40 40" id="shower-cold" fill="none">
        <path fill="currentColor" d="M0 0h40v40H0z"/>
        <path fill="#fff" d="M28.728 17.302c1.648-.215 2.959.922 2.98 2.54.02 1.443-1.086 2.467-2.202 2.6-1.669.205-2.877-.942-3.01-2.294-.123-1.228.491-2.088 1.188-2.508a2.6 2.6 0 0 1 1.034-.348zm-7.433 2.96c.655.593 1.208 1.279 1.853 1.883-.072.164-.215.246-.297.4-.645-.595-1.187-1.28-1.812-1.885.051-.174.215-.225.266-.399zm-3.931 3.07c-.83-1.248-1.7-2.436-2.55-3.665.052-.174.226-.215.297-.368.615.809 1.567 2.211 2.283 3.235.093.133.328.42.328.43 0 .154-.287.297-.358.369m3.501-3.634c-.051.174-.205.235-.266.4-1.055-1.076-2.15-2.1-3.143-3.236.092-.092.184-.194.266-.297 1.106.983 2.089 2.11 3.143 3.143zm-6.153-.993c-.062.164-.205.256-.297.4-.911-1.23-1.76-2.52-2.672-3.738.102-.123.205-.235.297-.358.962 1.157 1.771 2.488 2.672 3.706zm9.327-2.703c-.082.143-.164.297-.328.358-1.198-.89-2.375-1.781-3.604-2.641.082-.133.205-.236.297-.358 1.25.85 2.406 1.77 3.635 2.641m-6.778.062c-.051.153-.194.225-.266.368-1.095-1.024-2.058-2.17-3.102-3.245.04-.185.184-.256.266-.4 1.065 1.065 2.068 2.181 3.102 3.277m-5.59-1.618c-.112.113-.194.276-.358.328-.85-1.26-1.72-2.488-2.61-3.707.04-.174.225-.215.296-.368.942 1.187 1.802 2.467 2.672 3.737zm8.14-1.526c-.062.164-.205.236-.297.369-1.25-.819-2.417-1.73-3.635-2.58.092-.123.205-.236.328-.328 1.228.82 2.385 1.71 3.604 2.54m-6.184-.685c-.051.153-.185.235-.267.358-.696-.645-1.545-1.546-2.313-2.375-.144-.154-.748-.635-.758-.799 0-.143.297-.266.297-.358 1.034 1.034 2.037 2.109 3.04 3.174m1.945-2.253c-.061.041-.164.379-.297.4-.092.01-.799-.574-.921-.666-.891-.655-1.905-1.433-2.703-1.986.092-.123.204-.236.297-.369 1.259.82 2.385 1.782 3.634 2.61zM5.528 5.13c.236.123.758.236 1.26.4.379.122.87.399 1.187.399.287 0 .584-.195.891-.205.993-.01 1.7.471 2.252 1.157-1.085 1.085-2.129 2.201-3.276 3.245-.706-.47-1.228-1.412-.962-2.641-.41-.225-.911-.369-1.423-.491.04-.594-.092-1.362.071-1.853zM18.152 23.6c.952 1.249 1.802 2.6 2.744 3.87a.9.9 0 0 1-.338.358c-.901-1.29-1.792-2.58-2.703-3.86.051-.174.215-.215.297-.368m16.575 2.488v8.784H32.69v-5.836c0-.624.123-1.495-.471-1.474-.543.02-.44.85-.44 1.474v5.836c-1.771-.02-3.614.04-5.334-.03v-5.806c0-.594.143-1.505-.471-1.474-.533.02-.41.87-.41 1.505v5.805h-2.037v-6.276c0-1.044-.102-2.222.123-3.01.225-.799.716-1.403 1.413-1.761.686-.348 1.679-.348 2.795-.348h3.163c2.283 0 3.368.686 3.706 2.6zM15.203 27.49H12.92c-.153-1.065-1.177-1.884-2.344-1.884-2.12 0-2.918 1.802-2.918 3.686s.799 3.594 2.918 3.594c1.443 0 2.262-.993 2.436-2.406h2.294c-.246 2.682-2.089 4.392-4.73 4.392-3.328 0-5.283-2.488-5.283-5.59s1.955-5.672 5.283-5.672c2.365 0 4.351 1.382 4.638 3.87z"/>
    </symbol>
    <symbol xmlns="http://www.w3.org/2000/svg" viewBox="0 0 40 40" id="shower-hot" fill="none">
        <path fill="currentColor" d="M0 0h40v40H0z"/>
        <path fill="#fff" d="M12.348 23.558h2.734V34.87h-2.734v-4.75H8.13v4.75H5.396V23.558H8.13v4.3h4.218zm22.38 2.498v8.774h-2.047v-5.826c0-.614.123-1.494-.471-1.474-.543.02-.44.85-.44 1.474v5.826c-1.782-.02-3.645.04-5.365-.03v-5.796c0-.593.143-1.494-.471-1.474-.532.02-.41.87-.41 1.505v5.795h-2.047v-6.266c0-1.044-.103-2.221.123-3.01.235-.798.727-1.402 1.423-1.75.686-.349 1.689-.349 2.805-.349h3.184c2.304 0 3.389.686 3.727 2.6zm-6.03-8.774c1.659-.205 2.98.921 3 2.539.02 1.443-1.096 2.467-2.212 2.6-1.678.205-2.897-.942-3.03-2.283-.123-1.228.502-2.088 1.198-2.508a2.65 2.65 0 0 1 1.044-.348m-7.484 2.959c.655.593 1.208 1.28 1.864 1.883-.072.154-.215.246-.297.4-.645-.594-1.198-1.28-1.833-1.884.051-.174.215-.225.266-.4m-3.952 3.071c-.829-1.239-1.71-2.437-2.56-3.665.052-.174.226-.215.298-.358.614.808 1.576 2.2 2.293 3.235.092.122.328.42.328.43 0 .153-.287.297-.369.358zm3.522-3.635c-.051.175-.204.236-.266.4-1.065-1.075-2.16-2.099-3.163-3.235.092-.093.184-.195.266-.297 1.116.982 2.099 2.098 3.153 3.132zm-6.184-.993c-.061.164-.215.256-.296.4-.912-1.229-1.772-2.509-2.693-3.727.102-.123.205-.235.297-.358.973 1.157 1.771 2.488 2.692 3.696zm9.379-2.702c-.093.143-.164.297-.328.358-1.208-.88-2.396-1.781-3.624-2.642.081-.133.204-.235.296-.358 1.25.85 2.427 1.771 3.656 2.642m-6.819.061c-.051.154-.195.225-.266.358-1.106-1.013-2.079-2.17-3.123-3.235.041-.184.184-.266.266-.4 1.075 1.066 2.089 2.182 3.123 3.267zm-5.61-1.618c-.123.113-.195.267-.37.328-.849-1.26-1.73-2.488-2.62-3.696.051-.174.225-.215.297-.358.952 1.187 1.812 2.467 2.693 3.726m8.17-1.515c-.062.164-.205.236-.297.358-1.26-.819-2.427-1.73-3.655-2.57a1.7 1.7 0 0 1 .327-.327c1.239.82 2.406 1.71 3.625 2.54m-6.215-.686c-.051.154-.184.236-.266.359-.696-.645-1.556-1.546-2.324-2.376-.144-.153-.758-.634-.768-.788 0-.143.297-.266.297-.369 1.044 1.034 2.047 2.11 3.061 3.174m1.966-2.252c-.072.04-.174.379-.297.4-.092.01-.809-.574-.932-.666-.89-.656-1.914-1.434-2.723-1.976.102-.123.205-.236.297-.359 1.27.82 2.395 1.782 3.655 2.611zM5.356 5.119c.235.123.757.236 1.259.4.379.122.88.399 1.198.399.286 0 .583-.195.9-.195 1.004-.02 1.7.471 2.263 1.157-1.085 1.085-2.15 2.201-3.286 3.235-.707-.47-1.229-1.413-.963-2.641-.41-.225-.91-.369-1.433-.492.041-.593-.092-1.361.062-1.842zm12.705 18.46c.952 1.248 1.812 2.6 2.764 3.859-.092.143-.184.276-.338.358-.9-1.29-1.812-2.58-2.723-3.86.051-.174.225-.214.297-.358"/>
    </symbol>
    <symbol xmlns="http://www.w3.org/2000/svg" viewBox="0 0 40 40" id="toilets-flush" fill="none">
        <path fill="currentColor" d="M0 0h40v40H0z"/>
        <path fill="#fff" d="M19.857 4.234h1.725V23.8h-1.725zm5.305 1.683c0-.888.714-1.612 1.602-1.612s1.612.724 1.612 1.612c0 .887-.724 1.612-1.612 1.612a1.607 1.607 0 0 1-1.602-1.612m-1.45 3.05a2.2 2.2 0 0 0-.398 1.05v5.377c0 .347.286.632.633.632a.636.636 0 0 0 .633-.632v-4.427c0-.153.122-.276.265-.276s.276.123.276.276v12.241c0 .347.326.613.632.613.388 0 .694-.296.694-.633v-4.223.04-2.876c0-.154.123-.276.276-.276h.071c.153 0 .276.123.276.276v2.876-.04 4.213c.01.367.316.642.714.642.326 0 .622-.316.622-.622h.01V10.967c0-.153.123-.276.276-.276s.276.123.276.276v4.427a.63.63 0 0 0 .632.632.63.63 0 0 0 .633-.632V9.936s-.072-.5-.296-.836c0 0-.54-.939-1.663-.939h-3.01a1.93 1.93 0 0 0-1.582.816zm-11.089-3.04a1.607 1.607 0 1 1 1.612 1.612 1.615 1.615 0 0 1-1.612-1.612m3.274 2.153c.653 0 .837.224 1.061.632.245.46.633 2.122.633 2.122l.97 3.744.07.265c.103.367-.224.735-.469.786-.377.06-.663-.123-.755-.388l-1.112-4.336c-.04-.224-.133-.275-.316-.275-.123 0-.306.102-.276.347v.02l1.765 6.998h-1.673v5.203a.627.627 0 0 1-.633.622.636.636 0 0 1-.632-.632v-5.193h-.643v5.193a.636.636 0 0 1-.633.632c-.347 0-.622-.285-.643-.632v-5.193h-1.704l1.755-6.998v-.071c.01-.123-.102-.306-.275-.306-.255 0-.306.163-.337.316l-1.02 4.09c-.123.541-.48.694-.837.613-.408-.102-.52-.46-.429-.847l.97-3.764s.47-1.694.857-2.306c.337-.53.388-.642 1.163-.632h3.133zM8.92 29.227v1.347H5.398v1.683H8.45v1.245H5.399v3.01H3.797v-7.275h5.112zm2.53 0v5.927H15v1.347H9.857v-7.274h1.603zm9.785 6.723c-.53.48-1.285.724-2.285.724-2.062 0-3.102-.979-3.102-2.928v-4.519h1.602v4.52c0 .49.091.846.265 1.091.235.326.653.49 1.235.49.581 0 .949-.133 1.183-.388.215-.235.327-.632.327-1.194v-4.519h1.602v4.52q0 1.453-.827 2.203m3.796-.826c.286.204.663.306 1.123.306.948 0 1.418-.306 1.418-.908 0-.337-.225-.602-.674-.786-.091-.04-.581-.173-1.49-.418-.673-.173-1.173-.388-1.49-.633-.458-.346-.683-.826-.683-1.438 0-.694.296-1.255.878-1.663.51-.357 1.122-.54 1.847-.54.836 0 1.51.183 2.03.54.592.408.888 1.02.888 1.806h-1.551q-.06-1.102-1.439-1.102-.443 0-.735.184c-.244.153-.367.357-.367.642s.133.46.408.582c.194.092.786.265 1.766.52q.857.214 1.285.49c.582.388.878.928.878 1.632s-.255 1.245-.765 1.673c-.541.439-1.296.663-2.266.663-.877 0-1.602-.204-2.163-.622-.633-.47-.939-1.122-.939-1.969h1.551q0 .674.49 1.04m6.624-5.896v2.795h2.949v-2.795h1.602v7.274h-1.602v-3.142h-2.95V36.5h-1.601v-7.274z"/>
    </symbol>
    <symbol xmlns="http://www.w3.org/2000/svg" viewBox="0 0 40 40" id="toilets-non-flush" fill="none">
        <path fill="currentColor" d="M0 0h40v40H0z"/>
        <path fill="#fff" d="M19.76 4.228h2.774v31.493H19.76zm8.539 2.703a2.593 2.593 0 0 1 2.59-2.59 2.587 2.587 0 0 1 2.59 2.59 2.587 2.587 0 0 1-2.59 2.59 2.587 2.587 0 0 1-2.59-2.59m-2.334 4.925c-.573.768-.635 1.689-.635 1.689v8.651-.01c0 .563.46 1.024 1.024 1.024.563 0 1.024-.461 1.024-1.024V15.06c0-.246.194-.44.44-.44s.44.194.44.44v19.708c0 .553.522.973 1.024.973.614 0 1.116-.471 1.116-1.024V27.93v.072-4.628c0-.245.194-.44.44-.44h.113c.245 0 .44.195.44.44v4.628-.072 6.778c.02.594.512 1.034 1.157 1.034.522 0 1.003-.512 1.003-.993h.02V15.05c0-.246.205-.44.451-.44s.44.194.44.44v7.126c0 .563.45 1.023 1.014 1.023.563 0 1.014-.46 1.014-1.023V13.39s-.113-.809-.471-1.34c0 0-.87-1.506-2.673-1.506h-4.832c-1.72.01-2.539 1.32-2.539 1.32zM8.12 6.962a2.593 2.593 0 0 1 2.59-2.59 2.587 2.587 0 0 1 2.59 2.59 2.587 2.587 0 0 1-2.59 2.59 2.587 2.587 0 0 1-2.59-2.59m5.283 3.45c1.044 0 1.34.358 1.7 1.024.399.737 1.023 3.42 1.023 3.42l1.566 6.03.113.43c.164.593-.358 1.187-.758 1.249-.604.102-1.064-.205-1.208-.615l-1.802-6.982c-.071-.358-.215-.44-.512-.44-.204 0-.48.164-.44.553v.04l2.836 11.262H13.23v8.375c0 .553-.45 1.003-1.014 1.003-.563 0-1.024-.46-1.024-1.023v-8.355h-1.034v8.355c0 .563-.45 1.023-1.013 1.023s-1.014-.46-1.024-1.023v-8.355H5.376l2.826-11.261v-.113c.02-.205-.164-.491-.43-.491-.41 0-.502.266-.543.511l-1.648 6.584c-.205.87-.768 1.126-1.341.972-.645-.174-.84-.737-.686-1.351L5.1 15.173s.757-2.713 1.382-3.717c.532-.85.614-1.034 1.873-1.024h5.037z"/>
    </symbol>
    <symbol viewBox="40 40 40 40" id="unpowered-site" fill="none"
        xmlns="http://www.w3.org/2000/svg">
        <path fill="currentColor" d="M 40,40 H 80 V 80 H 40 Z" style="stroke-width:1" />
        <path fill="#ffffff" d="M 51.298666,50 42,70 H 57.250076 L 66.546551,50 Z M 66.79206,70 V 50 L 78,70 Z" style="stroke-width:2.40956" />
    </symbol>
    <symbol xmlns="http://www.w3.org/2000/svg" viewBox="0 0 40 40" id="water-stream" fill="none">
        <path fill="currentColor" d="M0 0h40v40H0z"/>
        <path fill="#fff" d="M22.678 16.524s2.293 3.317 0 3.307c-2.294 0 0-3.307 0-3.307m-6.114 3.338s2.294 3.317 0 3.307c-2.293 0 0-3.307 0-3.307M5.139 31.625c.399.103.798.103 1.198.103 1.689 0 3.143-1.229 4.822-1.229 1.76 0 3.45 1.393 4.955 1.393 1.669 0 3.542-1.567 5.457-1.567 1.914 0 3.48 1.567 5.119 1.567 1.31 0 3.542-1.7 6.02-1.7.727 0 1.464.235 2.16.43v1.996c-.737-.297-1.413-.634-2.232-.634-2.324 0-4.116 1.7-6.511 1.7-1.567 0-2.99-1.567-4.556-1.567-1.864 0-3.512 1.566-5.416 1.566-1.802 0-3.246-1.392-4.986-1.392s-3.43 1.228-5.385 1.228c-.205 0-.43-.071-.635-.102v-1.792zM24.151 9.808l-1.597-.164-1.597-.164a1.4 1.4 0 0 1-1.126-.829 1.3 1.3 0 0 1 0-1.054c.133-.328.389-.604.737-.758.113-.051.225-.082.348-.092a1 1 0 0 1 .348 0l2.447.235 2.447.236.072.02 4.126 1.045 2.467-1.065 2.017-.86v6.071l-4.577 1.996-4.658 2.038-3.082-.43-3.081-.43-1.659-1.608-1.658-1.607a1.5 1.5 0 0 1-.164-.194l-.123-.216a1.2 1.2 0 0 1 0-.962c.123-.297.358-.553.676-.686.245-.102.502-.123.737-.072.246.052.47.164.645.338l1.3 1.26 1.3 1.259s.113.051.175.04a.5.5 0 0 0 .133-.04l1.7-.717 1.699-.716.092-.84c.03-.328.061-.645.082-.799a.22.22 0 0 0-.072-.153.5.5 0 0 0-.123-.061zM5.139 27.776c.399.102.798.102 1.198.102 1.689 0 3.143-1.228 4.822-1.228 1.76 0 3.45 1.392 4.955 1.392 1.669 0 3.542-1.566 5.457-1.566 1.914 0 3.48 1.566 5.119 1.566 1.31 0 3.542-1.7 6.02-1.7.727 0 1.464.236 2.16.43v1.997c-.737-.297-1.413-.635-2.232-.635-2.324 0-4.116 1.7-6.511 1.7-1.567 0-2.99-1.567-4.556-1.567-1.864 0-3.512 1.567-5.416 1.567-1.802 0-3.246-1.393-4.986-1.393s-3.43 1.229-5.385 1.229c-.205 0-.43-.072-.635-.103v-1.791zM19.35 22.77s2.293 3.317 0 3.306c-2.294 0 0-3.307 0-3.307"/>
    </symbol>
    <symbol xmlns="http://www.w3.org/2000/svg" viewBox="0 0 40 40" id="water-tap-treated" fill="none">
        <path fill="currentColor" d="M0 0h40v40H0z"/>
        <path fill="#fff" fill-rule="evenodd" d="M7.709 13.187V9.255h5.498V6.83h-3.184V4.925h8.62v1.904h-3.47v2.426h7.985c.983 0 2.662.983 2.662 2.427v3.644h-3.645v-1.095c0-.87-.348-1.044-1.27-1.044H7.71m22.012 10.146.809-7.26h1.76l-2.027 17.815H18.122l-2.774-17.814h1.935l1.023 7.258c.215-.092.43-.153.697-.153.88 0 1.965 1.7 3.358.737.747-.512 1.064-.737 1.822-.737.082 0 .164.01.246.04.266.083.563.287.89.482.42.256.891.522 1.403.512a1.5 1.5 0 0 0 .82-.297c.746-.512 1.064-.737 1.821-.737.123 0 .236.092.38.154z" clip-rule="evenodd"/>
        <path fill="currentColor" fill-rule="evenodd" d="M19.565 32.209h9.193l.901-7.77a1 1 0 0 0-.256-.052c-.081 0-.43 0-.634.041-.666.143-1.198.665-1.74.89a1.2 1.2 0 0 1-.4.103c-.082 0-.174 0-.256-.02-.45-.103-1.566-1.004-2.211-1.004-.185 0-.318 0-.44.02-.042 0-.072.021-.103.042v-.041c-.952.204-1.638 1.157-2.416.983-.45-.103-1.567-1.004-2.212-1.004-.184 0-.317 0-.43.02-.04 0-.071.021-.102.042l1.116 7.74z" clip-rule="evenodd"/>
        <path fill="#fff" fill-rule="evenodd" d="M22.451 21.029c0-.85 1.536-4.76 1.536-4.76s1.536 3.91 1.536 4.76-.686 1.536-1.536 1.536-1.536-.686-1.536-1.536" clip-rule="evenodd"/>
    </symbol>
    <symbol viewBox="0 0 40 40" id="water-tap-untreated"
        xmlns="http://www.w3.org/2000/svg">
        <path fill="#231f20" d="M 0.87,19.116 19.176,0.746 a 1.235,1.235 0 0 1 1.759,0 l 18.307,18.37 c 0.491,0.49 0.491,1.278 0,1.768 l -18.307,18.37 c -0.491,0.49 -1.279,0.49 -1.76,0 L 0.87,20.884 a 1.246,1.246 0 0 1 0,-1.768" style="display:inline" />
        <path fill="#ffc425" d="M 1.933,19.443 19.504,1.809 a 0.78,0.78 0 0 1 1.104,0 L 38.19,19.443 a 0.777,0.777 0 0 1 0,1.104 L 20.609,38.18 a 0.78,0.78 0 0 1 -1.105,0 L 1.933,20.547 a 0.777,0.777 0 0 1 0,-1.104" style="display:inline" />
        <path fill="#231f20" fill-rule="evenodd" d="m 12.038,16.162 v -2.566 h 3.58 V 12.01 H 13.54 v -1.247 h 5.615 v 1.247 h -2.26 v 1.585 h 5.195 c 0.645,0 1.729,0.644 1.729,1.584 v 2.382 h -2.373 v -0.716 c 0,-0.562 -0.225,-0.684 -0.828,-0.684 h -8.591 m 14.35,6.635 0.521,-4.743 h 1.146 l -1.32,11.643 H 18.82 L 17.01,18.053 h 1.257 l 0.665,4.743 c 0.143,-0.061 0.287,-0.102 0.45,-0.102 0.573,0 1.279,1.114 2.189,0.48 0.49,-0.337 0.695,-0.48 1.186,-0.48 a 0.33,0.33 0 0 1 0.164,0.03 c 0.174,0.051 0.368,0.184 0.583,0.317 0.276,0.174 0.583,0.337 0.91,0.337 0.174,0 0.348,-0.06 0.532,-0.194 0.49,-0.337 0.695,-0.48 1.186,-0.48 0.082,0 0.154,0.061 0.246,0.102" clip-rule="evenodd" style="display:inline" />
        <path fill="#ffc425" fill-rule="evenodd" d="m 19.76,28.592 h 5.983 l 0.583,-5.08 a 0.6,0.6 0 0 0 -0.164,-0.031 c -0.051,0 -0.276,0 -0.409,0.03 -0.43,0.092 -0.777,0.44 -1.135,0.583 a 0.9,0.9 0 0 1 -0.266,0.072 c -0.051,0 -0.113,0 -0.164,-0.01 -0.296,-0.062 -1.023,-0.655 -1.442,-0.655 -0.112,0 -0.204,0 -0.286,0.01 -0.031,0 -0.041,0.02 -0.072,0.02 v -0.03 c -0.624,0.133 -1.064,0.757 -1.575,0.644 -0.296,-0.061 -1.023,-0.654 -1.442,-0.654 -0.112,0 -0.205,0 -0.286,0.01 -0.031,0 -0.041,0.02 -0.072,0.02 l 0.726,5.06" clip-rule="evenodd" style="display:inline" />
        <path fill="#231f20" fill-rule="evenodd" d="m 21.631,21.293 c 0,-0.552 1.003,-3.118 1.003,-3.118 0,0 1.002,2.556 1.002,3.118 a 0.997,0.997 0 0 1 -1.002,1.002 c -0.553,0 -1.003,-0.45 -1.003,-1.002" clip-rule="evenodd" style="display:inline;fill:#333333;fill-opacity:1" />
    </symbol>
    <symbol xmlns="http://www.w3.org/2000/svg" width="14" height="14" fill="currentColor" viewBox="0 0 16 16" id="feature-clipboard">
        <path d="M4 1.5H3a2 2 0 0 0-2 2V14a2 2 0 0 0 2 2h10a2 2 0 0 0 2-2V3.5a2 2 0 0 0-2-2h-1v1h1a1 1 0 0 1 1 1V14a1 1 0 0 1-1 1H3a1 1 0 0 1-1-1V3.5a1 1 0 0 1 1-1h1z"/>
        <path d="M9.5 1a.5.5 0 0 1 .5.5v1a.5.5 0 0 1-.5.5h-3a.5.5 0 0 1-.5-.5v-1a.5.5 0 0 1 .5-.5zm-3-1A1.5.5 0 0 0 5 1.5v1A1.5.5 0 0 0 6.5 4h3A1.5.5 0 0 0 11 2.5v-1A1.5.5 0 0 0 9.5 0z"/>
    </symbol>
    <symbol xmlns="http://www.w3.org/2000/svg" width="12" height="12" fill="currentColor" style="vertical-align: -2px;" viewBox="0 0 16 16" id="feature-open_external">
        <path fill-rule="evenodd" d="M8.636 3.5a.5.5 0 0 0-.5-.5H1.5A1.5 1.5 0 0 0 0 4.5v10A1.5 1.5 0 0 0 1.5 16h10a1.5 1.5 0 0 0 1.5-1.5V7.864a.5.5 0 0 0-1 0V14.5a.5.5 0 0 1-.5.5h-10a.5.5 0 0 1-.5-.5v-10a.5.5 0 0 1 .5-.5h6.636a.5.5 0 0 0 .5-.5"/>
        <path fill-rule="evenodd" d="M16 .5a.5.5 0 0 0-.5-.5h-5a.5.5 0 0 0 0 1h3.793L6.146 9.146a.5.5 0 1 0 .708.708L15 1.707V5.5a.5.5 0 0 0 1 0z"/>
    </symbol>
</svg>