<?xml version="1.0" standalone="no"?>
<!DOCTYPE svg PUBLIC "-//W3C//DTD SVG 20010904//EN"
 "http://www.w3.org/TR/2001/REC-SVG-20010904/DTD/svg10.dtd">
<svg version="1.0" xmlns="http://www.w3.org/2000/svg"
 width="525.000000pt" height="525.000000pt" viewBox="0 0 525.000000 525.000000"
 preserveAspectRatio="xMidYMid meet">
<metadata>
Created by potrace 1.14, written by Peter Selinger 2001-2017
</metadata>
<g transform="translate(0.000000,525.000000) scale(0.100000,-0.100000)"
fill="#000000" stroke="none">
<path d="M2560 5216 c-159 -47 -462 -206 -1110 -581 -568 -329 -1001 -598
-1070 -664 -81 -77 -89 -166 -96 -1126 -6 -742 5 -1332 26 -1465 22 -130 32
-139 369 -349 479 -297 1273 -752 1596 -913 211 -105 249 -118 355 -118 106 0
151 16 375 130 351 179 1253 700 1648 951 260 165 269 176 287 310 20 160 32
840 26 1514 -6 690 -14 878 -41 971 -24 84 -88 137 -390 326 -126 78 -183 112
-775 457 -201 117 -423 247 -495 289 -279 163 -506 265 -612 276 -26 3 -68 -1
-93 -8z m231 -137 c121 -47 278 -130 669 -357 1005 -581 1286 -756 1342 -834
60 -86 72 -346 65 -1458 -7 -966 -14 -1077 -70 -1131 -115 -110 -1365 -844
-1847 -1085 -178 -89 -269 -124 -324 -124 -100 0 -423 161 -1096 548 -347 199
-776 458 -935 564 -161 107 -176 128 -196 263 -16 116 -24 1741 -10 2045 11
244 25 334 58 379 43 58 394 280 1000 632 582 338 929 523 1075 574 91 32 154
28 269 -16z"/>
<path d="M2452 3776 c-160 -31 -310 -91 -442 -178 -83 -54 -224 -194 -280
-277 -236 -351 -247 -794 -28 -1151 37 -61 92 -126 194 -230 l143 -145 -109
-163 c-102 -152 -131 -205 -117 -218 18 -19 909 233 1209 341 142 51 227 104
337 209 93 90 149 169 206 287 163 347 133 760 -78 1074 -122 181 -377 360
-614 431 -109 32 -305 42 -421 20z m895 -723 c39 -18 68 -71 58 -104 -11 -32
-61 -84 -149 -153 -111 -87 -172 -156 -226 -256 -59 -110 -98 -150 -148 -150
-44 0 -63 12 -155 97 -38 34 -94 75 -125 90 -51 25 -68 28 -157 28 -93 0 -105
-2 -170 -34 -52 -26 -94 -58 -164 -128 -52 -51 -103 -93 -113 -93 -62 0 -148
80 -148 137 0 79 53 121 169 134 134 15 321 126 321 191 0 41 32 72 72 71 51
-1 94 -27 174 -103 207 -196 360 -169 508 91 88 155 105 179 129 189 35 14 86
11 124 -7z"/>
</g>
</svg>
