<?xml version="1.0" standalone="no"?>
<!DOCTYPE svg PUBLIC "-//W3C//DTD SVG 20010904//EN"
 "http://www.w3.org/TR/2001/REC-SVG-20010904/DTD/svg10.dtd">
<svg version="1.0" xmlns="http://www.w3.org/2000/svg"
 width="483.000000pt" height="483.000000pt" viewBox="0 0 483.000000 483.000000"
 preserveAspectRatio="xMidYMid meet">
<metadata>
Created by potrace 1.14, written by Peter Selinger 2001-2017
</metadata>
<g transform="translate(0.000000,483.000000) scale(0.100000,-0.100000)"
fill="#000000" stroke="none">
<path d="M2316 4618 c-93 -103 -266 -333 -266 -355 0 -3 -6 -14 -14 -22 -14
-16 -52 -83 -116 -202 l-35 -66 -68 33 c-69 33 -293 123 -357 143 -45 13 -189
52 -215 57 -11 2 -33 7 -50 10 -16 4 -40 8 -52 10 -13 1 -40 5 -62 9 -62 10
-66 -1 -81 -186 -15 -176 -4 -398 26 -567 8 -45 12 -87 9 -92 -3 -6 -17 -10
-30 -10 -35 0 -118 -18 -361 -79 -18 -5 -37 -11 -43 -15 -6 -4 -19 -9 -28 -11
-36 -7 -190 -69 -258 -104 -105 -54 -101 -73 49 -301 106 -161 181 -255 315
-392 l84 -87 -69 -76 c-168 -185 -286 -346 -386 -524 -32 -58 -58 -116 -58
-128 0 -27 24 -44 127 -87 182 -76 436 -146 660 -180 23 -4 24 -13 14 -72 -6
-33 -13 -113 -16 -179 -3 -66 -8 -131 -11 -144 -7 -30 14 -330 27 -398 l10
-53 47 0 c95 0 425 97 597 175 17 8 70 32 120 55 102 46 94 49 145 -47 41 -78
139 -232 203 -318 76 -103 230 -280 262 -301 23 -15 27 -15 49 -1 25 17 148
160 208 242 47 66 138 203 138 210 0 2 18 34 39 69 22 35 49 85 60 109 12 25
25 48 29 51 5 3 58 -17 119 -44 249 -111 564 -206 658 -198 39 3 40 4 53 58 9
35 16 138 19 285 4 216 -3 326 -33 511 -4 31 -3 32 48 43 349 77 510 130 723
236 83 42 85 63 11 183 -52 84 -161 241 -175 252 -3 3 -28 32 -56 65 -27 33
-56 67 -65 76 -8 8 -46 47 -85 87 l-69 72 50 52 c201 211 436 548 438 628 1
34 -1 36 -74 72 -185 91 -430 165 -720 216 l-45 8 3 54 c2 30 7 88 12 127 23
174 3 632 -30 693 -13 24 -33 25 -125 5 -166 -35 -459 -141 -637 -231 -53 -27
-58 -28 -58 -14 0 5 -25 50 -55 101 -30 50 -55 93 -55 96 0 2 -8 16 -18 31
-11 15 -32 47 -48 72 -107 166 -288 370 -328 370 -18 0 -45 -23 -100 -82z
m152 -90 c43 -46 130 -158 198 -254 44 -63 169 -281 181 -317 8 -22 20 -51 27
-66 33 -63 68 -187 86 -304 16 -99 0 -223 -46 -355 -26 -77 -43 -105 -95 -166
-35 -41 -69 -75 -75 -75 -7 -1 -36 10 -66 24 -31 14 -92 33 -137 42 l-81 16 0
436 c0 327 -3 440 -12 449 -19 19 -66 15 -78 -7 -6 -13 -10 -173 -10 -450 l0
-431 -27 -6 c-100 -22 -151 -37 -194 -58 l-50 -23 -74 83 c-41 47 -75 89 -75
95 0 6 -7 25 -15 42 -22 48 -46 143 -56 222 -24 184 31 383 178 644 29 51 53
97 53 101 0 5 3 10 8 12 4 2 22 27 40 57 58 94 251 341 267 341 2 0 26 -24 53
-52z m1206 -420 c21 -230 15 -507 -13 -658 l-7 -35 -134 -6 c-187 -8 -270 -29
-406 -100 -41 -21 -74 -36 -74 -31 1 4 7 36 15 72 19 84 19 215 0 311 -14 77
-57 219 -75 252 -9 15 3 24 87 65 146 71 386 163 465 177 14 3 37 9 50 14 12
6 37 10 54 10 l31 1 7 -72z m-2419 -4 c130 -33 149 -38 220 -62 84 -28 203
-76 290 -117 l75 -36 -15 -37 c-66 -170 -82 -402 -39 -560 7 -23 4 -22 -67 15
-157 81 -255 103 -453 103 l-134 0 -11 83 c-26 194 -31 257 -31 382 0 73 3
160 6 194 6 58 8 61 33 61 14 0 71 -12 126 -26z m211 -810 c190 -44 374 -167
451 -302 54 -95 55 -98 31 -119 -28 -24 -88 -108 -117 -163 -13 -25 -25 -46
-26 -48 -1 -1 -65 18 -141 44 -76 25 -143 47 -149 48 -5 1 -123 39 -261 84
-139 45 -265 82 -281 82 -34 0 -53 -16 -53 -45 0 -28 24 -41 153 -82 62 -19
180 -57 262 -85 83 -27 157 -51 165 -53 8 -3 40 -13 70 -23 30 -10 89 -29 131
-42 l75 -24 -9 -61 c-5 -33 -6 -98 -3 -145 l5 -85 -81 -38 c-120 -56 -232 -71
-359 -47 -30 6 -65 13 -79 15 -40 7 -145 52 -202 87 -85 52 -175 128 -294 250
-158 161 -260 291 -354 448 -40 66 -48 86 -38 96 32 28 362 141 506 173 209
45 236 49 389 50 97 1 163 -4 209 -15z m2296 6 c29 -6 78 -15 108 -21 65 -12
128 -26 190 -44 25 -7 65 -18 90 -25 74 -20 90 -26 217 -76 l121 -48 -20 -41
c-102 -199 -379 -525 -573 -675 -175 -134 -365 -199 -550 -187 -79 5 -103 12
-178 47 -48 22 -90 40 -94 40 -5 0 -8 67 -8 149 l0 148 190 62 c105 34 291 94
414 134 236 76 258 89 240 135 -13 34 -57 29 -226 -27 -81 -26 -256 -83 -388
-126 -132 -43 -245 -80 -252 -82 -6 -3 -23 17 -36 44 -14 27 -51 81 -82 121
l-57 73 41 71 c23 39 41 74 41 77 0 13 86 89 145 129 91 61 158 90 275 121 48
13 327 13 392 1z m-1217 -345 c209 -54 336 -175 411 -391 23 -65 24 -239 2
-310 -35 -111 -108 -221 -191 -283 -242 -183 -564 -157 -763 62 -251 274 -164
724 172 883 108 52 260 68 369 39z m1716 -841 c75 -92 116 -146 160 -214 43
-65 81 -132 77 -134 -23 -13 -245 -106 -263 -110 -5 -1 -46 -14 -91 -29 -91
-29 -216 -60 -323 -80 -55 -11 -71 -11 -71 -2 0 22 -58 189 -82 235 -44 85
-102 165 -170 232 -37 37 -64 69 -60 72 4 2 36 7 72 11 156 16 355 108 484
223 l38 34 85 -83 c47 -46 111 -116 144 -155z m-3359 150 c59 -44 225 -131
265 -139 10 -2 29 -8 43 -13 14 -5 59 -13 100 -17 41 -4 78 -9 82 -12 5 -2
-23 -35 -62 -73 -70 -69 -139 -166 -179 -250 -25 -55 -81 -228 -81 -252 0 -20
-13 -22 -73 -9 -23 5 -69 15 -102 21 -113 22 -153 32 -280 71 -59 18 -243 87
-253 95 -2 1 8 20 22 43 14 22 26 43 26 46 0 7 106 169 156 237 84 115 247
298 266 298 4 0 36 -21 70 -46z m924 -149 c3 -14 9 -25 13 -25 3 0 12 -13 19
-29 7 -16 40 -58 72 -94 l60 -65 -48 -64 c-48 -66 -152 -208 -257 -354 -33
-45 -80 -110 -105 -144 -76 -104 -110 -155 -110 -164 0 -18 33 -46 56 -46 21
0 70 57 154 180 13 19 27 37 30 40 3 3 28 37 55 75 27 39 70 98 95 131 25 34
82 113 128 176 l83 114 57 -28 c31 -15 92 -37 135 -47 44 -11 81 -21 83 -24 2
-2 7 -46 10 -98 12 -173 -52 -346 -189 -512 -49 -59 -194 -169 -294 -223 -66
-36 -84 -45 -153 -77 -41 -19 -86 -38 -100 -42 -14 -4 -29 -11 -35 -15 -34
-25 -346 -117 -415 -122 l-35 -3 -8 105 c-9 121 -1 434 13 530 46 303 88 426
195 567 56 75 116 130 211 192 66 44 108 59 214 76 19 3 36 8 39 11 11 10 21
2 27 -21z m1250 11 c23 -4 56 -11 74 -16 18 -5 36 -7 40 -5 4 3 13 -2 20 -10
7 -8 17 -15 22 -15 15 0 135 -87 186 -134 61 -56 136 -166 172 -254 41 -98 94
-312 109 -437 12 -111 16 -496 5 -563 -7 -42 -7 -42 -43 -36 -232 40 -609 191
-806 322 -85 56 -216 181 -261 247 -21 31 -73 135 -84 170 -4 11 -13 38 -21
60 -16 46 -15 237 0 279 6 15 18 26 29 26 34 0 137 31 191 57 l54 26 21 -25
c12 -14 50 -65 85 -114 36 -49 95 -129 131 -179 37 -49 75 -103 86 -120 10
-16 21 -32 24 -35 6 -6 74 -98 135 -184 30 -43 45 -56 65 -56 64 0 65 47 3
131 -58 77 -75 102 -110 154 -14 22 -29 42 -32 45 -3 3 -21 25 -39 50 -18 25
-47 65 -65 90 -18 25 -74 102 -125 172 -50 69 -92 128 -92 130 0 2 23 28 51
58 28 30 66 83 86 118 19 34 38 60 42 58 3 -2 25 -7 47 -10z m-477 -1069 c79
-82 225 -197 249 -197 35 0 17 -44 -93 -229 -129 -218 -278 -413 -303 -397
-16 10 -147 167 -216 260 -84 112 -226 347 -226 373 0 5 21 22 48 40 135 90
248 216 315 353 l41 85 49 -99 c40 -81 66 -117 136 -189z"/>
<path d="M2366 2891 c-40 -42 -85 -127 -91 -172 -2 -17 -6 -33 -9 -36 -3 -3
-26 2 -52 11 -81 27 -204 15 -239 -24 -15 -16 -15 -24 -5 -57 22 -66 50 -114
95 -159 l45 -44 -44 -40 c-43 -40 -75 -94 -96 -163 -11 -35 -10 -41 10 -62 13
-13 25 -24 29 -23 3 1 32 -2 63 -6 58 -8 149 6 175 26 14 11 19 2 26 -47 11
-78 102 -205 147 -205 41 0 126 128 145 217 l6 32 47 -15 c80 -24 223 -14 244
18 25 37 -20 148 -89 219 l-44 46 44 44 c52 52 85 112 93 172 7 53 -1 60 -81
76 -61 11 -167 0 -189 -20 -17 -16 -23 -10 -28 29 -11 81 -93 205 -142 214
-19 4 -33 -4 -60 -31z m84 -137 c27 -62 26 -135 -2 -185 -12 -22 -25 -39 -30
-39 -4 0 -17 19 -29 42 -17 32 -20 53 -16 97 5 59 31 131 47 131 5 0 18 -21
30 -46z m-259 -156 c46 -15 91 -54 112 -96 9 -20 17 -37 17 -39 0 -2 -18 -3
-40 -3 -68 0 -137 39 -176 101 -13 21 -24 41 -24 44 0 9 77 5 111 -7z m569 7
c0 -9 -32 -58 -54 -83 -32 -36 -90 -62 -141 -62 -25 0 -45 2 -45 5 0 3 11 23
24 44 29 45 68 75 116 89 38 11 100 15 100 7z m-458 -286 c-23 -59 -110 -109
-188 -109 -39 0 -39 1 -20 38 34 64 108 111 178 112 l46 0 -16 -41z m332 21
c23 -12 54 -33 68 -48 34 -37 62 -82 52 -83 -98 -11 -196 37 -221 107 -11 32
-10 33 15 37 15 2 30 5 35 6 4 0 27 -8 51 -19z m-187 -92 c16 -22 20 -40 18
-92 -2 -62 -28 -131 -51 -131 -5 0 -18 18 -29 40 -29 57 -27 139 4 188 13 21
27 35 31 30 3 -4 16 -20 27 -35z"/>
</g>
</svg>
