<?xml version="1.0" encoding="UTF-8" standalone="no"?>
<svg
   shape-rendering="geometricPrecision"
   text-rendering="geometricPrecision"
   image-rendering="optimizeQuality"
   fill-rule="evenodd"
   clip-rule="evenodd"
   viewBox="0 0 991 734.99998"
   version="1.1"
   id="svg"
   width="991"
   height="735"
   xmlns="http://www.w3.org/2000/svg"
   xmlns:svg="http://www.w3.org/2000/svg">
  <path
     d="m 580.13754,669.20311 c 157.26403,-43.67265 259.6163,-134.94948 285.06888,-293.79787 6.9293,-43.20785 -2.74849,-10.5744 -32.03347,11.34908 C 737.55642,458.35424 549.55574,433.00279 523.46442,269.48694 470.97211,-20.030823 832.74712,-70.152702 939.82215,89.741513 964.73278,126.90685 981.22372,170.289 987.16589,217.9319 c 25.80101,207.20788 -80.32563,391.75632 -266.75851,478.44316 -34.49163,16.0359 -70.8414,28.58574 -109.95901,37.80444 -19.58784,3.95088 -33.81419,-6.70099 -40.37573,-24.75106 -5.55505,-15.39679 -7.45189,-32.38168 10.0649,-40.22533 z m -518.303538,0 C 219.09804,625.53046 321.46967,534.25363 346.90289,375.40524 353.83218,332.19739 344.1544,364.83084 314.86941,386.75432 219.25288,458.35424 31.252197,433.00279 5.1802402,269.48694 -47.350785,-20.030823 314.44359,-70.152702 421.51862,89.741513 446.42924,126.90685 462.92019,170.289 468.86235,217.9319 494.66333,425.13978 388.53673,609.68822 202.10385,696.37506 167.61221,712.41096 131.2818,724.9608 92.14483,734.1795 72.55699,738.13038 58.330644,727.47851 51.769104,709.42844 46.214055,694.03165 44.317209,677.04676 61.834002,669.20311 Z"
     />
</svg>
