<svg
   version="1.1"
   id="svg"
   width="991"
   height="735"
   viewBox="0 0 991 735"
   fill="currentColor"
   xmlns="http://www.w3.org/2000/svg"
   xmlns:svg="http://www.w3.org/2000/svg">
  <path
     d="M 59.129547,733.99748 C 29.833122,730.05671 9.714857,717.31357 3.9177087,699.02574 2.0265462,693.05983 2.0102188,681.97447 3.8839164,676.08269 5.6488036,670.53307 10.951752,661.84966 15.343249,657.31839 17.126455,655.47843 87.008866,589.59207 170.63749,510.90426 254.26612,432.21644 322.69375,367.34853 322.69889,366.75335 322.70389,366.15816 254.91477,303.55996 172.05607,227.64624 71.260579,135.29912 18.631023,86.512123 13.025086,80.226298 1.876618,67.725757 -0.02853871,63.617763 3.1999146e-4,52.141654 0.04485749,34.430594 8.048989,22.630349 25.946699,13.889705 50.406617,1.9442975 70.337177,-2.0081378 91.305546,0.92837314 107.42021,3.1851485 118.59294,7.6721881 130.37127,16.617417 c 3.80363,2.888723 77.06398,70.445167 162.80077,150.125423 85.73681,79.68027 162.71735,151.1979 171.06787,158.92807 8.35053,7.73018 16.11461,15.25302 17.25351,16.71745 3.80867,4.89725 7.08894,12.92192 8.0046,19.58203 1.82744,13.2919 -2.44278,24.97149 -13.02644,35.62899 -6.95104,6.99953 -342.39219,314.35234 -349.16971,319.9318 -17.06266,14.04649 -41.779404,20.01656 -68.172323,16.4663 z m 500.115223,-0.0317 c -15.86737,-2.22399 -32.18678,-8.38297 -40.52615,-15.29466 -9.47033,-7.84923 -15.57871,-20.07381 -15.57871,-31.17757 0,-9.1775 4.30548,-19.82986 11.28294,-27.91554 1.82461,-2.1144 72.21075,-68.66889 156.41364,-147.89885 C 755.03938,432.44919 824.05718,367.342 824.20936,366.99651 824.36155,366.65103 756.24301,303.82749 672.83484,227.38866 521.60164,88.792052 508.31492,76.183298 503.99393,67.163002 496.74948,52.039828 501.42276,32.89305 515.26406,20.988441 522.6413,14.643427 545.0791,5.1204273 560.32207,1.8650171 c 10.55918,-2.25510156 27.62619,-2.22192866 38.54587,0.074921 9.84605,2.071023 19.01838,5.6468758 26.99432,10.5237929 4.85646,2.969502 45.13592,39.888416 177.32117,162.527119 94.07052,87.27666 173.27962,161.05401 176.02025,163.94968 8.65136,9.1409 12.62127,19.96602 11.65393,31.77802 -0.93993,11.47776 -6.14535,20.50419 -18.28893,31.71354 -112.99397,104.3015 -342.1472,313.46095 -348.26348,317.87725 -8.75424,6.32109 -19.35562,10.87904 -30.25496,13.00789 -8.32641,1.62632 -25.54038,1.94699 -34.80547,0.64832 z"
     />
</svg>
