<?xml version="1.0" encoding="UTF-8" standalone="no"?>

<svg viewBox="0 0 382.00024 64.733" version="1.1" id="logo" xml:space="preserve"
  xmlns="http://www.w3.org/2000/svg"
  xmlns:svg="http://www.w3.org/2000/svg">
  <g id="layer1" transform="matrix(1.8484101,0,0,1.8484101,674.98343,-4.17988)">
    <path 
      id="path962"
      style="fill:#ffffff;stroke:none;stroke-width:0.0682021" 
      d="m -266.37731,2.8257897 c 0.97332,-0.1434426 1.96818,0.4001554 2.79629,0.8451058 1.5177,0.8154583 3.02333,1.6577882 4.50133,2.5444768 1.85831,1.1148246 3.75003,2.1713159 5.59257,3.312985 0.76872,0.4762557 1.82639,0.9608307 2.33914,1.7339697 0.31891,0.480824 0.30758,1.216794 0.32177,1.773254 0.022,0.864257 0.0672,1.724286 0.0672,2.59168 v 8.593464 c 0,1.317527 0.21538,3.122632 -0.28283,4.364661 -0.17071,0.425512 -0.65031,0.667764 -1.01301,0.909608 -0.80308,0.535661 -1.62765,1.035786 -2.45527,1.532296 -2.55738,1.534412 -5.12395,3.095899 -7.77504,4.464372 -1.07501,0.554963 -2.26179,1.422764 -3.47831,1.609095 -0.91888,0.140769 -1.86942,-0.464389 -2.65988,-0.859619 -1.92999,-0.964994 -3.78678,-2.067273 -5.66077,-3.134979 -1.67757,-0.955853 -3.35433,-1.929096 -4.97875,-2.972861 -0.60857,-0.391002 -1.57134,-0.775183 -1.95281,-1.413896 -0.35209,-0.589606 -0.25911,-1.388321 -0.30397,-2.043403 -0.12086,-1.764865 -0.0621,-3.548623 -0.0621,-5.319762 v -6.615603 c 0,-1.032376 -0.12456,-2.459504 0.33549,-3.409832 0.19986,-0.412896 0.66032,-0.662379 1.02855,-0.909338 0.78038,-0.5235196 1.59223,-0.999093 2.38707,-1.4997645 2.39629,-1.5093736 4.89003,-2.89228 7.36583,-4.265502 1.15971,-0.6432344 2.55376,-1.6338494 3.88752,-1.8304078" />
    <path 
      id="path964" 
      style="display:inline;fill:#4581eb;stroke:none;stroke-width:0.0682021" 
      d="m -271.56067,28.108244 c 2.84526,-0.736447 5.7877,-1.39637 8.52526,-2.485966 3.98641,-1.586654 5.18261,-6.936494 2.95329,-10.404229 -1.94874,-3.031174 -5.93706,-4.117565 -9.15967,-2.606548 -1.04254,0.488805 -1.9707,1.222591 -2.68247,2.129133 -0.81323,1.035853 -1.33942,2.371523 -1.46627,3.682913 -0.17241,1.781643 0.30834,3.620848 1.39705,5.046954 0.45982,0.602225 1.54914,1.278858 1.78915,1.977861 0.0876,0.255349 -0.20297,0.554756 -0.33331,0.750223 -0.33746,0.506196 -1.09778,1.271833 -1.02303,1.909659 m 9.95751,-11.339962 c 0.5523,0.01432 1.07316,0.470458 0.78726,1.041377 -0.33815,0.675337 -1.23051,1.020031 -1.73042,1.56899 -0.50743,0.557006 -0.76367,1.515723 -1.37673,1.939053 -0.45635,0.315162 -0.94202,-1.36e-4 -1.29482,-0.314343 -1.0763,-0.958376 -2.20675,-1.469482 -3.54651,-0.595063 -0.52358,0.341692 -1.15118,1.435109 -1.84145,1.245165 -0.68257,-0.187829 -1.07753,-1.051813 -0.46999,-1.564488 0.2958,-0.249619 0.6621,-0.20372 1.0156,-0.27881 0.50436,-0.107145 1.01409,-0.318708 1.43224,-0.62173 0.40172,-0.291154 0.5873,-1.12438 1.09151,-1.162027 1.29024,-0.09644 1.87338,2.128997 3.40983,1.452227 0.77805,-0.342715 1.10774,-1.192172 1.51416,-1.873511 0.24778,-0.415487 0.45858,-0.851094 1.00932,-0.83684 z" />
    <path 
      id="path1961" 
      style="fill:#ffffff;"
      d="m -168.67221,11.747355 h 8.1451 q 0.38895,0 0.66351,0.251674 0.27455,0.251675 0.27455,0.640626 0,0.388952 -0.27455,0.640626 -0.27456,0.228795 -0.66351,0.228795 h -7.3672 l 0.20592,-0.388951 v 5.788513 l -0.22879,-0.251674 h 6.3605 q 0.38895,0 0.6635,0.251674 0.27456,0.251675 0.27456,0.640626 0,0.388951 -0.27456,0.640626 -0.27455,0.228795 -0.6635,0.228795 h -6.29187 l 0.16016,-0.205916 v 5.925791 l -0.13728,-0.160157 h 7.29856 q 0.38895,0 0.66351,0.274554 0.27455,0.274554 0.27455,0.617747 0,0.388951 -0.27455,0.640626 -0.27456,0.251674 -0.66351,0.251674 h -8.1451 q -0.38895,0 -0.6635,-0.274554 -0.25168,-0.274554 -0.25168,-0.663505 v -14.16241 q 0,-0.388952 0.25168,-0.640626 0.27455,-0.274554 0.6635,-0.274554 z m -5.76562,0 q 0.38895,0 0.61774,0.251674 0.2288,0.228795 0.2288,0.594867 v 14.208169 q 0,0.434711 -0.27456,0.709265 -0.27455,0.251674 -0.6635,0.251674 -0.20592,0 -0.41183,-0.06864 -0.20592,-0.09152 -0.32032,-0.228795 l -9.79242,-12.949797 0.45759,-0.274554 v 12.675243 q 0,0.366072 -0.25168,0.617746 -0.22879,0.228795 -0.61774,0.228795 -0.36607,0 -0.59487,-0.228795 -0.22879,-0.251674 -0.22879,-0.617746 V 12.662535 q 0,-0.411831 0.25167,-0.663506 0.27455,-0.251674 0.64063,-0.251674 0.20591,0 0.41183,0.09152 0.22879,0.06864 0.34319,0.228795 l 9.65515,12.76676 -0.29744,0.366072 V 12.593896 q 0,-0.366072 0.2288,-0.594867 0.25167,-0.251674 0.61775,-0.251674 z m -15.87839,15.07759 q 0,0.388951 -0.29744,0.663505 -0.27455,0.274554 -0.6635,0.274554 -0.43471,0 -0.68639,-0.274554 -0.25167,-0.274554 -0.25167,-0.663505 V 12.685414 q 0,-0.411831 0.27455,-0.663505 0.27456,-0.274554 0.68639,-0.274554 0.38895,0 0.6635,0.274554 0.27456,0.251674 0.27456,0.663505 z m -5.4682,-0.869421 q 0.38895,0 0.66351,0.274554 0.27455,0.251674 0.27455,0.640626 0,0.388951 -0.27455,0.640626 -0.27456,0.251674 -0.66351,0.251674 h -7.91631 q -0.38895,0 -0.6635,-0.274554 -0.25168,-0.274554 -0.25168,-0.663505 v -14.16241 q 0,-0.388952 0.27456,-0.640626 0.27455,-0.274554 0.68638,-0.274554 0.38895,0 0.66351,0.274554 0.27455,0.251674 0.27455,0.640626 v 13.70482 l -0.45759,-0.411831 z m -13.68193,-14.208169 q 0.38895,0 0.61775,0.251674 0.22879,0.228795 0.22879,0.594867 v 14.208169 q 0,0.434711 -0.27455,0.709265 -0.27456,0.251674 -0.66351,0.251674 -0.20591,0 -0.41183,-0.06864 -0.20592,-0.09152 -0.32031,-0.228795 l -9.79243,-12.949797 0.45759,-0.274554 v 12.675243 q 0,0.366072 -0.25167,0.617746 -0.2288,0.228795 -0.61775,0.228795 -0.36607,0 -0.59487,-0.228795 -0.22879,-0.251674 -0.22879,-0.617746 V 12.662535 q 0,-0.411831 0.25167,-0.663506 0.27456,-0.251674 0.64063,-0.251674 0.20591,0 0.41183,0.09152 0.22879,0.06864 0.34319,0.228795 l 9.65515,12.76676 -0.29743,0.366072 V 12.593896 q 0,-0.366072 0.22879,-0.594867 0.25168,-0.251674 0.61775,-0.251674 z m -14.89455,8.007825 q 0,1.761721 -0.57199,3.271768 -0.57199,1.487167 -1.60157,2.608263 -1.02957,1.121095 -2.4481,1.738842 -1.41853,0.617746 -3.08874,0.617746 -1.69308,0 -3.11161,-0.617746 -1.39565,-0.617747 -2.42522,-1.738842 -1.02958,-1.121096 -1.60157,-2.608263 -0.57199,-1.510047 -0.57199,-3.271768 0,-1.784601 0.57199,-3.271769 0.57199,-1.510047 1.60157,-2.608263 1.02957,-1.121095 2.42522,-1.738842 1.41853,-0.617746 3.11161,-0.617746 1.67021,0 3.08874,0.617746 1.41853,0.617747 2.4481,1.738842 1.02958,1.098216 1.60157,2.608263 0.57199,1.487168 0.57199,3.271769 z m -1.96764,0 q 0,-1.876119 -0.75502,-3.317528 -0.73215,-1.441408 -2.0134,-2.26507 -1.28125,-0.823662 -2.97434,-0.823662 -1.69308,0 -2.99721,0.823662 -1.28125,0.823662 -2.0134,2.26507 -0.73214,1.441409 -0.73214,3.317528 0,1.853239 0.73214,3.317527 0.73215,1.441408 2.0134,2.26507 1.30413,0.823662 2.99721,0.823662 1.69309,0 2.97434,-0.823662 1.28125,-0.823662 2.0134,-2.26507 0.75502,-1.464288 0.75502,-3.317527 z"
    />
    <path 
      id="path1986" 
      style="fill:#ffffff;"
      d="m -299.40761,11.518811 q 1.64732,0 2.92857,0.617744 1.28124,0.617744 2.15066,1.738834 0.8923,1.098212 1.32701,2.562493 0.45758,1.441402 0.45758,3.088719 0,2.219302 -0.80077,4.049654 -0.80078,1.807473 -2.3337,2.882805 -1.51004,1.075331 -3.72935,1.075331 h -5.46817 q -0.59487,0 -1.0067,-0.388949 -0.38895,-0.41183 -0.38895,-1.006694 V 12.914455 q 0,-0.594865 0.38895,-0.983815 0.41183,-0.411829 1.0067,-0.411829 z m -0.22879,13.384449 q 1.4414,0 2.35658,-0.73214 0.91517,-0.755021 1.327,-1.967629 0.43471,-1.235487 0.43471,-2.67689 0,-1.075331 -0.25167,-2.036266 -0.2288,-0.983815 -0.73214,-1.715955 -0.50335,-0.755021 -1.28125,-1.189729 -0.7779,-0.434709 -1.85323,-0.434709 h -4.00389 l 0.22879,-0.205914 v 11.210906 l -0.13728,-0.251674 z m -18.32641,-13.384449 h 7.6646 q 0.59486,0 0.98381,0.38895 0.41183,0.36607 0.41183,0.960935 0,0.571985 -0.41183,0.938055 -0.38895,0.343191 -0.98381,0.343191 h -6.40623 l 0.20591,-0.38895 v 4.461484 l -0.18303,-0.183036 h 5.35378 q 0.59486,0 0.98381,0.38895 0.41183,0.366071 0.41183,0.960935 0,0.571985 -0.41183,0.938055 -0.38895,0.343191 -0.98381,0.343191 h -5.28515 l 0.1144,-0.183035 v 4.621639 l -0.18303,-0.205915 h 6.38335 q 0.59486,0 0.98381,0.41183 0.41183,0.388949 0.41183,0.915176 0,0.571985 -0.41183,0.938055 -0.38895,0.36607 -0.98381,0.36607 h -7.6646 q -0.59487,0 -1.00669,-0.388949 -0.38895,-0.41183 -0.38895,-1.006694 V 12.914455 q 0,-0.594865 0.38895,-0.983815 0.41182,-0.411829 1.00669,-0.411829 z m -5.39956,0 q 0.50335,0 0.98382,0.366071 0.50334,0.36607 0.50334,0.983814 0,0.434708 -0.32031,0.869417 l -8.76281,11.256665 -0.27455,-0.09152 h 7.64172 q 0.59486,0 0.98381,0.366071 0.41183,0.343191 0.41183,0.938055 0,0.571985 -0.41183,0.960935 -0.38895,0.36607 -0.98381,0.36607 h -10.04406 q -0.59486,0 -1.02957,-0.411829 -0.43471,-0.434708 -0.43471,-0.938055 0,-0.434709 0.32031,-0.869417 l 8.78569,-11.302424 0.20592,0.137276 h -6.93246 q -0.59487,0 -1.0067,-0.36607 -0.38894,-0.366071 -0.38894,-0.960935 0,-0.594864 0.38894,-0.938055 0.41183,-0.366071 1.0067,-0.366071 z m -15.48937,0 q 0.54911,0 0.8923,0.366071 0.34319,0.36607 0.34319,0.915176 v 13.33869 q 0,0.594864 -0.41183,1.006694 -0.38895,0.388949 -0.98381,0.388949 -0.29743,0 -0.61774,-0.09152 -0.29744,-0.114397 -0.45759,-0.297432 l -8.99161,-11.416821 0.59487,-0.366071 v 10.890595 q 0,0.549106 -0.36607,0.915176 -0.34319,0.36607 -0.91518,0.36607 -0.5491,0 -0.8923,-0.36607 -0.34319,-0.36607 -0.34319,-0.915176 v -13.33869 q 0,-0.594865 0.38895,-0.983815 0.41183,-0.411829 1.0067,-0.411829 0.32031,0 0.6635,0.137277 0.34319,0.114397 0.50335,0.36607 l 8.71705,11.119389 -0.38895,0.274552 V 12.800058 q 0,-0.549106 0.34319,-0.915176 0.34319,-0.366071 0.91517,-0.366071 z m -23.84034,0 h 7.6646 q 0.59486,0 0.98381,0.38895 0.41183,0.36607 0.41183,0.960935 0,0.571985 -0.41183,0.938055 -0.38895,0.343191 -0.98381,0.343191 h -6.40623 l 0.20591,-0.38895 v 4.461484 l -0.18304,-0.183036 h 5.35378 q 0.59487,0 0.98382,0.38895 0.41183,0.366071 0.41183,0.960935 0,0.571985 -0.41183,0.938055 -0.38895,0.343191 -0.98382,0.343191 h -5.28514 l 0.1144,-0.183035 v 4.621639 l -0.18304,-0.205915 h 6.38336 q 0.59486,0 0.98381,0.41183 0.41183,0.388949 0.41183,0.915176 0,0.571985 -0.41183,0.938055 -0.38895,0.36607 -0.98381,0.36607 h -7.6646 q -0.59487,0 -1.0067,-0.388949 -0.38895,-0.41183 -0.38895,-1.006694 V 12.914455 q 0,-0.594865 0.38895,-0.983815 0.41183,-0.411829 1.0067,-0.411829 z" 
    />
  </g>
</svg>
