<svg version="1.1" viewBox="0 0 620 620" xmlns="http://www.w3.org/2000/svg">
 <path fill='slategrey'
 d="m568.98 371.86c56.5-56.5 56.5-148 0-204.5-50-50-128.8-56.5-186.3-15.4l-1.6 1.1c-14.4 10.3-17.7 30.3-7.4 44.6s30.3 17.7 44.6 7.4l1.6-1.1c32.1-22.9 76-19.3 103.8 8.6 31.5 31.5 31.5 82.5 0 114l-112.2 112.4c-31.5 31.5-82.5 31.5-114 0-27.9-27.9-31.5-71.8-8.6-103.8l1.1-1.6c10.3-14.4 6.9-34.4-7.4-44.6s-34.4-6.9-44.6 7.4l-1.1 1.6c-41.2 57.4-34.7 136.2 15.3 186.2 56.5 56.5 148 56.5 204.5 0zm-519.6-23.4c-56.5 56.5-56.5 148 0 204.5 50 50 128.8 56.5 186.3 15.4l1.6-1.1c14.4-10.3 17.7-30.3 7.4-44.6s-30.3-17.7-44.6-7.4l-1.6 1.1c-32.1 22.9-76 19.3-103.8-8.6-31.5-31.6-31.5-82.6 0-114.1l112.2-112.3c31.5-31.5 82.5-31.5 114 0 27.9 27.9 31.5 71.8 8.6 103.9l-1.1 1.6c-10.3 14.4-6.9 34.4 7.4 44.6s34.4 6.9 44.6-7.4l1.1-1.6c41.2-57.5 34.7-136.3-15.3-186.3-56.5-56.5-148-56.5-204.5 0z"/>
</svg>
