<?xml version="1.0" standalone="no"?>
<!DOCTYPE svg PUBLIC "-//W3C//DTD SVG 20010904//EN"
 "http://www.w3.org/TR/2001/REC-SVG-20010904/DTD/svg10.dtd">
<svg version="1.0" xmlns="http://www.w3.org/2000/svg"
 viewBox="0 0 126.000000 126.000000"
 preserveAspectRatio="xMidYMid meet">

<g transform="translate(0.000000,126.000000) scale(0.100000,-0.100000)"
fill="#000000" stroke="none">
<path style="fill:#4581eb;" d="M0 630 l0 -630 630 0 630 0 0 630 0 630 -630 0 -630 0 0 -630z m775
537 c291 -168 361 -211 377 -231 16 -19 18 -51 18 -311 0 -237 -3 -294 -14
-311 -8 -11 -122 -82 -253 -157 -178 -102 -247 -137 -272 -137 -26 0 -94 34
-270 135 -130 75 -244 145 -254 157 -15 18 -17 48 -17 312 0 260 2 293 18 313
9 12 123 83 252 157 178 103 243 136 270 136 25 0 67 -18 145 -63z"/>
<path style="fill:#4581eb;" d="M553 896 c-185 -58 -242 -285 -107 -421 l45 -45 -31 -45 c-17 -25
-28 -45 -24 -45 22 0 276 74 311 91 163 78 179 324 29 426 -77 53 -142 64
-223 39z m265 -178 c3 -16 -2 -23 -49 -58 -15 -11 -34 -35 -43 -55 -20 -41
-40 -44 -72 -10 -44 47 -107 40 -155 -18 -13 -16 -19 -18 -37 -8 -35 19 -21
61 20 61 28 0 78 29 78 44 0 25 30 27 53 2 51 -54 94 -51 126 9 9 17 20 36 25
43 11 18 50 11 54 -10z"/>
</g>
</svg>
