<?xml version="1.0" encoding="UTF-8" standalone="no"?>
<svg
   shape-rendering="geometricPrecision"
   text-rendering="geometricPrecision"
   image-rendering="optimizeQuality"
   fill-rule="evenodd"
   clip-rule="evenodd"
   viewBox="0 0 991 734.99998"
   version="1.1"
   id="svg"
   width="991"
   height="735"
   xmlns="http://www.w3.org/2000/svg"
   xmlns:svg="http://www.w3.org/2000/svg">
  <path
     d="M 410.86372,65.764262 C 253.59914,109.39187 151.24653,200.61501 125.79386,359.36994 c -6.92931,43.20179 2.74851,10.56818 32.03359,-11.3424 95.61686,-71.53845 283.61817,-46.22127 309.70958,117.21775 C 520.02953,754.57339 158.25327,804.6658 51.177878,644.86562 26.267171,607.72216 9.7761663,564.36552 3.833985,516.75064 -21.967082,309.66466 84.159888,125.22479 270.5934,38.588944 305.08515,22.562475 341.43503,10.02002 380.55278,0.82609109 400.1407,-3.141815 414.36708,7.5231423 420.92865,25.543243 c 5.55507,15.387733 7.45192,32.362629 -10.06493,40.221019 z m 518.30532,0 C 771.90445,109.39187 669.53247,200.61501 644.09917,359.36994 c -6.92931,43.20179 2.7485,10.56818 32.03358,-11.3424 95.61687,-71.53845 283.61819,-46.22127 309.69023,117.21775 52.51182,289.3281 -309.26439,339.42051 -416.33981,179.62033 -24.9107,-37.14346 -41.4017,-80.5001 -47.34389,-128.11498 C 496.33822,309.66466 602.44583,125.22479 788.89871,38.588944 823.39046,22.562475 859.721,10.02002 898.8581,0.82609109 918.44599,-3.141815 932.67239,7.5231423 939.23396,25.543243 c 5.55506,15.387733 7.45192,32.362629 -10.06492,40.221019 z"
     />
</svg>
