<svg
   version="1.1"
   id="svg"
   width="991"
   height="735"
   viewBox="0 0 991 735"
   xmlns="http://www.w3.org/2000/svg"
   xmlns:svg="http://www.w3.org/2000/svg">
   fill="currentColor"
  <path
     d="M 390.5,734.3104 C 376.53048,731.91218 363.9918,726.81017 352.79833,718.96953 347.51119,715.26607 23.354941,408.3525 12.877653,397.13008 -1.6187482,381.60271 -3.9359508,361.39017 6.9128733,345.10038 9.0849482,341.83896 12.397312,337.8363 14.273681,336.20559 16.150051,334.57487 93.176154,262.52702 185.4428,176.09923 277.70945,89.671452 355.29276,17.350702 357.85017,15.386456 376.4383,1.1096265 405.43116,-3.556778 432.38215,3.3905247 443.63377,6.2909176 460.81628,14.95595 467.83927,21.27133 c 4.43704,3.989981 8.75897,10.357753 10.57654,15.583071 1.83045,5.262371 2.06497,14.74784 0.50501,20.425741 -1.73492,6.314716 -10.05662,18.083873 -17.19035,24.311869 -4.63748,4.048682 -275.09536,263.696329 -294.99575,283.204719 l -2.70119,2.64799 146.78635,139.3861 c 80.73249,76.66236 149.36767,141.51463 152.52261,144.11617 6.50706,5.36566 12.86543,14.27428 15.2694,21.39372 2.42521,7.18237 1.52167,19.29451 -2.02028,27.0821 -3.49626,7.68713 -10.45997,15.19934 -19.05195,20.55256 -7.62705,4.75203 -25.51716,11.66219 -35.03966,13.53429 -8.48401,1.66793 -24.59966,2.0712 -32,0.80074 z m 510,-0.17906 c -13.83391,-2.18858 -29.35836,-8.94735 -40.02551,-17.4256 -7.90706,-6.28454 -334.50951,-316.61316 -339.22311,-322.32042 -6.49955,-7.86971 -9.40857,-15.10536 -10.01113,-24.90084 -0.79433,-12.91305 3.07612,-22.87612 12.37025,-31.84267 2.13923,-2.06383 79.81444,-74.81523 172.61158,-161.66979 C 797.38747,81.285111 867.54229,16.253145 871.43296,13.555402 879.14387,8.2087554 887.74315,4.5187175 898,2.1552195 c 10.70795,-2.46744647 29.19441,-2.45647012 40,0.02375 20.92506,4.8029551 41.52767,16.8809225 48.2195,28.2679565 9.26998,15.774078 4.38678,35.050006 -12.6524,49.944124 C 967.45665,85.732258 675,366.84653 675,367.37879 c 0,0.65471 295.24309,280.78074 300.56817,285.17846 10.46943,8.64618 16.11809,21.03069 15.12269,33.15604 -1.44158,17.56048 -12.18695,30.49829 -32.94543,39.66753 -19.77373,8.73426 -38.88372,11.65541 -57.24543,8.75052 z"
     />
</svg>
