<?xml version="1.0" encoding="UTF-8" standalone="no"?>
<svg
   viewBox="0 0 513 512"
   id="search"
   version="1.1"
   width="513"
   height="512"
   xmlns="http://www.w3.org/2000/svg"
   xmlns:svg="http://www.w3.org/2000/svg">
  <defs
     id="defs7" />
  <path
     d="m 416,208 c 0,45.9 -14.9,88.3 -40,122.7 l 126.6,126.7 c 12.5,12.5 12.5,32.8 0,45.3 -12.5,12.5 -32.8,12.5 -45.3,0 L 330.7,376 C 296.3,401.2 253.9,416 208,416 93.1,416 0,322.9 0,208 0,93.1 93.1,0 208,0 322.9,0 416,93.1 416,208 Z M 208,352 C 287.5,352 352,287.5 352,208 352,128.5 287.5,64 208,64 128.5,64 64,128.5 64,208 c 0,79.5 64.5,144 144,144 z"
     id="path2" />
</svg>
