<svg 
	viewBox="0 0 1024 1024" 
	id="icon-facebook"
	xmlns="http://www.w3.org/2000/svg">
  <path 
  	style="fill:#3A559F;" 
	d="m736 0h-448c-160 0-288 128-288 288v448c0 160 128 288 288 288h448c160 0 288-128 288-288v-448c0-160-128-288-288-288z" 
	stroke-width="32"
  />
  <path 
  	style="fill:#FFFFFF;" 
	d="m857.6 492.8c-6.4-6.4-16-12.8-25.6-12.8h-160v-121.6c0-3.2 3.2-6.4 6.4-6.4h121.6c19.2 0 32-12.8 32-32v-96c0-19.2-12.8-32-32-32h-128c-105.6 0-160 86.4-160 192v96h-128c-19.2 0-32 12.8-32 32v96c0 19.2 12.8 32 32 32h128v384h160v-384h96c12.8 0 25.6-6.4 28.8-19.2l64-96c6.4-9.6 3.2-22.4-3.2-32z" 
	stroke-width="32"
  />
</svg>
