<svg
   aria-hidden="true"
   viewBox="0 0 1024 1024"
   id="icon-github"
   xmlns="http://www.w3.org/2000/svg"
   xmlns:svg="http://www.w3.org/2000/svg">
  <path
     d="M 512.00003,0 C 794.88001,0 1024,234.91533 1024,524.95045 A 512.83196,525.80349 0 0 1 675.20002,1022.9972 c -25.6,5.2495 -35.19999,-11.1552 -35.19999,-24.93516 0,-17.71708 0.64,-74.14925 0.64,-144.36137 0,-49.21411 -16,-80.71114 -34.56,-97.11584 113.91999,-13.12376 233.59998,-57.74455 233.59998,-259.19428 0,-57.74455 -19.84,-104.3339 -52.47999,-141.08043 5.11999,-13.12376 23.03999,-66.93119 -5.12,-139.11187 0,0 -42.88,-14.43614 -140.79999,53.80742 -40.96,-11.81139 -84.48,-17.71708 -128,-17.71708 -43.51999,0 -87.03999,5.90569 -127.99999,17.71708 -97.91999,-67.58737 -140.79999,-53.80742 -140.79999,-53.80742 -28.16,72.18068 -10.24,125.98811 -5.12,139.11187 -32.63999,36.74653 -52.47999,83.99207 -52.47999,141.08043 0,200.79355 119.03999,246.07052 232.95998,259.19428 -14.72,13.12376 -28.16,36.09035 -32.64,70.21212 -29.44,13.77995 -103.03999,36.09035 -149.11999,-43.30841 -9.6,-15.74851 -38.39999,-54.46361 -78.71999,-53.80742 -42.88,0.65619 -17.28,24.93515 0.64,34.77797 21.76,12.46757 46.72,59.05692 52.47999,74.14925 10.24,29.52846 43.52,85.96064 172.15999,61.68168 0,43.9646 0.64,85.30445 0.64,97.77202 0,13.77996 -9.6,29.52846 -35.19999,24.93516 A 511.67996,524.62235 0 0 1 6.9405155e-5,524.95045 C 6.9405155e-5,234.91533 229.12005,0 512.00003,0 Z"
     style="stroke-width:64.8044" />
</svg>
