<svg xmlns="http://www.w3.org/2000/svg" style="display: none;">
    <symbol xmlns="http://www.w3.org/2000/svg" viewBox="0 0 40 40" id="accessible-assistance" fill="none">
        <path fill="currentColor" d="M0 0h40v40H0z"/>
        <path fill="#fff" d="M19.955 11.16a2.39 2.39 0 0 1 2.386-2.386 2.38 2.38 0 0 1 2.385 2.386 2.38 2.38 0 0 1-2.386 2.385 2.38 2.38 0 0 1-2.385-2.386M8.64 8.969a2.39 2.39 0 0 1 2.386-2.386 2.38 2.38 0 0 1 2.386 2.386 2.38 2.38 0 0 1-2.386 2.385 2.38 2.38 0 0 1-2.385-2.385m3.789 10.463a.97.97 0 0 1-.43-.43l-1.352-2.56-1.362 3.584c.062.071.123.163.184.245l3.686 5.764c.154.236.246.482.276.727l-.03-.133 1.208 5.232c.194.83-.215 1.617-.921 1.75-.707.134-1.434-.43-1.628-1.259l-1.219-5.21c-.02-.073-.04-.144-.04-.216l-2.878-4.075.267 3.46c.03.216.03.42 0 .625v-.05c0 .112-.02.235-.052.358l-1.423 5.17c-.225.819-.972 1.361-1.668 1.197-.697-.153-1.075-.952-.85-1.77l1.423-5.17c.02-.072.03-.134.061-.195l-1.003-6.44s-.01-.072 0-.113a1.83 1.83 0 0 1 .102-1.064l2.13-5.6c.43-1.127 1.771-1.72 3-1.342a2.28 2.28 0 0 1 1.392 1.188l2.355 4.371 3.542.369c.563.061.973.563.911 1.126v.123a1.04 1.04 0 0 1-1.136.911l-4.075-.43a1 1 0 0 1-.44-.153h.03z"/>
        <path fill="#fff" d="M19.955 18.828V16.76a2.386 2.386 0 0 1 2.375-2.386c1.31 0 2.375 1.075 2.386 2.386v1.617h4.821c.564 0 1.025.461 1.025 1.024v.143c0 .564-.461 1.024-1.024 1.024h-4.822v1.823h5.19c.39.02.748.256.912.634l2.467 5.55h1.74c.563 0 1.024.46 1.024 1.023v.03c0 .564-.46 1.025-1.024 1.025h-2.887c-.41 0-.768-.246-.931-.584l-.154-.338a8.03 8.03 0 0 1-6.92 3.962c-4.434 0-8.027-3.593-8.027-8.016a8 8 0 0 1 3.839-6.839z"/>
        <path fill="currentColor" d="M19.954 20.507a6.655 6.655 0 0 0 4.187 11.825c2.815 0 5.211-1.75 6.194-4.218L29.117 25.4h-6.153.03-1.351c-.942 0-1.71-.768-1.71-1.71v-3.184z"/>
    </symbol>
    <symbol xmlns="http://www.w3.org/2000/svg" viewBox="0 0 40 40" id="accessible" fill="none">
        <path fill="currentColor" d="M0 0h40v40H0z"/>
        <path fill="#fff" d="M13.969 9.203c0-1.434 1.166-2.6 2.6-2.6s2.6 1.166 2.6 2.6-1.166 2.6-2.6 2.6a2.6 2.6 0 0 1-2.6-2.6m2.59 3.188c1.61 0 2.476 1.27 2.476 2.3v1.786h4.767c.835 0 1.176.722 1.165 1.227 0 .537-.381 1.104-1.186 1.104h-4.746v1.888h5.21c.918 0 1.094.372 1.238.795l2.033 5.355h1.929c.722 0 1.217.515 1.217 1.31 0 .939-.577 1.083-1.227 1.083h-3.508c-.402 0-.743-.867-.743-.867s-2.084 3.88-6.933 3.9c-4.53.021-8.089-3.652-8.15-8.315-.052-4.065 3.517-6.79 4.013-6.892v-2.507c0-.671.887-2.177 2.424-2.177z"/>
        <path fill="currentColor" d="M14.207 18.89v3.52c0 .618.496 1.557 1.435 1.557h7.83l.97 2.528s-1.537 4.25-6.139 4.199c-4.374-.052-6.654-3.745-6.613-6.613.041-2.662 1.517-4.447 2.507-5.2z"/>
    </symbol>
    <symbol xmlns="http://www.w3.org/2000/svg" viewBox="0 0 40 40" id="bbq" fill="none">
        <path fill="currentColor" d="M0 0h40v40H0z"/>
        <path fill="#fff" d="M6.992 32.084v-5.24c.062-3.168 2.348-5.014 2.348-5.014s.092 2.656.963 3.825c.298.4 1.251 1.692 1.21 1.374s0-1.354.133-2.615c.308-2.779 1.61-3.435 1.61-3.435s.235 1.774.8 2.83c.584 1.067 1.557 2.215 1.557 2.215 0-.359.349-1.65 1.046-2.871 1.128-1.99 3.342-2.84 3.342-2.84s-.308 1.097-.297 1.825c.04 3.097 1.65 4.05 1.65 4.05.092-.266.472-1.528.953-2.256.913-1.394 2.758-1.989 2.758-1.989s-.697 1.62.676 3.168c.687.78 1.764 1.539 1.764 1.539s-.041-.944-.185-1.538c-.133-.585-.225-1.22.041-2.164.267-.954.636-1.128.636-1.128s0 1.405 2.122 3.076c.605.482 1.896 1.856 2.03 2.666s.184 1.446.184 1.446v3.117H6.993zm12.64-22.014c-.44 0-.564.112-.564.512v.882c0 .369-.164.44-.82.44H6.992v1.313h11.266c.605 0 .82.072.82.441v.882c0 .215-.02.461.564.461h4.295c.113 1.19.37 2.646 1.066 3.825.462.79 1.21 1.866 2.43 1.405 1.568-.605.933-1.723.933-1.723s-1.097-2.615-1.353-3.496h3.075c.256 0 .513-.052.513-.37 0-.348-.328-.42-.513-.42H26.9c-.03-.38-.062-.81-.062-1.261h3.26c.236 0 .513-.052.513-.4 0-.256-.277-.4-.513-.4h-3.24c.011-.318.042-.615.073-.882.02-.113.03-.236.05-.369h3.117c.185 0 .513-.072.513-.4s-.277-.44-.513-.44h-2.952c.174-.862.359-1.754.287-2.236-.061-.462-.4-1.118-1.117-1.118-.892 0-1.815.328-2.05 1.866-.072.462-.144.974-.206 1.508l-4.418-.01z"/>
        <path fill="currentColor" d="M23.824 12.96v.513c0 .216.03.462.041.749h-2.501c-.144 0-.257-.092-.257-.205v-.82c0-.144.093-.236.257-.236zm-2.441-.8c-.184 0-.256-.051-.256-.236v-.697c0-.236.092-.328.256-.328h2.573c-.04.44-.082.871-.102 1.271l-2.481-.01z"/>
    </symbol>
    <symbol xmlns="http://www.w3.org/2000/svg" viewBox="0 0 40 40" id="boat-launch" fill="none">
        <path fill="currentColor" d="M0 0h40v40H0z"/>
        <path fill="#fff" d="M23.445 8.58c3.235.409 4.638 2.364 4.638 2.364l4.269-1.32s.952 4.975-5.078 8.385l6.358-1.393v.932l-11.6 2.529s-.778-2.816-3.42-2.56c-3.081.38-3.112 3.225-3.112 3.225l-7.422.604-.748-2.887 17.784-6.562-1.659-3.318zM33.63 27.632s-.368.144-.88.144c-1.577 0-2.723-1.157-4.812-1.106-1.986.041-3.102 1.25-4.484 1.25-.88 0-2.775-1.485-4.996-1.434-1.945.05-2.826 1.433-4.536 1.433-1.249 0-3.378-1.617-5.549-1.577-1.945.041-2.037.461-2.037.461v1.761s1.065-.645 2.078-.645c1.577 0 4.024 1.577 5.6 1.577 1.71 0 3.246-1.434 4.669-1.434s3.327 1.434 4.945 1.393 3.01-1.208 4.484-1.208c1.157 0 2.222 1.023 4.577 1.116.747.03.931-.041.931-.041v-1.67z"/>
        <path fill="#fff" d="M9.993 24.766c1.372.46 2.918 1.239 4.023 1.239 1.71 0 3.246-1.434 4.669-1.434s3.327 1.434 4.945 1.393c1.617-.051 3.01-1.208 4.484-1.208 1.157 0 2.222 1.023 4.576 1.105.748.031.932-.04.932-.04v-6.082l-14.139 3a2.16 2.16 0 1 0-2.856-2.048c0 1.188.973 2.16 2.16 2.16h.195l-9 1.915z"/>
    </symbol>
    <symbol xmlns="http://www.w3.org/2000/svg" viewBox="0 0 40 40" id="buggy" fill="none">
        <path fill="currentColor" d="M0 0h40v40H0z"/>
        <path fill="#fff" d="M 20,15.406148 H 4.00625 c 0.1625,-4.63125 2.575,-8.6937497 6.18125,-11.1187496 0.83125,-0.55625 1.925,-0.26875 2.49375,0.5499999 z m 8,-2 c 0,-2.20625 1.79375,-4 4,-4 h 2 c 1.10625,0 2,0.89375 2,2 0,1.10625 -0.89375,2 -2,2 h -2 v 4 c 0,1.575 -0.3625,3.1375 -1.0625,4.59375 -0.7,1.45625 -1.7375,2.78125 -3.0375,3.89375 -1.3,1.1125 -2.84375,2 -4.54375,2.6 -1.7,0.6 -3.51875,0.9125 -5.35625,0.9125 -1.8375,0 -3.65625,-0.3125 -5.35625,-0.9125 -1.7,-0.6 -3.24375,-1.4875 -4.54375,-2.6 -1.3,-1.1125 -2.33125,-2.4375 -3.0375,-3.89375 C 4.35625,20.543648 4,18.981148 4,17.406148 h 14 10 z m -19,16 a 3,3 0 1 1 0,6 3,3 0 1 1 0,-6 z m 15,3 a 3,3 0 1 1 6,0 3,3 0 1 1 -6,0 z" style="stroke-width:0.0625"/>
    </symbol>
    <symbol viewBox="0 0 40 40" id="bunk-bed"
        xmlns="http://www.w3.org/2000/svg">
        <path fill="currentColor" d="M 40,0 H 0 v 40 h 40 z" />
        <path d="M 31.862,10.196 H 8.145 a 0.745,0.745 0 0 0 -0.743,0.753 v 2.91 h 25.203 v -2.91 a 0.745,0.745 0 0 0 -0.743,-0.753" style="display:inline;fill:#ffffff" />
        <path d="M11.878 5.668h-1.32v28.664h1.32zM17.652 5.668h-1.32v28.664h1.32z" style="fill:#ffffff" />
        <path d="M16.766 10.847h-5.578v1.242h5.578zM16.766 14.927h-5.578v1.242h5.578zM16.766 19.008h-5.578v1.241h5.578zM16.766 23.088h-5.578v1.242h5.578zM16.766 31.249h-5.578v1.241h5.578zM16.766 7.703h-5.578v1.241h5.578zM31.862 25.571H8.145a.745.745 0 0 0-.743.753v2.91h25.203v-2.91a.745.745 0 0 0-.743-.753" style="fill:#ffffff" />
        <path fill="#ffffff" d="M 6.704,5.668 H 4.436 v 28.664 h 2.268 z m 28.862,0 h -2.27 v 28.664 h 2.27 z" />
    </symbol>
    <symbol xmlns="http://www.w3.org/2000/svg" viewBox="0 0 40 40" id="cooking-shelter" fill="none">
        <path fill="currentColor" d="M0 0h40v40H0z"/>
        <path fill="#fff" d="M20.354 31.892v-.134l-.01-.43c.02-.675.43-.941.43-.941.512-.369 1.177-.533 1.177-.533s0 .215-.112.696c-.113.482-.338.645-.543.717a1.8 1.8 0 0 0-.42.184c-.133.072-.522.42-.522.42zm3.666-2.017s0 .215-.113.696-.338.645-.543.716a1.8 1.8 0 0 0-.42.185c-.133.071-.522.42-.522.42v-.134l-.01-.43c.02-.675.43-.941.43-.941.512-.369 1.178-.533 1.178-.533zM6.03 17.169 19.924 5.54l.072-.092.113.092 13.862 11.6v2.907L20.016 8.365 6.052 20.056l-.02-2.897zm13.945 11.907h-3.758a.8.8 0 0 1-.799-.799v-4.525h9.112v4.526a.8.8 0 0 1-.798.798zm-4.27 3.174h8.518v.85H21.46l-.911 1.453H19.37l-.91-1.453h-2.765v-.85zm4.27-11.58h-.645c-.062 0-.533-.01-.594.164a1.5 1.5 0 0 0-.062.43h2.6c0-.143-.02-.296-.06-.43-.062-.184-.533-.163-.595-.163zm0 2.673h-5.232c0-.051.02-.307.379-.338.358-.02.48-.256.48-.256.41-.676 1.946-1.106 2.294-1.208.113-.03.184-.092.215-.164v-.123c.01-.809.297-1.146 1.219-1.146h1.29c.92 0 1.207.337 1.218 1.146v.123c.04.072.102.123.215.164.348.102 1.884.532 2.293 1.208 0 0 .123.235.481.256.359.02.38.287.38.338zm-2.16 6.532s0 .215-.113.696-.338.645-.543.716c-.205.072-.287.103-.41.185-.133.071-.522.42-.522.42v-.134l-.01-.43c.02-.675.43-.941.43-.941.512-.369 1.178-.533 1.178-.533zm.47 2.017v-.134l-.01-.43c.02-.675.43-.941.43-.941.512-.369 1.188-.533 1.188-.533s0 .215-.113.696c-.113.482-.338.645-.543.717-.204.072-.286.102-.41.184-.132.072-.521.42-.521.42z"/>
    </symbol>
    <symbol xmlns="http://www.w3.org/2000/svg" viewBox="0 0 40 40" id="cooking" fill="none">
        <path fill="currentColor" d="M0 0h40v40H0z"/>
        <path fill="#fff" d="M31.123 22.36c0 .768-.625 1.392-1.393 1.392H10.38a1.377 1.377 0 0 1-1.392-1.372v.041-10.678h22.125v10.678-.061zm1.383-11.58c-.061-.736-.747-.736-1.3-.798-.553-.061-.379-.287-1.29-1.136-1.198-1.116-4.126-1.935-4.648-2.058s-.604-.174-.84-.522c0 0-.082-.133-.082-.952 0-1.106-.91-1.72-1.494-1.72h-5.703c-.594 0-1.505.614-1.505 1.72 0 .808-.123.982-.123.982-.246.297-.276.369-.798.492-.523.123-3.45.942-4.648 2.058-.901.84-.738 1.075-1.29 1.136-.553.062-1.24.062-1.3.799z"/>
        <path fill="currentColor" d="M18.08 4.576c-.86 0-1.372.236-1.3 1.516h6.317c.082-1.27-.44-1.516-1.3-1.516z"/>
        <path fill="#fff" d="M25.607 30.223c.993-1.106 1.74-1.096 2.303-1.362.799-.379 1.024-.86 1.27-2.068.215-1.044.245-1.136.245-1.136-.092.03-3.245.962-3.665 2.252-.42 1.28-.153 2.314-.153 2.314m-4.947 0c.994-1.106 1.74-1.096 2.304-1.362.799-.379 1.024-.86 1.27-2.068.214-1.044.245-1.136.245-1.136-.092.03-3.204.982-3.655 2.252-.46 1.27-.153 2.314-.153 2.314zm-4.811 0c.993-1.106 1.74-1.096 2.303-1.362.799-.379 1.024-.86 1.27-2.068.215-1.044.245-1.136.245-1.136-.092.03-3.225.91-3.665 2.252-.41 1.28-.153 2.314-.153 2.314m-4.844 0c.993-1.106 1.74-1.096 2.303-1.362.799-.379 1.024-.86 1.27-2.068.215-1.044.246-1.136.246-1.136-.093.03-3.236.92-3.666 2.252-.41 1.28-.153 2.314-.153 2.314m5.313 2.651 2.242 3.41h2.478l2.549-3.41h6.276v-1.74H9.766v1.74z"/>
    </symbol>
    <symbol xmlns="http://www.w3.org/2000/svg" viewBox="0 0 40 40" id="dump-station" fill="none">
        <path fill="currentColor" d="M0 0h40v40H0z"/>
        <path fill="#fff" fill-rule="evenodd" d="m16.771 28.216-.01-3.9 2.795 3.224v-4.156H15.85v11.303h10.125V23.384h-3.696v4.156l2.795-3.225-.01 3.901-4.147 4.638z" clip-rule="evenodd"/>
        <path fill="#fff" fill-rule="evenodd" d="m21.807 28.738 2.774-3.184v2.57l-3.665 4.054-3.675-4.054v-2.57l2.785 3.184v-8.446h-2.898a3.48 3.48 0 0 0-3.44-3 3.46 3.46 0 0 0-3.44 3H7.771S5.63 14.896 5.63 14.2s2.14-6.777 2.14-6.777h11.64s5.263-2.028 5.733-2.028h7.27c.204.461 1.679 3.993 1.679 3.993h-1.997l2.314 5.498v5.385h-2.621a3.48 3.48 0 0 0-3.44-2.99 3.48 3.48 0 0 0-3.44 2.99h-3.082v8.447z" clip-rule="evenodd"/>
        <path fill="currentColor" fill-rule="evenodd" d="M14.64 9.86v5.272H9.08V9.859zm9.04 0v5.272h-3.42V9.859zm3.533 5.272V9.859h3.819l1.924 5.037-.01 1.854h-2.232l-.665-1.618z" clip-rule="evenodd"/>
        <path fill="#fff" fill-rule="evenodd" d="M13.688 23.22a2.495 2.495 0 0 1-2.498-2.498 2.495 2.495 0 0 1 2.498-2.498 2.495 2.495 0 0 1 2.498 2.498 2.495 2.495 0 0 1-2.498 2.498m14.712 0a2.495 2.495 0 0 1-2.498-2.498 2.495 2.495 0 0 1 2.498-2.498 2.495 2.495 0 0 1 2.499 2.498A2.495 2.495 0 0 1 28.4 23.22" clip-rule="evenodd"/>
    </symbol>
    <symbol xmlns="http://www.w3.org/2000/svg" viewBox="0 0 40 40" id="fire-pit" fill="none">
        <path fill="currentColor" d="M0 40h40V0H0z"/>
        <path fill="#fff" d="M23.279 12.16c-.205-1.351-.84-2.467-1.259-3.726-.45-1.34-.614-2.661-.327-4.125-1.811 1.525-1.218 5.68-1.852 6.285-.318.307-.747-.614-.921-1.014-.256-.583-.931-1.627-.645-3.173-.43.4-.593.993-.716 1.556-.236 1.034.05 2.047.05 3.081 0 .194.38 2.2-.398 2.344-.164.03-1.77-1.249-1.709-4.76-.205.277-.44.86-.563 1.157-1.207 2.825.522 8.055.727 8.495.48 1.075.071 1.372-1.116.195-1.3-1.29-.788-1.628-1.504-2.385-.41-.44-1.484-.809-2.17-.532.727.532 1.495 1.832 1.413 2.64-.174 1.71 2.077 5.538 2.077 5.538l-5.239.798.399 2.211 6.508-.921-3.305 3.296 1.637 1.617 4.165-4.125.03 4.688h2.17l.03-4.985 4.493 4.514 1.8-1.78-3.345-3.368 6.733 1.3.48-2.211-4.747-.942s1.78-2.21 2.149-3.337c1.064-3.244-.573-2.907.583-5.547-.972.839-1.79 2.374-2.262 3.193-1.043 1.802-1.3.01-.961-.48 2.69-3.962-.799-5.784.276-9.663-1.013.88-1.504 2.22-1.494 3.51 0 .42.03 2.457-.062 3.102-.04.297-.194 1.3-.972.952-.777-.348.062-2.262-.122-3.43"/>
        <path fill="#fff" d="M20.025 37.349c-9.414 0-17.007-5.271-17.283-12.006v-.051h2.763v.03c.276 5.118 6.764 9.263 14.52 9.263 7.757 0 14.244-4.155 14.52-9.273v-.02h2.764v.061c-.277 6.725-7.87 11.996-17.284 11.996"/>
    </symbol>
    <symbol xmlns="http://www.w3.org/2000/svg" viewBox="0 0 40 40" id="heating" fill="none">
        <path fill="currentColor" d="M0 0h40v40H0z"/>
        <path fill="#fff" d="M12.729 33.99c0-.245.184-.45.399-.45H26.86c.225 0 .399.205.399.45v1.137c0 .245-.184.45-.4.45h-13.73c-.225 0-.4-.194-.4-.45zM24.22 18.03h1.362c.123-.37.44-.636.82-.636.48 0 .87.43.87.963s-.39.962-.87.962c-.37 0-.687-.256-.81-.614H24.22V32.72h-8.366V15.11h8.366v2.918m-8.366-4.442h2.478V4.423h.717v9.163h.983V4.423h1.71v9.163h2.478v.788h-8.366z"/>
        <path fill="currentColor" d="M16.65 24.684h6.76v-3.532c0-1.73-1.26-3.133-2.817-3.133h-1.126c-1.557 0-2.817 1.403-2.817 3.133zm6.77.901h-6.77v6.245h.615v-5.58h5.55l-.01 5.58h.614z"/>
        <path fill="#fff" d="M22.806 24.019h-5.55v-2.857c0-1.361.993-2.457 2.212-2.457h1.126c1.219 0 2.212 1.106 2.212 2.457z"/>
        <path fill="currentColor" d="M18.412 23.507h3.533c.164-.082.154-.686.082-.963-.061-.276.072-.594.072-.594-.256.175-.46.881-.625.994-.163.112-.184-.215 0-.482.185-.266.154-.89-.01-1.32-.174-.44-.061-.993-.061-.993-.277.133-.328.819-.328.962s.123.819-.102.983c-.226.174-.195-.246-.195-.246s.062-.952-.113-1.167c-.174-.225-.297-1.372-.297-1.372-.122.123-.266.911-.276 1.25-.01.337-.143.255-.143.255-.349-.256-.318-1.065-.318-1.065-.205.133-.205.963-.133 1.444s-.154.317-.154.317c-.338-.215-.338-1.208-.338-1.208-.491 1.075-.061 2.15-.03 2.324.04.164.245.43.061.45s-.369-.368-.553-.706c-.174-.338-.584-.235-.584-.235s.318.215.359.624c.03.41.153.768.153.768z"/>
    </symbol>
    <symbol xmlns="http://www.w3.org/2000/svg" viewBox="0 0 40 40" id="jetty" fill="none">
        <path fill="currentColor" d="M0 0h40v40H0z"/>
        <path fill="#fff" d="M4.023 31.083a9.3 9.3 0 0 1 4.945.809c2.396.931 4.433-1.086 6.85-1.086.87 0 1.801.144 2.59.543.245.102 2.15.89 3.399.89s3.153-.788 3.399-.89c.778-.4 1.72-.543 2.59-.543 2.416 0 4.454 2.027 6.85 1.085a9.5 9.5 0 0 1 1.371-.511v1.873c-.215.082-.43.174-.645.266 0 0-.553.236-1.341.369-2.877.46-3.829-1.3-6.235-1.3-.604 0-1.27.092-1.812.368 0 0-.625.277-1.423.533-.768.256-1.823.532-2.744.532-1.3 0-2.98-.543-4.167-1.075 0 0-.184-.092-.45-.174a4.8 4.8 0 0 0-1.362-.195c-2.754 0-4.146 2.417-7.576.942-1.177-.552-2.908-.89-4.218-.634v-1.802zm23.865-3.676v-3.931h-9.89v4.29c.133.05.277.112.4.174.245.102 2.15.89 3.399.89s3.153-.788 3.399-.89c.778-.4 1.72-.543 2.59-.543h.102zm-23.087.236v-4.157h-.819v-1.7H20.65v-5.344l.092-1.003H3.982v-1.7h13.77a.6.6 0 0 1 .062-.215l.522-1.945 2.355-1.607s.635-.44.921-.614c.297-.185 1.26-.256 1.884-.041.676.235.911.583.952.655.062.113 1.474 2.355 1.474 2.355l.83.542.573.42c.215.143.348.297.41.45h2.529v1.7h-.727v6.348h.808v1.7h-.808v4.238c1.7.522 3.296 1.484 5.088.778a9 9 0 0 1 1.372-.512v1.873c-.215.082-.43.164-.645.267 0 0-.553.235-1.341.368-2.877.46-3.83-1.3-6.235-1.3-.604 0-1.27.092-1.812.358 0 0-.625.277-1.424.543-.767.246-1.822.532-2.743.532-1.3 0-2.98-.542-4.167-1.075 0 0-.185-.092-.45-.174a4.8 4.8 0 0 0-1.362-.194c-2.754 0-4.147 2.416-7.577.931-1.177-.553-2.907-.88-4.218-.634v-1.802c.195-.02.461-.041.778-.052zm11.549-.215v-3.952H6.46v4.27a9.3 9.3 0 0 1 2.508.747c2.396.941 4.433-1.086 6.85-1.086.174 0 .348 0 .532.02m11.538-6.358v-5.631h-4.29l-.071.768 1.31 5.58h3.051zm-4.29.716-1.269-5.19c-.041-.092-.184-.184-.307-.02-.133.48-.113 3.409-.082 5.22h1.659zm-2.682-8.047.256-2.63-1.822 1.238-.369 1.393zm4.966 0-.748-.511-1.167-1.843-.215 2.355zm-3.625-6.316c0-.799.645-1.434 1.434-1.434s1.433.645 1.433 1.434-.645 1.433-1.433 1.433a1.44 1.44 0 0 1-1.434-1.433"/>
    </symbol>
    <symbol xmlns="http://www.w3.org/2000/svg" viewBox="0 0 40 40" id="lighting" fill="none">
        <path fill="currentColor" d="M0 0h40v40H0z"/>
        <path fill="#fff" d="M17.83 12.51a.86.86 0 0 1 .665-.327h1.065v-.675c0-.236.195-.42.43-.42h.113c.235 0 .42.184.42.42v.675h1.054c.277 0 .512.123.666.328 1.393.02 2.509.993 2.509 2.201 0 .143-.01.287-.041.43h-9.35a2 2 0 0 1-.04-.43c0-1.208 1.115-2.18 2.508-2.201m-3.595-1.822a.433.433 0 0 1-.604 0l-1.28-1.28a.43.43 0 0 1 0-.604l.092-.092a.433.433 0 0 1 .604 0l1.28 1.28a.43.43 0 0 1 0 .603zm-3.584 7.33a.426.426 0 0 1-.522.297l-1.752-.471a.426.426 0 0 1-.297-.522l.031-.123a.426.426 0 0 1 .522-.297l1.752.471a.426.426 0 0 1 .297.522zm1.136 7.331a.426.426 0 0 1-.297.522l-1.751.47a.426.426 0 0 1-.522-.296l-.031-.123a.426.426 0 0 1 .297-.522l1.751-.471a.426.426 0 0 1 .522.297zm13.632 4.146-.738.727a.5.5 0 0 1-.276.143v2.723c0 .246-.256.45-.574.461h-7.65c-.317-.01-.573-.215-.573-.46v-2.714a.53.53 0 0 1-.307-.143l-.727-.727a.51.51 0 0 1-.02-.696l-1.598-11.364a.44.44 0 0 1 .04-.256.43.43 0 0 1 .4-.246h1.106c.01-.46.39-.82.85-.82h9.309c.46 0 .84.37.85.82h1.106c.184 0 .338.102.4.246a.5.5 0 0 1 .04.256L25.46 28.83a.493.493 0 0 1-.041.676z"/>
        <path fill="currentColor" d="m23.461 28.83.646-.645a.5.5 0 0 1 .634-.061l1.465-10.443h-.717a.866.866 0 0 1-.84.717h-.686v6.286c0 .368-.379.676-.85.676h-.502v3.47zm-3.42-3.47h-1.935v3.46h3.789v-3.46H20.04M20 19.37c-.533.082-.79.45-.79.697v3.941h1.578v-3.941c0-.256-.256-.615-.788-.697"/>
        <path fill="currentColor" d="M20 18.388h-2.592v5.61h1.157v-3.983s0-.082.01-.123c.093-.604.646-1.075 1.373-1.177h.082c.727.102 1.28.584 1.372 1.177 0 .041.01.082.01.123v3.983h1.158v-5.61h-2.581zM16.52 28.83h.86v-3.47h-.502c-.471 0-.85-.308-.85-.676v-6.286h-.686a.86.86 0 0 1-.84-.717h-.717l1.465 10.433a.5.5 0 0 1 .614.071l.645.645z"/>
        <path fill="#fff" d="m25.764 10.689-.092-.093a.433.433 0 0 1 0-.604l1.28-1.28a.433.433 0 0 1 .604 0l.082.093a.43.43 0 0 1 0 .604l-1.28 1.28a.433.433 0 0 1-.604 0zm3.586 7.33-.03-.123a.426.426 0 0 1 .297-.522l1.75-.471a.426.426 0 0 1 .523.297l.03.123a.426.426 0 0 1-.296.522l-1.751.47a.426.426 0 0 1-.523-.296m-1.138 7.331.031-.123a.426.426 0 0 1 .522-.297l1.751.47a.426.426 0 0 1 .297.523l-.03.123a.426.426 0 0 1-.523.297l-1.75-.471a.426.426 0 0 1-.298-.523M19.559 6.86c0-.236.194-.42.43-.42h.112c.236 0 .42.194.42.42v1.812c0 .235-.184.43-.42.43h-.112a.433.433 0 0 1-.43-.43z"/>
    </symbol>
    <symbol xmlns="http://www.w3.org/2000/svg" viewBox="0 0 40 40" id="mattresses" fill="none">
        <path fill="currentColor" d="M0 0h40v40H0z"/>
        <path fill="#fff" d="M23.088 24.09a.67.67 0 0 1 .573-.645L35.19 21.94a.494.494 0 0 1 .574.502v1.218a.67.67 0 0 1-.574.645L23.661 25.81a.494.494 0 0 1-.573-.502zm9.767-2.57-2.867-1.218-8.743-.143 7.402-.43-7.843-3.358-8.23 1.597 7.248-2.017-1.69-.727-.03-.02a.6.6 0 0 0-.287-.052L7.3 16.504l-1.77-.758 12.275-1.587c.112-.01.215 0 .297.041l16.534 7.075-1.792.235z"/>
        <path fill="#fff" d="M4.238 16.524c0-.317.256-.46.574-.327l7.78 3.327 9.522-.666-8.303 1.188 7.77 3.327c.318.133.574.502.574.82v1.218c0 .317-.256.46-.574.327l-16.77-7.177c-.317-.133-.573-.501-.573-.819z"/>
    </symbol>
    <symbol xmlns="http://www.w3.org/2000/svg" viewBox="0 0 40 40" id="phone" fill="none">
        <path fill="currentColor" d="M0 0h40v40H0z"/>
        <path fill="#fff" d="M21.664 13.678c.43.113.799.164 1.218.225.758.113.983-.061 1.106-.522.113-.46 1.454-5.395 1.567-5.856.112-.46.286-.758-.584-1.28-.256-.153-.666-.297-1.147-.43l-2.16 7.853z"/>
        <path fill="#fff" d="M23.65 33.673c-1.116.266-2.939.47-3.84.184-1.177-.368-1.976-.635-3.542-5.283-1.566-4.638-1.915-7.136-1.915-9.337s.349-4.003 1.332-6.665c.982-2.672 1.678-4.003 2.15-5.109.46-1.095 1.392-1.965 2.549-2.088.706-.072 1.935.072 2.979.317l-2.109 7.873c-.676-.194-.962-.399-1.157-.573-.727-.635-1.28-.348-1.28.737v12.44c0 1.085.553 1.392 1.28.757.215-.184.532-.41 1.362-.624z"/>
        <path fill="#fff" d="M24.142 33.56s.092-.03.123-.051c.87-.348 1.392-1.044 1.33-1.628-.04-.45-1.064-3.767-1.494-5.16-.102-.338-.225-.542-.655-.593-.502-.072-1.147 0-1.536.071l2.222 7.372z"/>
    </symbol>
    <symbol viewBox="40 40 40 40" id="powered-site" fill="none"
        xmlns="http://www.w3.org/2000/svg">
        <path fill="currentColor" d="M 40,40 H 80 V 80 H 40 Z" />
        <path fill="#ffffff" d="m 70.495296,70.272998 a 3.118401,3.118401 0 0 1 -3.120214,-3.120213 c 0,-1.727813 1.392403,-3.120215 3.120214,-3.120215 1.727812,0 3.120214,1.392402 3.120214,3.118402 0,1.729624 -1.392402,3.122026 -3.118402,3.122026 m -18.411257,0 a 3.118401,3.118401 0 0 1 -3.122026,-3.120213 c 0,-1.727813 1.394215,-3.120215 3.122026,-3.120215 1.727813,0 3.120216,1.392402 3.120216,3.118402 0,1.729624 -1.392403,3.122026 -3.120216,3.122026" style="stroke-width:1.81303" />
        <path fill="#ffffff" fill-rule="evenodd" d="m 74.730519,66.614317 a 4.3512573,4.3512573 0 0 0 -4.309556,-3.73483 4.3693876,4.3693876 0 0 0 -4.309559,3.73483 H 56.39541 a 4.3693876,4.3693876 0 0 0 -4.309559,-3.73483 4.3693876,4.3693876 0 0 0 -4.309557,3.752959 h -3.100271 c 0,0 -2.676023,-6.744449 -2.676023,-7.614699 0,-0.873879 2.674211,-8.472261 2.674211,-8.472261 h 14.56402 c 0,0 6.593968,-2.545486 7.170509,-2.545486 h 9.10138 c 0.261076,0.576541 2.099481,4.998507 2.099481,4.998507 h -2.507412 l 2.897213,6.88949 v 6.744449 H 74.71239 Z m -2.153871,-6.465244 0.83399,2.025147 h 2.786618 v -2.320671 l -2.395004,-6.316575 h -4.793636 v 6.593968 h 3.548088 z M 60.313354,53.556918 v 6.593968 h 4.273297 v -6.593968 z m -13.987479,0 v 6.593968 h 6.965637 v -6.593968 z" clip-rule="evenodd" style="stroke-width:1.81303" />
    </symbol>
    <symbol xmlns="http://www.w3.org/2000/svg" viewBox="0 0 40 40" id="shop" fill="none">
        <path fill="currentColor" d="M0 0h40v40H0z"/>
        <path fill="#fff" d="M35.884 32.424H11.405V21.449H7.208v10.975H4.105V14.937h7.33v-7.35h17.068v7.35h7.381z"/>
        <path fill="currentColor" d="M14.62 21.449v7.658h18.049v-7.658zm9.47-11.498v2.816h.624v-1.003h.645c.174 0 .328-.02.45-.072a.8.8 0 0 0 .298-.205.6.6 0 0 0 .163-.287 1 1 0 0 0 .052-.337q-.002-.17-.052-.338a.73.73 0 0 0-.46-.482 1.2 1.2 0 0 0-.45-.081h-1.27zm-3.777 1.424c0 .204.03.399.092.573a1.32 1.32 0 0 0 .706.768c.174.071.369.112.584.112q.323-.002.583-.112a1.1 1.1 0 0 0 .43-.307c.123-.134.205-.287.277-.461.061-.174.092-.369.092-.574s-.031-.409-.092-.583a1.3 1.3 0 0 0-.277-.471 1.2 1.2 0 0 0-.43-.317 1.35 1.35 0 0 0-.583-.113q-.323.002-.584.113a1.2 1.2 0 0 0-.43.317 1.3 1.3 0 0 0-.276.471 1.8 1.8 0 0 0-.093.583m-3.39-1.423v2.816h.624v-1.208h1.137v1.208h.614V9.95h-.614v1.086h-1.137V9.95zM14.2 11.835h-.604c0 .174.03.318.092.45a.85.85 0 0 0 .266.308c.113.082.246.143.39.174.142.04.296.061.45.061.194 0 .358-.02.501-.071q.215-.062.369-.185a.76.76 0 0 0 .225-.286.8.8 0 0 0 .072-.359.67.67 0 0 0-.103-.389.8.8 0 0 0-.235-.245 1.1 1.1 0 0 0-.277-.133 2 2 0 0 0-.215-.062l-.43-.113a2 2 0 0 1-.256-.092.3.3 0 0 1-.122-.092.3.3 0 0 1-.031-.133.25.25 0 0 1 .04-.153c.021-.041.062-.072.093-.103.04-.03.092-.04.133-.051a1 1 0 0 1 .154-.02c.071 0 .143 0 .204.02.062.01.123.03.174.072.052.03.093.071.123.133a.4.4 0 0 1 .052.215h.603a.84.84 0 0 0-.337-.697 1 1 0 0 0-.359-.163 2 2 0 0 0-.42-.051c-.122 0-.255.02-.378.05a.8.8 0 0 0-.338.165.8.8 0 0 0-.246.266.7.7 0 0 0-.092.378.65.65 0 0 0 .266.553c.082.062.164.113.266.154.103.03.205.072.308.092.102.03.204.051.297.082.102.02.194.051.266.082q.123.046.184.123c.051.04.072.112.072.184s-.02.133-.052.174a.3.3 0 0 1-.133.102.6.6 0 0 1-.184.052c-.061 0-.123.01-.174.01-.082 0-.154 0-.236-.03a.6.6 0 0 1-.194-.093.4.4 0 0 1-.133-.164.6.6 0 0 1-.051-.235z"/>
        <path fill="#fff" d="M20.936 11.375c0-.123.01-.246.04-.359.031-.113.072-.215.134-.307a.7.7 0 0 1 .235-.215.8.8 0 0 1 .706 0 .6.6 0 0 1 .236.215.8.8 0 0 1 .123.307c.03.113.04.236.04.358 0 .123-.01.236-.04.348a.9.9 0 0 1-.123.298.7.7 0 0 1-.235.214.8.8 0 0 1-.359.082.7.7 0 0 1-.348-.082.8.8 0 0 1-.235-.214 1 1 0 0 1-.133-.297 1.3 1.3 0 0 1-.041-.349m3.779-.092v-.84h.481c.072 0 .133 0 .205.011.061.01.123.03.174.061q.076.046.123.123c.03.062.04.123.04.215s-.01.164-.04.215a.4.4 0 0 1-.123.133.5.5 0 0 1-.174.062c-.062 0-.133.02-.205.02z"/>
    </symbol>
    <symbol xmlns="http://www.w3.org/2000/svg" viewBox="0 0 40 40" id="shower-cold" fill="none">
        <path fill="currentColor" d="M0 0h40v40H0z"/>
        <path fill="#fff" d="M28.728 17.302c1.648-.215 2.959.922 2.98 2.54.02 1.443-1.086 2.467-2.202 2.6-1.669.205-2.877-.942-3.01-2.294-.123-1.228.491-2.088 1.188-2.508a2.6 2.6 0 0 1 1.034-.348zm-7.433 2.96c.655.593 1.208 1.279 1.853 1.883-.072.164-.215.246-.297.4-.645-.595-1.187-1.28-1.812-1.885.051-.174.215-.225.266-.399zm-3.931 3.07c-.83-1.248-1.7-2.436-2.55-3.665.052-.174.226-.215.297-.368.615.809 1.567 2.211 2.283 3.235.093.133.328.42.328.43 0 .154-.287.297-.358.369m3.501-3.634c-.051.174-.205.235-.266.4-1.055-1.076-2.15-2.1-3.143-3.236.092-.092.184-.194.266-.297 1.106.983 2.089 2.11 3.143 3.143zm-6.153-.993c-.062.164-.205.256-.297.4-.911-1.23-1.76-2.52-2.672-3.738.102-.123.205-.235.297-.358.962 1.157 1.771 2.488 2.672 3.706zm9.327-2.703c-.082.143-.164.297-.328.358-1.198-.89-2.375-1.781-3.604-2.641.082-.133.205-.236.297-.358 1.25.85 2.406 1.77 3.635 2.641m-6.778.062c-.051.153-.194.225-.266.368-1.095-1.024-2.058-2.17-3.102-3.245.04-.185.184-.256.266-.4 1.065 1.065 2.068 2.181 3.102 3.277m-5.59-1.618c-.112.113-.194.276-.358.328-.85-1.26-1.72-2.488-2.61-3.707.04-.174.225-.215.296-.368.942 1.187 1.802 2.467 2.672 3.737zm8.14-1.526c-.062.164-.205.236-.297.369-1.25-.819-2.417-1.73-3.635-2.58.092-.123.205-.236.328-.328 1.228.82 2.385 1.71 3.604 2.54m-6.184-.685c-.051.153-.185.235-.267.358-.696-.645-1.545-1.546-2.313-2.375-.144-.154-.748-.635-.758-.799 0-.143.297-.266.297-.358 1.034 1.034 2.037 2.109 3.04 3.174m1.945-2.253c-.061.041-.164.379-.297.4-.092.01-.799-.574-.921-.666-.891-.655-1.905-1.433-2.703-1.986.092-.123.204-.236.297-.369 1.259.82 2.385 1.782 3.634 2.61zM5.528 5.13c.236.123.758.236 1.26.4.379.122.87.399 1.187.399.287 0 .584-.195.891-.205.993-.01 1.7.471 2.252 1.157-1.085 1.085-2.129 2.201-3.276 3.245-.706-.47-1.228-1.412-.962-2.641-.41-.225-.911-.369-1.423-.491.04-.594-.092-1.362.071-1.853zM18.152 23.6c.952 1.249 1.802 2.6 2.744 3.87a.9.9 0 0 1-.338.358c-.901-1.29-1.792-2.58-2.703-3.86.051-.174.215-.215.297-.368m16.575 2.488v8.784H32.69v-5.836c0-.624.123-1.495-.471-1.474-.543.02-.44.85-.44 1.474v5.836c-1.771-.02-3.614.04-5.334-.03v-5.806c0-.594.143-1.505-.471-1.474-.533.02-.41.87-.41 1.505v5.805h-2.037v-6.276c0-1.044-.102-2.222.123-3.01.225-.799.716-1.403 1.413-1.761.686-.348 1.679-.348 2.795-.348h3.163c2.283 0 3.368.686 3.706 2.6zM15.203 27.49H12.92c-.153-1.065-1.177-1.884-2.344-1.884-2.12 0-2.918 1.802-2.918 3.686s.799 3.594 2.918 3.594c1.443 0 2.262-.993 2.436-2.406h2.294c-.246 2.682-2.089 4.392-4.73 4.392-3.328 0-5.283-2.488-5.283-5.59s1.955-5.672 5.283-5.672c2.365 0 4.351 1.382 4.638 3.87z"/>
    </symbol>
    <symbol xmlns="http://www.w3.org/2000/svg" viewBox="0 0 40 40" id="shower-hot" fill="none">
        <path fill="currentColor" d="M0 0h40v40H0z"/>
        <path fill="#fff" d="M12.348 23.558h2.734V34.87h-2.734v-4.75H8.13v4.75H5.396V23.558H8.13v4.3h4.218zm22.38 2.498v8.774h-2.047v-5.826c0-.614.123-1.494-.471-1.474-.543.02-.44.85-.44 1.474v5.826c-1.782-.02-3.645.04-5.365-.03v-5.796c0-.593.143-1.494-.471-1.474-.532.02-.41.87-.41 1.505v5.795h-2.047v-6.266c0-1.044-.103-2.221.123-3.01.235-.798.727-1.402 1.423-1.75.686-.349 1.689-.349 2.805-.349h3.184c2.304 0 3.389.686 3.727 2.6zm-6.03-8.774c1.659-.205 2.98.921 3 2.539.02 1.443-1.096 2.467-2.212 2.6-1.678.205-2.897-.942-3.03-2.283-.123-1.228.502-2.088 1.198-2.508a2.65 2.65 0 0 1 1.044-.348m-7.484 2.959c.655.593 1.208 1.28 1.864 1.883-.072.154-.215.246-.297.4-.645-.594-1.198-1.28-1.833-1.884.051-.174.215-.225.266-.4m-3.952 3.071c-.829-1.239-1.71-2.437-2.56-3.665.052-.174.226-.215.298-.358.614.808 1.576 2.2 2.293 3.235.092.122.328.42.328.43 0 .153-.287.297-.369.358zm3.522-3.635c-.051.175-.204.236-.266.4-1.065-1.075-2.16-2.099-3.163-3.235.092-.093.184-.195.266-.297 1.116.982 2.099 2.098 3.153 3.132zm-6.184-.993c-.061.164-.215.256-.296.4-.912-1.229-1.772-2.509-2.693-3.727.102-.123.205-.235.297-.358.973 1.157 1.771 2.488 2.692 3.696zm9.379-2.702c-.093.143-.164.297-.328.358-1.208-.88-2.396-1.781-3.624-2.642.081-.133.204-.235.296-.358 1.25.85 2.427 1.771 3.656 2.642m-6.819.061c-.051.154-.195.225-.266.358-1.106-1.013-2.079-2.17-3.123-3.235.041-.184.184-.266.266-.4 1.075 1.066 2.089 2.182 3.123 3.267zm-5.61-1.618c-.123.113-.195.267-.37.328-.849-1.26-1.73-2.488-2.62-3.696.051-.174.225-.215.297-.358.952 1.187 1.812 2.467 2.693 3.726m8.17-1.515c-.062.164-.205.236-.297.358-1.26-.819-2.427-1.73-3.655-2.57a1.7 1.7 0 0 1 .327-.327c1.239.82 2.406 1.71 3.625 2.54m-6.215-.686c-.051.154-.184.236-.266.359-.696-.645-1.556-1.546-2.324-2.376-.144-.153-.758-.634-.768-.788 0-.143.297-.266.297-.369 1.044 1.034 2.047 2.11 3.061 3.174m1.966-2.252c-.072.04-.174.379-.297.4-.092.01-.809-.574-.932-.666-.89-.656-1.914-1.434-2.723-1.976.102-.123.205-.236.297-.359 1.27.82 2.395 1.782 3.655 2.611zM5.356 5.119c.235.123.757.236 1.259.4.379.122.88.399 1.198.399.286 0 .583-.195.9-.195 1.004-.02 1.7.471 2.263 1.157-1.085 1.085-2.15 2.201-3.286 3.235-.707-.47-1.229-1.413-.963-2.641-.41-.225-.91-.369-1.433-.492.041-.593-.092-1.361.062-1.842zm12.705 18.46c.952 1.248 1.812 2.6 2.764 3.859-.092.143-.184.276-.338.358-.9-1.29-1.812-2.58-2.723-3.86.051-.174.225-.214.297-.358"/>
    </symbol>
    <symbol xmlns="http://www.w3.org/2000/svg" viewBox="0 0 40 40" id="toilets-flush" fill="none">
        <path fill="currentColor" d="M0 0h40v40H0z"/>
        <path fill="#fff" d="M19.857 4.234h1.725V23.8h-1.725zm5.305 1.683c0-.888.714-1.612 1.602-1.612s1.612.724 1.612 1.612c0 .887-.724 1.612-1.612 1.612a1.607 1.607 0 0 1-1.602-1.612m-1.45 3.05a2.2 2.2 0 0 0-.398 1.05v5.377c0 .347.286.632.633.632a.636.636 0 0 0 .633-.632v-4.427c0-.153.122-.276.265-.276s.276.123.276.276v12.241c0 .347.326.613.632.613.388 0 .694-.296.694-.633v-4.223.04-2.876c0-.154.123-.276.276-.276h.071c.153 0 .276.123.276.276v2.876-.04 4.213c.01.367.316.642.714.642.326 0 .622-.316.622-.622h.01V10.967c0-.153.123-.276.276-.276s.276.123.276.276v4.427a.63.63 0 0 0 .632.632.63.63 0 0 0 .633-.632V9.936s-.072-.5-.296-.836c0 0-.54-.939-1.663-.939h-3.01a1.93 1.93 0 0 0-1.582.816zm-11.089-3.04a1.607 1.607 0 1 1 1.612 1.612 1.615 1.615 0 0 1-1.612-1.612m3.274 2.153c.653 0 .837.224 1.061.632.245.46.633 2.122.633 2.122l.97 3.744.07.265c.103.367-.224.735-.469.786-.377.06-.663-.123-.755-.388l-1.112-4.336c-.04-.224-.133-.275-.316-.275-.123 0-.306.102-.276.347v.02l1.765 6.998h-1.673v5.203a.627.627 0 0 1-.633.622.636.636 0 0 1-.632-.632v-5.193h-.643v5.193a.636.636 0 0 1-.633.632c-.347 0-.622-.285-.643-.632v-5.193h-1.704l1.755-6.998v-.071c.01-.123-.102-.306-.275-.306-.255 0-.306.163-.337.316l-1.02 4.09c-.123.541-.48.694-.837.613-.408-.102-.52-.46-.429-.847l.97-3.764s.47-1.694.857-2.306c.337-.53.388-.642 1.163-.632h3.133zM8.92 29.227v1.347H5.398v1.683H8.45v1.245H5.399v3.01H3.797v-7.275h5.112zm2.53 0v5.927H15v1.347H9.857v-7.274h1.603zm9.785 6.723c-.53.48-1.285.724-2.285.724-2.062 0-3.102-.979-3.102-2.928v-4.519h1.602v4.52c0 .49.091.846.265 1.091.235.326.653.49 1.235.49.581 0 .949-.133 1.183-.388.215-.235.327-.632.327-1.194v-4.519h1.602v4.52q0 1.453-.827 2.203m3.796-.826c.286.204.663.306 1.123.306.948 0 1.418-.306 1.418-.908 0-.337-.225-.602-.674-.786-.091-.04-.581-.173-1.49-.418-.673-.173-1.173-.388-1.49-.633-.458-.346-.683-.826-.683-1.438 0-.694.296-1.255.878-1.663.51-.357 1.122-.54 1.847-.54.836 0 1.51.183 2.03.54.592.408.888 1.02.888 1.806h-1.551q-.06-1.102-1.439-1.102-.443 0-.735.184c-.244.153-.367.357-.367.642s.133.46.408.582c.194.092.786.265 1.766.52q.857.214 1.285.49c.582.388.878.928.878 1.632s-.255 1.245-.765 1.673c-.541.439-1.296.663-2.266.663-.877 0-1.602-.204-2.163-.622-.633-.47-.939-1.122-.939-1.969h1.551q0 .674.49 1.04m6.624-5.896v2.795h2.949v-2.795h1.602v7.274h-1.602v-3.142h-2.95V36.5h-1.601v-7.274z"/>
    </symbol>
    <symbol xmlns="http://www.w3.org/2000/svg" viewBox="0 0 40 40" id="toilets-non-flush" fill="none">
        <path fill="currentColor" d="M0 0h40v40H0z"/>
        <path fill="#fff" d="M19.76 4.228h2.774v31.493H19.76zm8.539 2.703a2.593 2.593 0 0 1 2.59-2.59 2.587 2.587 0 0 1 2.59 2.59 2.587 2.587 0 0 1-2.59 2.59 2.587 2.587 0 0 1-2.59-2.59m-2.334 4.925c-.573.768-.635 1.689-.635 1.689v8.651-.01c0 .563.46 1.024 1.024 1.024.563 0 1.024-.461 1.024-1.024V15.06c0-.246.194-.44.44-.44s.44.194.44.44v19.708c0 .553.522.973 1.024.973.614 0 1.116-.471 1.116-1.024V27.93v.072-4.628c0-.245.194-.44.44-.44h.113c.245 0 .44.195.44.44v4.628-.072 6.778c.02.594.512 1.034 1.157 1.034.522 0 1.003-.512 1.003-.993h.02V15.05c0-.246.205-.44.451-.44s.44.194.44.44v7.126c0 .563.45 1.023 1.014 1.023.563 0 1.014-.46 1.014-1.023V13.39s-.113-.809-.471-1.34c0 0-.87-1.506-2.673-1.506h-4.832c-1.72.01-2.539 1.32-2.539 1.32zM8.12 6.962a2.593 2.593 0 0 1 2.59-2.59 2.587 2.587 0 0 1 2.59 2.59 2.587 2.587 0 0 1-2.59 2.59 2.587 2.587 0 0 1-2.59-2.59m5.283 3.45c1.044 0 1.34.358 1.7 1.024.399.737 1.023 3.42 1.023 3.42l1.566 6.03.113.43c.164.593-.358 1.187-.758 1.249-.604.102-1.064-.205-1.208-.615l-1.802-6.982c-.071-.358-.215-.44-.512-.44-.204 0-.48.164-.44.553v.04l2.836 11.262H13.23v8.375c0 .553-.45 1.003-1.014 1.003-.563 0-1.024-.46-1.024-1.023v-8.355h-1.034v8.355c0 .563-.45 1.023-1.013 1.023s-1.014-.46-1.024-1.023v-8.355H5.376l2.826-11.261v-.113c.02-.205-.164-.491-.43-.491-.41 0-.502.266-.543.511l-1.648 6.584c-.205.87-.768 1.126-1.341.972-.645-.174-.84-.737-.686-1.351L5.1 15.173s.757-2.713 1.382-3.717c.532-.85.614-1.034 1.873-1.024h5.037z"/>
    </symbol>
    <symbol viewBox="40 40 40 40" id="unpowered-site" fill="none"
        xmlns="http://www.w3.org/2000/svg">
        <path fill="currentColor" d="M 40,40 H 80 V 80 H 40 Z" style="stroke-width:1" />
        <path fill="#ffffff" d="M 51.298666,50 42,70 H 57.250076 L 66.546551,50 Z M 66.79206,70 V 50 L 78,70 Z" style="stroke-width:2.40956" />
    </symbol>
    <symbol xmlns="http://www.w3.org/2000/svg" viewBox="0 0 40 40" id="water-stream" fill="none">
        <path fill="currentColor" d="M0 0h40v40H0z"/>
        <path fill="#fff" d="M22.678 16.524s2.293 3.317 0 3.307c-2.294 0 0-3.307 0-3.307m-6.114 3.338s2.294 3.317 0 3.307c-2.293 0 0-3.307 0-3.307M5.139 31.625c.399.103.798.103 1.198.103 1.689 0 3.143-1.229 4.822-1.229 1.76 0 3.45 1.393 4.955 1.393 1.669 0 3.542-1.567 5.457-1.567 1.914 0 3.48 1.567 5.119 1.567 1.31 0 3.542-1.7 6.02-1.7.727 0 1.464.235 2.16.43v1.996c-.737-.297-1.413-.634-2.232-.634-2.324 0-4.116 1.7-6.511 1.7-1.567 0-2.99-1.567-4.556-1.567-1.864 0-3.512 1.566-5.416 1.566-1.802 0-3.246-1.392-4.986-1.392s-3.43 1.228-5.385 1.228c-.205 0-.43-.071-.635-.102v-1.792zM24.151 9.808l-1.597-.164-1.597-.164a1.4 1.4 0 0 1-1.126-.829 1.3 1.3 0 0 1 0-1.054c.133-.328.389-.604.737-.758.113-.051.225-.082.348-.092a1 1 0 0 1 .348 0l2.447.235 2.447.236.072.02 4.126 1.045 2.467-1.065 2.017-.86v6.071l-4.577 1.996-4.658 2.038-3.082-.43-3.081-.43-1.659-1.608-1.658-1.607a1.5 1.5 0 0 1-.164-.194l-.123-.216a1.2 1.2 0 0 1 0-.962c.123-.297.358-.553.676-.686.245-.102.502-.123.737-.072.246.052.47.164.645.338l1.3 1.26 1.3 1.259s.113.051.175.04a.5.5 0 0 0 .133-.04l1.7-.717 1.699-.716.092-.84c.03-.328.061-.645.082-.799a.22.22 0 0 0-.072-.153.5.5 0 0 0-.123-.061zM5.139 27.776c.399.102.798.102 1.198.102 1.689 0 3.143-1.228 4.822-1.228 1.76 0 3.45 1.392 4.955 1.392 1.669 0 3.542-1.566 5.457-1.566 1.914 0 3.48 1.566 5.119 1.566 1.31 0 3.542-1.7 6.02-1.7.727 0 1.464.236 2.16.43v1.997c-.737-.297-1.413-.635-2.232-.635-2.324 0-4.116 1.7-6.511 1.7-1.567 0-2.99-1.567-4.556-1.567-1.864 0-3.512 1.567-5.416 1.567-1.802 0-3.246-1.393-4.986-1.393s-3.43 1.229-5.385 1.229c-.205 0-.43-.072-.635-.103v-1.791zM19.35 22.77s2.293 3.317 0 3.306c-2.294 0 0-3.307 0-3.307"/>
    </symbol>
    <symbol xmlns="http://www.w3.org/2000/svg" viewBox="0 0 40 40" id="water-tap-treated" fill="none">
        <path fill="currentColor" d="M0 0h40v40H0z"/>
        <path fill="#fff" fill-rule="evenodd" d="M7.709 13.187V9.255h5.498V6.83h-3.184V4.925h8.62v1.904h-3.47v2.426h7.985c.983 0 2.662.983 2.662 2.427v3.644h-3.645v-1.095c0-.87-.348-1.044-1.27-1.044H7.71m22.012 10.146.809-7.26h1.76l-2.027 17.815H18.122l-2.774-17.814h1.935l1.023 7.258c.215-.092.43-.153.697-.153.88 0 1.965 1.7 3.358.737.747-.512 1.064-.737 1.822-.737.082 0 .164.01.246.04.266.083.563.287.89.482.42.256.891.522 1.403.512a1.5 1.5 0 0 0 .82-.297c.746-.512 1.064-.737 1.821-.737.123 0 .236.092.38.154z" clip-rule="evenodd"/>
        <path fill="currentColor" fill-rule="evenodd" d="M19.565 32.209h9.193l.901-7.77a1 1 0 0 0-.256-.052c-.081 0-.43 0-.634.041-.666.143-1.198.665-1.74.89a1.2 1.2 0 0 1-.4.103c-.082 0-.174 0-.256-.02-.45-.103-1.566-1.004-2.211-1.004-.185 0-.318 0-.44.02-.042 0-.072.021-.103.042v-.041c-.952.204-1.638 1.157-2.416.983-.45-.103-1.567-1.004-2.212-1.004-.184 0-.317 0-.43.02-.04 0-.071.021-.102.042l1.116 7.74z" clip-rule="evenodd"/>
        <path fill="#fff" fill-rule="evenodd" d="M22.451 21.029c0-.85 1.536-4.76 1.536-4.76s1.536 3.91 1.536 4.76-.686 1.536-1.536 1.536-1.536-.686-1.536-1.536" clip-rule="evenodd"/>
    </symbol>
    <symbol viewBox="0 0 40 40" id="water-tap-untreated"
        xmlns="http://www.w3.org/2000/svg">
        <path fill="#231f20" d="M 0.87,19.116 19.176,0.746 a 1.235,1.235 0 0 1 1.759,0 l 18.307,18.37 c 0.491,0.49 0.491,1.278 0,1.768 l -18.307,18.37 c -0.491,0.49 -1.279,0.49 -1.76,0 L 0.87,20.884 a 1.246,1.246 0 0 1 0,-1.768" style="display:inline" />
        <path fill="#ffc425" d="M 1.933,19.443 19.504,1.809 a 0.78,0.78 0 0 1 1.104,0 L 38.19,19.443 a 0.777,0.777 0 0 1 0,1.104 L 20.609,38.18 a 0.78,0.78 0 0 1 -1.105,0 L 1.933,20.547 a 0.777,0.777 0 0 1 0,-1.104" style="display:inline" />
        <path fill="#231f20" fill-rule="evenodd" d="m 12.038,16.162 v -2.566 h 3.58 V 12.01 H 13.54 v -1.247 h 5.615 v 1.247 h -2.26 v 1.585 h 5.195 c 0.645,0 1.729,0.644 1.729,1.584 v 2.382 h -2.373 v -0.716 c 0,-0.562 -0.225,-0.684 -0.828,-0.684 h -8.591 m 14.35,6.635 0.521,-4.743 h 1.146 l -1.32,11.643 H 18.82 L 17.01,18.053 h 1.257 l 0.665,4.743 c 0.143,-0.061 0.287,-0.102 0.45,-0.102 0.573,0 1.279,1.114 2.189,0.48 0.49,-0.337 0.695,-0.48 1.186,-0.48 a 0.33,0.33 0 0 1 0.164,0.03 c 0.174,0.051 0.368,0.184 0.583,0.317 0.276,0.174 0.583,0.337 0.91,0.337 0.174,0 0.348,-0.06 0.532,-0.194 0.49,-0.337 0.695,-0.48 1.186,-0.48 0.082,0 0.154,0.061 0.246,0.102" clip-rule="evenodd" style="display:inline" />
        <path fill="#ffc425" fill-rule="evenodd" d="m 19.76,28.592 h 5.983 l 0.583,-5.08 a 0.6,0.6 0 0 0 -0.164,-0.031 c -0.051,0 -0.276,0 -0.409,0.03 -0.43,0.092 -0.777,0.44 -1.135,0.583 a 0.9,0.9 0 0 1 -0.266,0.072 c -0.051,0 -0.113,0 -0.164,-0.01 -0.296,-0.062 -1.023,-0.655 -1.442,-0.655 -0.112,0 -0.204,0 -0.286,0.01 -0.031,0 -0.041,0.02 -0.072,0.02 v -0.03 c -0.624,0.133 -1.064,0.757 -1.575,0.644 -0.296,-0.061 -1.023,-0.654 -1.442,-0.654 -0.112,0 -0.205,0 -0.286,0.01 -0.031,0 -0.041,0.02 -0.072,0.02 l 0.726,5.06" clip-rule="evenodd" style="display:inline" />
        <path fill="#231f20" fill-rule="evenodd" d="m 21.631,21.293 c 0,-0.552 1.003,-3.118 1.003,-3.118 0,0 1.002,2.556 1.002,3.118 a 0.997,0.997 0 0 1 -1.002,1.002 c -0.553,0 -1.003,-0.45 -1.003,-1.002" clip-rule="evenodd" style="display:inline;fill:#333333;fill-opacity:1" />
    </symbol>
    <symbol xmlns="http://www.w3.org/2000/svg" width="14" height="14" fill="currentColor" viewBox="0 0 16 16" id="feature-clipboard">
        <path d="M4 1.5H3a2 2 0 0 0-2 2V14a2 2 0 0 0 2 2h10a2 2 0 0 0 2-2V3.5a2 2 0 0 0-2-2h-1v1h1a1 1 0 0 1 1 1V14a1 1 0 0 1-1 1H3a1 1 0 0 1-1-1V3.5a1 1 0 0 1 1-1h1z"/>
        <path d="M9.5 1a.5.5 0 0 1 .5.5v1a.5.5 0 0 1-.5.5h-3a.5.5 0 0 1-.5-.5v-1a.5.5 0 0 1 .5-.5zm-3-1A1.5.5 0 0 0 5 1.5v1A1.5.5 0 0 0 6.5 4h3A1.5.5 0 0 0 11 2.5v-1A1.5.5 0 0 0 9.5 0z"/>
    </symbol>
    <symbol xmlns="http://www.w3.org/2000/svg" width="12" height="12" fill="currentColor" style="vertical-align: -2px;" viewBox="0 0 16 16" id="feature-open_external">
        <path fill-rule="evenodd" d="M8.636 3.5a.5.5 0 0 0-.5-.5H1.5A1.5 1.5 0 0 0 0 4.5v10A1.5 1.5 0 0 0 1.5 16h10a1.5 1.5 0 0 0 1.5-1.5V7.864a.5.5 0 0 0-1 0V14.5a.5.5 0 0 1-.5.5h-10a.5.5 0 0 1-.5-.5v-10a.5.5 0 0 1 .5-.5h6.636a.5.5 0 0 0 .5-.5"/>
        <path fill-rule="evenodd" d="M16 .5a.5.5 0 0 0-.5-.5h-5a.5.5 0 0 0 0 1h3.793L6.146 9.146a.5.5 0 1 0 .708.708L15 1.707V5.5a.5.5 0 0 0 1 0z"/>
    </symbol>
    <symbol xmlns="http://www.w3.org/2000/svg" id="warning-triangle" viewBox="0 0 16 16" role="img" aria-label="Warning" style="fill: currentColor;">
        <path d="M8.982 1.566a1.13 1.13 0 0 0-1.96 0L.165 13.233c-.457.778.091 1.767.98 1.767h13.713c.889 0 1.438-.99.98-1.767L8.982 1.566zM8 5c.535 0 .954.462.9.995l-.35 3.507a.552.552 0 0 1-1.1 0L7.1 5.995A.905.905 0 0 1 8 5zm.002 6a1 1 0 1 1 0 2 1 1 0 0 1 0-2z"></path>
    </symbol>
    <symbol xmlns="http://www.w3.org/2000/svg" id="alpine" fill="none" viewBox="0 0 40 40">
        <path fill="currentColor" d="M40 0H0v40h40z"/>
        <path fill="#fff" fill-rule="evenodd" d="m10.389 23.422 1.485-2.572 1.29-1.629v-.953l1.281-.491.502-2.254 1.495-.585.728-2.725 1.24-1.762 1.505-2.52.666-.277 2.407 2.285.963.512 1.014 1.106.502 1.363.502.912v.656l.481-.051.625 1.106 1.055 1.004 2.07 3.986-.554 4.938-2.663 4.19-14.669-.306z" clip-rule="evenodd"/>
        <path fill="#fff" fill-rule="evenodd" d="m2.5 31.168 1.393-3.463 1.383-2.08 1.055-.564 2.192-3.729 2.899 1.711 1.997.666 1.66 1.865 2.09 1.311v.707l1.392-.358 1.383.82 1.28 1.25.308 1.413z" clip-rule="evenodd"/>
        <path fill="currentColor" d="m8.524 21.332 2.899 1.7 1.997.667 1.66 1.864 2.089 1.312v.707l1.383-.359 1.383.81 1.28 1.25.297 1.414-19.022.45 1.393-3.463 1.383-2.08 1.055-.563 2.182-3.73m-.4-1.567-.593 1.004-2.018 3.443-.769.41-.256.133-.164.245-1.382 2.08-.062.103-.04.113-1.394 3.463-.655 1.639 1.761-.04 19.022-.452 1.403-.03-.297-1.373-.307-1.414-.072-.338-.256-.246-1.28-1.25-.102-.103-.123-.072-1.383-.809-.41-.246-.461.123-.102.03-.38-.235-1.956-1.22-1.557-1.741-.205-.225-.297-.103-1.885-.635-2.796-1.64-1.004-.594z"/>
        <path fill="#fff" fill-rule="evenodd" d="m17.65 31.875 3.248-3.258 2.14-1.578.82-1.394 1.383-.922 1.936-.655.706-1.711s1.004-.871 1.107-1.015.635-1.475.635-1.475l2.192-1.67.686 1.373 1.117 1.383.481 1.567.727 1.763.205 1.414 1.352.573v1.896l1.107 2.418v1.783l-19.831-.482z" clip-rule="evenodd"/>
        <path fill="currentColor" d="m31.816 18.187.687 1.372 1.116 1.384.482 1.567.727 1.762.205 1.415 1.352.573v1.896l1.106 2.418v1.783l-19.83-.482 3.246-3.258 2.141-1.578.82-1.394 1.383-.922 1.935-.655.707-1.711s1.004-.871 1.107-1.015.635-1.475.635-1.475l2.192-1.67m.41-1.793-1.117.85-2.192 1.67-.256.195-.123.297c-.184.45-.41 1.004-.512 1.23-.174.163-.574.522-.912.809l-.205.184-.102.256-.502 1.23-1.434.482-.144.05-.123.083-1.382.922-.226.154-.133.225-.697 1.189-1.946 1.434-.071.051-.062.062-3.247 3.258-1.915 1.926 2.714.062 19.831.481 1.188.03v-3.227l-.102-.235-.994-2.193v-2.408l-.707-.297-.747-.317-.113-.759-.02-.143-.052-.133-.706-1.711-.472-1.517-.071-.215-.144-.174-1.034-1.28-.625-1.261-.625-1.26z"/>
        <path fill="currentColor" fill-rule="evenodd" d="m20.548 9.641-2.151 3.996-.471 2.172 1.168-.952 1.505.686.85-.85 1.414.994.666-1.312 1.045.912-.758-2.254-1.486-1.076zM8.913 23.648 7.264 26.31l-.973.584 1.844-.379 1.598.38V25.88l1.383.635v-1.25l2.007.267zm22.36-2.664-2.326 3.76 1.64-.912.686.912.522-.717 1.29.717z" clip-rule="evenodd"/>
    </symbol>
    <symbol xmlns="http://www.w3.org/2000/svg" id="coastal" fill="none" viewBox="0 0 40 40">
        <path fill="currentColor" d="M40 0H0v40h40z"/>
        <path stroke="#fff" stroke-miterlimit="10" stroke-width="3.35" d="M25.143 19.284c-3.974 3.769-7.125-.823-7.125-.823-3.995 3.881-7.783 0-7.783 0-3.635 4.18-7.32.937-7.32.937m18.995 6.579c-3.51 2.955-6.094-.824-6.094-.824-3.408 3.676-6.652 0-6.652 0-3.253 3.676-6.26.927-6.26.927"/>
        <path stroke="#fff" stroke-miterlimit="10" stroke-width="3.29" d="M18.122 32.247c-2.852 2.718-4.87-.824-4.87-.824-2.729 3.573-5.54 0-5.54 0-2.687 3.47-4.808.917-4.808.917"/>
        <path fill="#fff" d="m36.603 5.364-3.532-.535-3.603 2.131-1.256.062-.762.69-3.357-1.092-1.256-.278-2.43-1.307-2.018-.412-1.43.412-1.174-.206-2.09-.896-1.01.69h-.926l-1.01 1.72-1.636 1.853 1.05 2.738v.618l-2.1 1.575v.762l1.595.268 6.713-.34-.494-1.781 1.174-1.37.916-1.029 1.39-.35 1.05.278.752.69.422 1.163-.082 1.442.082 1.235h15.022zM25.935 16.638s12.839.443-5.745 19.82h16.4v-19.82H25.924z"/>
    </symbol>
    <symbol xmlns="http://www.w3.org/2000/svg" id="forest" fill="none" viewBox="0 0 40 40">
        <path fill="currentColor" d="M40 0H0v40h40z"/>
        <path fill="#fff" d="M14.25 22.333h-3.075l3.443-5.35-.03-.062h-1.186l1.155-1.93-3.514-5.882-4.464 7.445h1.144l-3.034 4.738h2.697l-3.76 5.729H9.01v3.85h4.055v-2.002H9.95zm18.367-1.041h2.696l-3.044-4.739h1.154L28.96 9.11l-3.514 5.882 1.154 1.93h-1.185l-.03.061 3.432 5.351h-3.065l4.3 6.536h-3.115v2.002h4.055v-3.85h5.384z"/>
        <path fill="#fff" d="m27.415 27.45-3.718-5.668-.582-.878h3.095L23.3 16.38l-.562-.878h1.359L20 8.67l-4.096 6.832h1.358l-.572.878-2.9 4.524h3.094l-.582.878-3.718 5.668h5.669v4.401h3.493V27.45z"/>
    </symbol>
    <symbol xmlns="http://www.w3.org/2000/svg" id="rivers-lakes" fill="none" viewBox="0 0 40 40">
        <path fill="currentColor" d="M40 0H0v40h40z"/>
        <path fill="#fff" fill-rule="evenodd" d="M16.216 2.677c-3.48 2.471-4.221 3.006-4.427 3.16-1.163.845-2.492 2.369-.885 3.594 1.07.814 2.368 1.01 3.562 1.184 2.162.31 4.324.494 6.487.71 4.128.423 8.761.32 12.592 2.678 1.42.864 2.656 2.409 2.666 4.612.052 7.455-16.422 10.657-17.585 16.762H5.344c2.45-6.353 8.999-8.38 15.032-10.81 3.15-1.267 6.64-1.751 9.4-4.325.927-.865 2.42-2.605 1.308-4.077-.906-1.195-2.235-1.545-3.418-1.956-1.936-.67-3.934-.732-5.91-.989-3.82-.504-7.97-.165-11.625-1.977-1.153-.576-2.605-1.75-1.935-3.439.72-1.812 4.53-3.747 6.908-5.21l1.102.083z" clip-rule="evenodd"/>
        <path fill="#fff" d="M10.83 9.524V8.299c0-.577-.658-1.071-1.44-1.071-.783 0-1.453.494-1.453 1.07v1.226H3.995V8.299c0-2.729 2.42-4.942 5.385-4.942s5.385 2.213 5.385 4.942v1.225H10.82z"/>
        <path fill="currentColor" d="M9.39 4.221c2.48 0 4.51 1.823 4.51 4.067v.35h-2.184v-.35c0-1.07-1.04-1.946-2.327-1.946s-2.326.876-2.326 1.946v.35H4.88v-.35c0-2.244 2.018-4.067 4.51-4.067m0-1.75c-3.46 0-6.27 2.615-6.27 5.817V10.4h5.693V8.29s.237-.196.566-.196c.33 0 .546.164.577.226v2.08h5.704V8.29c0-3.213-2.811-5.818-6.27-5.818"/>
        <path fill="#fff" d="M17.019 15.434c-3.069-.762-7.156-.35-9.957.885-.895.391-1.925.937-2.45 1.884-.7 1.277 1.503 2.595 2.317 2.8 1.503.372 3.037.3 4.55.67 1.452.35 3.903.124 5.282-.35 1.936-.659 2.492-.927 4.51-1.04 1.277-.082 4.613-.37 4.211-2.141-.638-2.863-4.005-1.802-6.136-2.214l-2.338-.484z"/>
        <path stroke="currentColor" stroke-miterlimit="10" stroke-width="1.68" d="M6.838 18.183s1.884 1.318 3.933-.443c0 0 1.987 1.792 4.129.041l.051-.041c2.142 1.75 4.18 0 4.18 0 2.05 1.75 3.933.443 3.933.443m-5.92-1.73c-1.349.834-2.347-.237-2.347-.237-1.308 1.05-2.554 0-2.554 0-1.246 1.05-2.409.258-2.409.258m6.856 3.603c-1.35.845-2.348-.237-2.348-.237-1.308 1.04-2.554 0-2.554 0-1.246 1.04-2.41.258-2.41.258"/>
    </symbol>
    <symbol xmlns="http://www.w3.org/2000/svg" id="binoculars" fill="none" viewBox="0 0 40 40">
        <path fill="currentColor" d="M40 0H0v40h40z"/>
        <path fill="#fff" d="M20.318 7.435c2.01 0 8.324.45 10.703 2.621-3.199.041-5.782 2.653-5.792 5.858 0 1.618.646 3.072 1.701 4.137-.45-.04-2.224-.307-3.72-2.058-.226.41-.503.809-.841 1.208-.636.758-1.928 1.434-1.938 2.52 0 2.826 5.167 2.785 5.156 6.175 0 3.471-4.008 4.649-7.063 4.649-2.06 0-4.408-1.229-4.408-3.533 0-4.24 2.768-7.128 3.322-10.999-1.497 1.71-3.25 1.967-3.69 2.007a5.83 5.83 0 0 0 1.711-4.137c0-3.205-2.573-5.827-5.771-5.878 2.378-2.16 8.642-2.601 10.62-2.601l.01.03Zm2.389 9.892a8 8 0 0 1-.707-1.3c-.503-1.086-1.21-1.403-1.64-1.403-.482.02-1.138.317-1.651 1.403a7 7 0 0 1-.4.799c-.061 4.639-3.413 7.66-3.413 12.206 0 1.66 1.742 2.776 3.649 2.776 3.116 0 6.304-1.199 6.304-3.892 0-2.816-5.166-2.796-5.156-6.175 0-1.516 1.281-2.028 2.112-3.01.39-.462.687-.922.912-1.394zm-13.111-6.78a5.354 5.354 0 0 1 5.35 5.357c0 2.96-2.408 5.345-5.36 5.345a5.354 5.354 0 0 1-5.352-5.355c0-2.96 2.41-5.346 5.362-5.346Zm0 .953c-2.43 0-4.408 1.966-4.408 4.393a4.42 4.42 0 0 0 4.397 4.414 4.42 4.42 0 0 0 4.419-4.393 4.403 4.403 0 0 0-4.398-4.403zm21.517-.921a5.354 5.354 0 0 1 5.351 5.355c0 2.96-2.409 5.346-5.361 5.346a5.354 5.354 0 0 1-5.352-5.356c0-2.96 2.41-5.345 5.362-5.345m0 .942c-2.43 0-4.408 1.966-4.408 4.393a4.403 4.403 0 0 0 8.806.01 4.403 4.403 0 0 0-4.398-4.403"/>
        <path fill="currentColor" d="M20.39 13.231h-.082a2.59 2.59 0 0 1-2.501-2.59 2.597 2.597 0 0 1 2.5-2.592h.082a2.59 2.59 0 0 1 2.502 2.591 2.597 2.597 0 0 1-2.501 2.591m-1.845-2.58c0 1.003.82 1.822 1.824 1.822s1.825-.82 1.825-1.823-.82-1.823-1.825-1.823-1.824.82-1.824 1.823Z"/>
        <path fill="#fff" fill-rule="evenodd" d="M33.541 13.026s-2.573.84-2.635 1.946c0 0-.071 1.147-.82 1.167 0 0-.584-.379-1.066-.04-.205.143-.42.173-.42.173l.43.031.657.277s-.349.092-.564.174c0 0-1.005.747-1.107 1.761 0 0 .994-.04 1.701-.666 0 0 .185-.245.8-.358l.656-.133.769.727s.523-.072.523-.655c0 0-.749-.277-.964-.553 0 0 .523-.635.677-1.864 0 0 .686-.553 1.158-1.588l.184-.399z" clip-rule="evenodd"/>
    </symbol>
    <symbol xmlns="http://www.w3.org/2000/svg" id="caving" fill="none" viewBox="0 0 40 40">
        <path fill="currentColor" d="M0 0h40v40H0z"/>
        <path fill="#fff" d="M24.131 16.383a2.755 2.755 0 0 1-2.76 2.364 2.8 2.8 0 0 1-2.781-2.364zm-3.871 7.652 3.82 4.544c.397.468 1.1.53 1.568.132.468-.397.53-1.1.143-1.569h.02L17.06 16.73H8.495c-1.508 0-2.628 1.242-2.628 2.536 0 1.1.438 1.437.835 1.997l3.749 5.125.468.642H5.99c-.611.01-1.11.51-1.11 1.12 0 .612.479 1.111 1.11 1.122h7.12c.835-.041 1.324-1.264.733-2.18-.6-.948-.886-1.285-.886-1.285l-2.72-3.637h7.823v5.95c0 .611.5 1.11 1.11 1.11.612 0 1.111-.498 1.111-1.11v-4.096l-.02.01Z"/>
        <path fill="#fff" d="M24.203 14.661c-.397-1.182-1.508-2.078-2.801-2.078-1.61 0-2.924 1.396-2.924 3.005h5.715l11.856 4.106v-9.129z"/>
    </symbol>
    <symbol xmlns="http://www.w3.org/2000/svg" id="climbing" fill="none" viewBox="0 0 40 40">
        <path fill="currentColor" d="M0 0h40v40H0z"/>
        <path fill="#fff" d="M15.448 6.542c.307.39.491.88.511 1.413a2.36 2.36 0 0 1-2.303 2.416 2.33 2.33 0 0 1-1.771-.747l3.563-3.092zm-.316-.307a2.38 2.38 0 0 0-1.597-.584 2.365 2.365 0 0 0-2.304 2.417c.01.45.154.87.39 1.228z"/>
        <path fill="#fff" d="M16.75 27.581a1.16 1.16 0 0 1-.798-1.075c0-.112 0-.215.04-.317l1.639-4.525s-2.724.829-3.645 1.167c-1.136.41-1.085.286-.809.911.256.563.707 1.413 1.393 2.529.696 1.146.706 1.658.409 2.969-.092.41-1.054 5.508-1.054 5.508-.01.072.85-.358.85-.358l1.432-4.382.553-2.406-.01-.02Zm-6.583-8.436c1.034-.676 2.15-.86 3.061-.86 1.321 0 1.905.379 2.253.584a53 53 0 0 0-.205 1.126s2.334-.676 3.215-1.044c.952-.39 2.15.102 1.812 1.76-.041.195-.696 2.1-1.26 3.727l1.976-1.576 2.324-3.758.533-7.77-1.034-1.157-.297-4.044s-.686-.768-.686-.727c0 0-.666 4.115-.973 5.948 0 .03-.092.491-.604.625-1.085.286-2.314.737-3.307 1.095-.327.123-.553.348-.614.727-.215 1.31-.45 2.692-.665 3.808-.348-.204-1.045-.542-2.365-.542-.901 0-1.864.112-2.918.594l.706-4.034c.256-1.25.789-1.352 1.25-1.536 1.146-.45 5.722-1.863 5.722-1.863s.635-.082.758-.666c.42-1.904.758-4.105.758-4.105.082-.573.42-1.382.942-1.382h10.606V35.74H12.573l.041-.02c-.512-.123-.911-.656-.921-1.198 0-.154 0-.287.061-.42.215-.788.86-4.618 1.024-5.252 0 0 .205-.81-.277-1.618a78 78 0 0 1-1.259-2.19L9.37 35.443l-.707-.061L10.68 24.08c-.133-.256-.297-.553-.46-.87-.574-1.086-.205-3.184-.205-3.184l.163-.922z"/>
    </symbol>
    <symbol xmlns="http://www.w3.org/2000/svg" id="diving" fill="none" viewBox="0 0 40 40">
        <path fill="currentColor" d="M0 0h40v40H0z"/>
        <path fill="#fff" d="M26.344 10.412v3.389l1.464.502 1.515-2.98-2.98-.91Zm5.404 4.484-.174 3.379 1.444.584 1.669-2.908zM11.17 32.577l-2.59 1.618-1.976-2.774 1.208-.594s-.02-.082-.02-.133a2.22 2.22 0 0 1 2.22-2.222 2.22 2.22 0 0 1 1.158 4.116zm7.247-12.48c.143-.061.307-.082.47-.082a1.188 1.188 0 0 1 .461 2.283l-7.238 4.198a1.21 1.21 0 0 1-1.26-2.068l7.556-4.341.01.01Z"/>
        <path fill="#fff" d="M27.603 16.105c.071-.164.092-.349.092-.533 0-.747-.604-1.362-1.362-1.362-.522 0-.962.287-1.187.717 0 0-1.966 3.758-2.755 5.508-.767 1.72-1.371 1.823-1.791 2.048a165 165 0 0 0-6.706 3.798c-3.297 1.945-.369 6.297 1.966 6.307h8.292a1.21 1.21 0 0 0 1.209-1.208 1.21 1.21 0 0 0-1.209-1.208c-.726 0-4.76-.02-6.224 0-.062 0-.287-.164-.184-.236 1.72-1.106 4.177-2.334 5.927-3.256 1.587-.829 2.55-.532 4.874-1.136.604-.154.91-.154 1.525-1.106.799-1.259 1.341-2.15 2.386-3.573a1.33 1.33 0 0 0 .225-.737 1.355 1.355 0 0 0-2.416-.84l-2.427 3.686-3.993.707 3.748-7.566zM4.156 7.259s.43.164 1.024.164c1.833 0 3.174-1.341 5.6-1.29 2.314.05 3.604 1.453 5.222 1.453 1.024 0 3.235-1.73 5.815-1.668 2.262.05 3.286 1.668 5.273 1.668 1.453 0 3.93-1.883 6.46-1.832 2.262.051 2.365.542 2.365.542v2.048s-1.24-.747-2.427-.747c-1.832 0-4.689 1.832-6.511 1.832-1.997 0-3.768-1.668-5.437-1.668-1.668 0-3.88 1.668-5.764 1.617-1.883-.051-3.501-1.402-5.221-1.402-1.341 0-2.58 1.187-5.324 1.29-.86.04-1.075-.052-1.075-.052z"/>
    </symbol>
    <symbol xmlns="http://www.w3.org/2000/svg" id="fishing" fill="none" viewBox="0 0 40 40">
        <g clip-path="url(#a)">
            <mask id="b" width="40" height="40" x="0" y="0" maskUnits="userSpaceOnUse" style="mask-type:luminance">
                <path fill="#fff" d="M40 0H0v40h40z"/>
            </mask>
            <g mask="url(#b)">
                <path fill="currentColor" d="M40 0H0v40h40z"/>
                <mask id="c" width="40" height="40" x="0" y="0" maskUnits="userSpaceOnUse" style="mask-type:luminance">
                    <path fill="#fff" d="M40 0H0v40h40z"/>
                </mask>
                <g fill-rule="evenodd" clip-rule="evenodd" mask="url(#c)">
                    <path fill="#fff" d="M13.572 11.693A2.213 2.213 0 1 1 18 11.692a2.213 2.213 0 0 1-4.427.001"/>
                    <path fill="#fff" d="M34.419 31.321c-1.572.065-4.289 1.805-5.917 1.805-1.972 0-3.981-1.712-5.553-1.712-1.265 0-4.233 1.563-5.451 1.656h-.921c-1.005-.028-3.619-1.433-4.782-1.433h-.372c-.576 0-3.47 1.284-4.93 1.284h-.744s-.586-.047-.716-.121v-1.907c.26.093.772.149.772.149h.641c.41 0 .977-.158 1.582-.344.26-1.182.744-3.405 1.386-6.186.186-.8.474-1.591.567-1.824 1.265-3.144 2.214-5.32 2.698-6.511.335-.837.94-1.275 2.177-1.516 0 0 7.711-1.703 9.86-2.047.577 0 1.051.428 1.144.986l8.614-8.567v.911l-9.246 9.284a.85.85 0 0 1 .4-.102.98.98 0 0 1 .986.986.98.98 0 0 1-.986.986.98.98 0 0 1-.921-1.33l-3.06 3.05-.512-.511 3.386-3.358c-1.033.214-3.795.79-6.251 1.312-.707.148-.912.139-1.2.837-.8 1.907-1.917 4.604-2.744 6.697-.187.475-.214.68-.094 1.284l1.089 5.674c.623.224 1.181.41 1.544.41h.549c.781-.028 3.944-1.665 5.423-1.61.13 0 .205-.018.623 0 1.507.056 3.787 1.684 5.033 1.684.781 0 2.074-.66 2.977-.995l1.488-.521.744-.195.745-.103v1.88z"/>
                    <path fill="currentColor" d="m11.777 24.707.986 5.19c-.307-.074-.577-.13-.837-.13h-.642c-.168 0-.391.047-.66.121l1.162-5.172z"/>
                </g>
            </g>
        </g>
        <defs>
            <clipPath id="a">
                <path fill="#fff" d="M0 0h40v40H0z"/>
            </clipPath>
        </defs>
    </symbol>
    <symbol xmlns="http://www.w3.org/2000/svg" id="horse-riding" fill="none" viewBox="0 0 40 40">
        <path fill="currentColor" d="M0 0h40v40H0z"/>
        <path fill="#fff" d="M17.45 12.265c0-.798.646-1.443 1.444-1.443h.062c.798 0 1.443.645 1.443 1.443v.737l2.814 2.816c.215-.256.42-.543.615-.87 2.128-3.635 4.268-4.29 4.268-4.29l.41-1.894.685 1.679c1.893.092 4.503 5.784 4.503 5.784l-.951.635s-.942-.972-1.382-1.372c-.543-.327-1.034-.112-1.361-.143-.338-.041-.963-.788-1.116-.983-.809 3.819-2.61 9.818-2.61 9.818l2.559 4.116-.911 4.064-1.32 1.649-.256-1.7.992-.48c.256-.257.717-3.482.717-3.482-1.32-1.7-2.794-2.641-2.794-2.641-3.276 4.955-.635 9.368-.635 9.368h-1.239c.103-.584-.665-1.444-.665-1.444.051-5.232.809-8.528.809-8.528-4.8.89-8.025-1.495-8.025-1.495-.123.993-2.61 5.385-2.61 5.385 1.679 2.334 3.101 6.092 3.101 6.092h-1.166c.102-1.444-.717-1.474-.717-1.474-.583-2.181-2.385-4.597-2.385-4.597.46-.768.911-3.502.911-3.502-5.046 4.771-1.474 9.573-1.474 9.573l-1.29.02c.103-1.013-.767-1.495-.767-1.495.02-.327.205-5.712.205-5.712 1.648-1.495 1.248-3.788 1.248-3.788-.89-2.284-1.023-3.768-.972-4.648-2.17 3.071-1.27 9.378-1.27 9.378H6.387C5.793 22 9.048 19.176 9.723 18.664c.051-.164.092-.236.092-.236 1.29-1.699 3.327-1.73 3.93-1.648.472.062 2.734.42 3.706.584v-5.099Z"/>
        <path fill="currentColor" d="m22.323 16.647-1.925-1.925v2.765a5 5 0 0 0 1.925-.84"/>
        <path fill="#fff" d="M17.41 8.467a1.487 1.487 0 0 1 1.485-1.32c.767 0 1.402.572 1.484 1.32H17.4zm2.968.43a1.505 1.505 0 0 1-1.474 1.249 1.5 1.5 0 0 1-1.474-1.25h2.958z"/>
    </symbol>
    <symbol xmlns="http://www.w3.org/2000/svg" id="hunting" fill="none" viewBox="0 0 40 40">
        <path fill="currentColor" d="M40 0H0v40h40z"/>
        <path fill="#fff" d="M6.326 31.656h7.802v-9.87s4.453 2.795 4.975 3.113c.737.46 1.454.184 1.823-.492.358-.675 3.44-5.59 3.767-6.05.737-1.044-.491-1.874-.491-1.874l9.48-.03v-1.546s-23.353-.02-24.295 0c-2.436.05-3.07 2.16-3.06 3.153v13.606-.01Z"/>
        <path fill="currentColor" d="m19.216 20.834 1.976-3.204-6.747.02z"/>
        <path fill="#fff" d="M13.596 10.545a3.386 3.386 0 0 0-3.389-3.389 3.386 3.386 0 0 0-3.389 3.39 3.386 3.386 0 0 0 3.39 3.388 3.386 3.386 0 0 0 3.388-3.389"/>
    </symbol>
    <symbol xmlns="http://www.w3.org/2000/svg" id="kayaking" fill="none" viewBox="0 0 40 40">
        <path fill="currentColor" d="M0 0h40v40H0z"/>
        <path fill="#fff" fill-rule="evenodd" d="M18.4 14.58c0-.877.714-1.59 1.59-1.59s1.59.713 1.59 1.59c0 .876-.713 1.59-1.59 1.59-.876 0-1.59-.714-1.59-1.59" clip-rule="evenodd"/>
        <path fill="#fff" fill-rule="evenodd" d="M6.81 23.362h.408c1.519.061 4.302 1.753 5.882 1.753 1.906 0 3.853-1.65 5.372-1.65 1.223 0 4.108 1.507 5.28 1.609h.887c.979-.03 3.496-1.396 4.628-1.396h.357c.275 0 1.08.306 1.998.611l3.945-2.404h-9.909l3.272-7.428c1.764.734 3.364-4.808 3.364-4.808l-2.507-1.142s-3.364 4.84-1.58 5.675l-1.285 2.894a.83.83 0 0 0-.672-.357h-7.28c-.703 0-1.55-.173-2.477 1.192a209 209 0 0 0-2.66 3.984H5.098L6.8 23.372zm.548 2.201c-1.926.03-2.854.367-2.997.458v2.018c.225-.102 1.142-.663 2.09-.652.469 0 .153-.031.765 0 1.518.06 4.301 1.752 5.881 1.752 1.907 0 3.854-1.65 5.372-1.65 1.224 0 4.108 1.507 5.28 1.61h.888c.978-.031 3.506-1.386 4.628-1.386h.356c.56 0 3.354 1.243 4.781 1.243h.724s.57-.041.693-.123V26.99c-.255.092-.744.143-.744.143h-.622c-1.203 0-3.823-1.243-4.679-1.243h-.622c-1.427 0-3.812 1.365-4.78 1.365h-.53c-.755-.03-3.823-1.61-5.25-1.559-.133 0-.204-.01-.602 0-1.457.061-3.67 1.63-4.872 1.63-.49 0-3.415-1.782-5.76-1.752z" clip-rule="evenodd"/>
        <path fill="currentColor" fill-rule="evenodd" d="m26.35 18.37-1.336 3.026a.8.8 0 0 0-.326-.357L20.07 18.38h6.28zm-6.483 1.793c-.52-.326-1.141.764-1.773 1.732h4.842s-2.844-1.59-3.069-1.732" clip-rule="evenodd"/>
    </symbol>
    <symbol xmlns="http://www.w3.org/2000/svg" id="picnic" fill="none" viewBox="0 0 40 40">
        <path fill="currentColor" d="M0 0h40v40H0z"/>
        <path fill="#fff" d="M8.53 10.392h23.148v2.662H8.528v-2.662Zm17.627 11.446 2.99 9.04h3.42l-3-9.04h5.63v-2.734h-6.531l-1.608-4.853h-3.43l1.618 4.853H14.967l1.597-4.853h-3.42l-1.607 4.853H4.801v2.734h5.825l-3 9.04h3.43l3-9.04z"/>
    </symbol>
    <symbol xmlns="http://www.w3.org/2000/svg" id="quading" fill="none" viewBox="0 0 40 40">
        <path fill="currentColor" d="M40 0H0v40h40z"/>
        <path fill="#fff" d="M4 25.8c0-2.88 2.33-5.2 5.2-5.2s5.2 2.33 5.2 5.2S12.07 31 9.2 31 4 28.67 4 25.8m5.2-2.21a2.21 2.21 0 1 0 .001 4.422A2.21 2.21 0 0 0 9.2 23.59m21.35.78c-1.09 0-1.98.89-1.98 1.98s.89 1.98 1.98 1.98 1.98-.89 1.98-1.98-.89-1.98-1.98-1.98m-4.65 1.98c0-2.57 2.08-4.66 4.66-4.66s4.66 2.08 4.66 4.66-2.08 4.66-4.66 4.66-4.66-2.09-4.66-4.66m-6.83-7.96c.24.07 1 .25 1.58.08.23-.09.6-.29.88-.64l2.46-3.67 8.44 2.82s1.66.38 1.6 1.47h-.95c-1.76.05-5.45.43-7.21 2.73-.75 1.13-1.22 2.46-1.41 3.97h-8.8c-.1-2.77-1.51-5.1-3.46-6.02-.8-.41-2.51-1.1-6.13-2.18 0 0 .93-2.32 2.25-2.01l10.71 3.43h.03zm7.24-5.96c0-1.17.94-2.11 2.11-2.11h.14v4.21h-.14a2.11 2.11 0 0 1-2.11-2.11zM18.26 9h3.84c.84-.06 1.57.57 1.93 1.29.35.68 1.08 2.33 1.58 3.47l-1.51-.51c-.42-.94-.87-1.93-1.12-2.42-.16-.3-.42-.62-.79-.66h-3.94c-.78.01-.78-1.17.01-1.17"/>
    </symbol>
    <symbol xmlns="http://www.w3.org/2000/svg" id="rafting" fill="none" viewBox="0 0 40 40">
        <path fill="currentColor" d="M0 0h40v40H0z"/>
        <path fill="#fff" fill-rule="evenodd" d="M27.495 8.989c-.645.297-1.413 0-1.7-.645a1.29 1.29 0 0 1 .635-1.7c.646-.297 1.413 0 1.7.635.297.645 0 1.413-.635 1.7zm-7.658 3.655c-.645.297-1.403 0-1.7-.645s0-1.413.635-1.7c.645-.296 1.413 0 1.7.635.297.645 0 1.413-.635 1.7z" clip-rule="evenodd"/>
        <path fill="#fff" d="M18.25 26.947c-.83.86-1.638 1.822-2.396 2.242-1.137.614-5.182.46-6.636.819-1.198.297-2.642 1.259-3.349 2.109v-2.58c.553-.635 1.454-.84 2.233-1.229 1.403-.706 5.673-.4 6.461-.706.338-.123.646-.359.973-.655.912-.84 1.885-2.202 3.605-3.215 1.843-1.085 5.202-.226 6.81-.993.522-.256.912-.584 1.29-.963.768-.768 1.465-1.7 3.011-2.498 1.075-.553 2.642-.542 3.697-.542.348 0 .778-.052 1.208-.154v1.976c-1.32.143-3.246.164-3.983.41-.328.112-.717.409-1.157.798-.994.88-2.192 2.201-3.298 2.775-1.362.706-4.414.327-6.339.829-.706.174-1.413.84-2.12 1.576h-.01Z"/>
        <path fill="#fff" fill-rule="evenodd" d="M12.216 16.145c-.645.297-1.413 0-1.7-.645-.297-.645 0-1.413.635-1.7.645-.296 1.413 0 1.7.635.297.646 0 1.413-.635 1.7z" clip-rule="evenodd"/>
        <path fill="#fff" d="M18.916 21.766c-.113.041-.205.082-.307.123-1.526.706-2.642 3.522-5.049 3.87-1.782.266-3.39.061-4.66.205 0 0-1.249.102-2.427-1.26-.727-.84-.696-2.406.175-2.948.378-.236.9-.277 1.587 0 .287.123.614.297.963.532.174-.051.184-.051.42-.133a.6.6 0 0 1-.185-.092.63.63 0 0 1-.236-.307.69.69 0 0 1 .082-.655c.512-.748.635-.973 1.188-1.792.215-.328 2.622-4.27 3.513-2.242.174.399 1.27 2.774 1.27 2.795a188 188 0 0 0 4.966-2.314l-.604-1.3-1.587 2.15a.7.7 0 0 1-.963.163.7.7 0 0 1-.164-.962c.512-.747.635-.973 1.188-1.792.215-.327 2.622-4.269 3.513-2.242.174.4 1.229 2.683 1.229 2.683.88-.44 1.73-.84 2.519-1.24a.71.71 0 0 1-.635-.091.7.7 0 0 1-.164-.963c.502-.747.635-.962 1.188-1.791.215-.328 2.622-4.26 3.513-2.242a220 220 0 0 0 1.055 2.283c-.134-1.618 4.27-3 4.167 1.464-.01.45-.081.665-.204 1.075-.267.952-1.199 2.232-1.199 2.232-1.116.081-2.273.04-3.39.47-1.525.584-2.99 3.338-4.812 3.635-1.7.277-4.393.143-5.97.696z"/>
        <path fill="currentColor" fill-rule="evenodd" d="M25.563 14.896c.9-.46 1.515-.778 2.222-1.157l-.502-1.136s-1.67 2.252-1.72 2.293" clip-rule="evenodd"/>
        <path fill="currentColor" d="m12.586 21.04-.594-1.28-1.557 2.119c.103-.041 1.496-.574 2.151-.84Z"/>
    </symbol>
    <symbol xmlns="http://www.w3.org/2000/svg" id="scenic-driving" fill="none" viewBox="0 0 40 40">
        <path fill="currentColor" d="M0 0h40v40H0z"/>
        <path fill="#fff" d="M26.308 18.804a10 10 0 0 0-1.466 1.038h-.703c.377-.356.825-.712 1.313-1.038zm-1.63 5.304a9 9 0 0 1 1.355 1.782h-.876a9.3 9.3 0 0 0-1.201-1.782zm1.314 8.674c-.55 1.018-1.313 2.006-2.28 2.922h-2.79c1.334-.916 2.443-1.894 3.278-2.922zM4.297 15.75H30.99a43 43 0 0 0-3.686 1.14c-2.178.804-9.04 3.43-5.752 8.165 4.643 6.668-8.002 9.336-12.288 10.639h-2.25c-1.496 0-2.718-1.558-2.718-3.482V15.739v.01ZM7.015 4.296h25.971c1.507 0 2.718 1.558 2.718 3.482v4.52l-5.04-4.632-3.359 2.454-3.44-3.075-2.8 4.602-1.008-.51-1.385 2.149-1.761-1.13-1.12.814-3.034-2.148L9.723 5.6l-3.512 6.852-1.914-1.843v-2.86c0-1.925 1.222-3.482 2.718-3.482v.03Zm19.72 23.335c.234.936.255 1.893.082 2.83h-1.283a5.45 5.45 0 0 0 .224-2.83zm-2.912-6.628c-.325.57-.417 1.16-.183 1.771h-.56c-.203-.62-.132-1.211.153-1.771zm5.213-3.563c-.367.162-.743.325-1.1.498h-.997c.336-.173.672-.335 1.018-.498h1.09zm2.708-1.487c.224-.071.428-.142.631-.203h1.375c-.204.06-.428.132-.662.203zm-.285.55c-.316.112-.641.234-.977.356H29.3c.315-.132.62-.244.926-.366h1.232v.01Zm-2.23 9.397a11.3 11.3 0 0 0-2.24-2.057c-3.95-2.8 4.653-6.699 8.125-8.083h.59v16.472c0 1.924-1.221 3.482-2.718 3.482h-2.922c1.507-2.545 1.853-6.404-.723-9.662l-.112-.142z"/>
    </symbol>
    <symbol xmlns="http://www.w3.org/2000/svg" id="skiing" fill="none" viewBox="0 0 40 40">
        <path fill="currentColor" d="M40 0H0v40h40z"/>
        <path fill="#fff" d="M29.25 7.146a2.333 2.333 0 1 0-4.668 0 2.333 2.333 0 1 0 4.669 0Zm-12.397 6.757s4.75-3.993 5.263-4.402c.235-.184.522-.225.921-.102.563.184 3.747 1.29 3.993 1.382.481.194.747.327.737.542l2.314 7.75s.522 1.424.297 2.007c-.43 1.075-1.464.748-1.577.655l-.43-.327-6.91 8.682 6.542 3.829c.522.338 1.054-.113 1.054-.113l.707-.594 1.064.717c-.348.297-1.105.911-1.443 1.085-.727.39-1.567.215-2.15-.184L6.359 22.565l.635-1.075 2.14 1.27 8.026-6.205s-.563-1.71-.593-1.874c0 0-.062-.46.297-.788l-.01.01Z"/>
        <path fill="currentColor" d="M17.035 27.5c1.382.788 2.273 1.269 3.45 1.996 2.61-2.703 4.935-6.563 7.412-9.358-.655-2.037-.788-2.57-1.648-5.723-1.444 1.219-4.239 3.645-4.28 3.604 0 0 1.137 3.645 1.618 5.14.113.358.072.665-.307.89-.789.481-1.72.952-2.785 1.546-.594.338-2.59 1.474-3.491 1.894v.02l.03-.01Zm-3.644-2.171a133 133 0 0 1-3.276-1.945c2.294-1.864 5.232-4.044 7.402-5.62.359 1.125 1.075 3.52 1.341 4.31.062.194.021.306-.143.398-1.75.983-3.737 2.058-5.313 2.857h-.01Z"/>
    </symbol>
    <symbol xmlns="http://www.w3.org/2000/svg" id="swimming" fill="none" viewBox="0 0 40 40">
        <path fill="currentColor" d="M40 0H0v40h40z"/>
        <path fill="#fff" d="M28.371 18.94a2.976 2.976 0 0 0-2.98-2.979 2.975 2.975 0 0 0-2.978 2.98 2.975 2.975 0 0 0 2.979 2.979 2.976 2.976 0 0 0 2.98-2.98ZM4.72 23.005c.277 0 .717.02.717.02l.819.113.819.215s1.546.543 1.638.573c.993.369 2.406 1.086 3.266 1.086 1.362 0 3.87-1.792 5.529-1.854.45-.01.532 0 .675 0 1.628-.06 5.109 1.741 5.959 1.772h.604c1.085 0 3.798-1.556 5.416-1.556h.706c.973 0 3.942 1.412 5.314 1.412v2.069h-.052c-1.607-.021-4.78-1.413-5.416-1.413h-.409c-1.28 0-4.146 1.546-5.252 1.576H24.05c-1.331-.112-4.597-1.822-5.99-1.822-1.72 0-3.931 1.884-6.101 1.884-1.792 0-4.946-1.915-6.676-1.986-.706-.031-.338.01-.87 0-.235 0-.481.02-.706.071v-2.088l.327-.052s.43-.02.707-.02h-.02Zm16.289-3.983c-.43-.48-4.126-3.573-5.641-4.924-.645-.584-1.403-.584-1.864-.574H8.508c-.727 0-1.31.584-1.31 1.311s.583 1.31 1.31 1.31h4.433c.83 0 1.024.185 1.485.553 1.187.942 4.7 4.167 4.7 4.167.234.236.572.379.93.379.728 0 1.311-.584 1.311-1.31a1.33 1.33 0 0 0-.368-.912z"/>
    </symbol>
    <symbol xmlns="http://www.w3.org/2000/svg" id="dogs-allowed" fill="none" viewBox="0 0 40 40">
        <path fill="currentColor" d="M0 0h40v40H0z"/>
        <path fill="#fff" d="m28.39 17.487-4.126-4.126S26.956 10.607 28 9.95c1.045-.655 1.209-.716 1.209-.716s-.164.993-.164 1.372c0 .511.338.583.338.583s4.115 1.423 4.412 1.536c.522.194 1.372.522 1.372.522-.235.44-1.003 1.669-1.433 2.365-.318.522-1.014.502-1.014.502h-2.477s-.492 0-.768.276l-1.096 1.096zm-1.546.389-3.573-3.573H9.624s-.768-.041-1.71-.052c-1.73-.03-3.215-.41-3.215-.41s.359 1.322 1.925 1.926c.86.337 2.61.85 2.61.85v4.617s-.163 2.088-1.156 2.641-1.096.44-1.096.553v3.798s0 1.27 1.27 1.27c1.167 0 1.433-.88 1.433-1.27v-2.754s.051-.604.553-.604 1.874-.112 2.693-.88c.829-.768 1.873-1.925 1.873-1.925h9.358v5.672s-.052 1.76 1.372 1.76c1.32 0 1.32-1.32 1.32-1.596V17.886z"/>
    </symbol>
    <symbol xmlns="http://www.w3.org/2000/svg" id="dogs-on-leash" fill="none" viewBox="0 0 40 40">
        <path fill="currentColor" d="M0 0h40v40H0z"/>
        <path fill="#fff" d="m32.548 27.08-1.995-1.984s1.303-1.395 1.812-1.721.59-.356.59-.356-.081.488-.081.682c0 .193.132.275.132.275s2.026.712 2.169.773c.254.092.662.255.662.255-.113.214-.52.855-.734 1.191-.162.255-.458.214-.458.214h-1.333s-.163.05-.245.132l-.529.54zm-.743.194-1.782-1.761h-6.567s-.366-.01-.824-.02a7 7 0 0 1-1.558-.204s.173.651.937.947c.417.163 1.262.417 1.262.417v2.27s-.081 1.029-.56 1.304c-.478.274-.53.213-.53.274v1.874s.032.59.612.62c.53.031.692-.437.692-.62V31.02s.03-.296.265-.296c.234 0 .906-.05 1.303-.427s.906-.947.906-.947h4.53v2.79s-.03.865.662.865c.642 0 .642-.652.642-.784v-4.928zM10.984 10.008c0-1.191.978-2.159 2.19-2.159 1.21 0 2.188.968 2.188 2.159s-.977 2.158-2.189 2.158c-1.211 0-2.189-.967-2.189-2.158m.104 13.56c-.784 1.71-3.869 8.46-4.144 9.04-.193.418-.957.622-1.435.327-.56-.347-.662-.917-.489-1.293.285-.611 3.737-8.267 4.022-8.919.163-.356.254-.733.234-1.232-.01-.509 0-5.894 0-5.894s-1.354 1.17-2.189 1.832c0 0-.672 3.034-.835 3.543-.102.316-.712.774-1.262.621-.713-.193-.917-.885-.784-1.374.275-1.028.987-3.95.987-3.95.601-.56 3.41-3.095 4.012-3.645.641-.59 1.12-.295 1.333-.285l3.675 1.059c.398.203.57.478.754.784.438.733 1.832 3.115 2.016 3.42.132.224 2.402 1.253 2.85 1.497.408.214.754.794.458 1.395-.274.55-.957.733-1.323.56-.845-.407-3.574-1.914-3.584-1.924-.163-.255-1.19-2.057-1.435-2.474v6.475s3.35 7.35 3.858 8.46c.173.376.03 1.059-.437 1.303-.622.326-1.283.071-1.528-.438-.356-.743-3.329-7.167-4.143-8.908h-.631zm18.406.571-8.227-3.574-.285.662 8.226 3.583z"/>
    </symbol>
    <symbol xmlns="http://www.w3.org/2000/svg" id="dogs-permit" fill="none" viewBox="0 0 40 40">
        <g clip-path="url(#a)">
            <mask id="b" width="40" height="40" x="0" y="0" maskUnits="userSpaceOnUse" style="mask-type:luminance">
                <path fill="#fff" d="M40 0H0v40h40z"/>
            </mask>
            <g mask="url(#b)">
                <path fill="currentColor" d="M40 0H0v40h40z"/>
                <path fill="#fff" d="M31.672 3.396H8.338v33.209h23.334z"/>
                <path fill="currentColor" d="M28.893 7.21H11.107v1.412h17.786zm0 2.823H11.107v1.412h17.786zm-7.065 2.813h-10.72v1.411h10.72z"/>
                <mask id="c" width="40" height="40" x="0" y="0" maskUnits="userSpaceOnUse" style="mask-type:luminance">
                    <path fill="#fff" d="M40 0H0v40h40z"/>
                </mask>
                <g mask="url(#c)">
                    <path fill="currentColor" d="m25.808 26.1-2.84-2.843s1.853-1.892 2.575-2.342.835-.49.835-.49-.112.685-.112.94c0 .358.234.4.234.4s2.83.981 3.044 1.053c.357.133.947.358.947.358-.163.296-.692 1.145-.987 1.626-.224.358-.703.348-.703.348h-1.7s-.336 0-.53.194l-.753.757m-1.068.266-2.464-2.465h-9.387s-.53-.03-1.17-.041c-1.192-.02-2.21-.287-2.21-.287s.244.91 1.323 1.33c.591.225 1.803.583 1.803.583v3.18s-.112 1.443-.795 1.821c-.682.379-.753.307-.753.379v2.608s0 .87.865.87c.805 0 .988-.604.988-.87v-1.892s.04-.42.377-.42c.335 0 1.282-.071 1.853-.603.57-.532 1.282-1.33 1.282-1.33h6.434v3.897s-.04 1.207.947 1.207c.906 0 .906-.91.906-1.094v-6.884z"/>
                </g>
            </g>
        </g>
        <defs>
            <clipPath id="a">
                <path fill="#fff" d="M0 0h40v40H0z"/>
            </clipPath>
        </defs>
    </symbol>
    <symbol xmlns="http://www.w3.org/2000/svg" id="no-dogs" fill="none" viewBox="0 0 40 40">
        <path fill="#fff" d="M19.995 0C31.042 0 40 8.958 40 20.005S31.042 40 19.995 40 0 31.052 0 20.005 8.958 0 19.995 0"/>
        <path fill="#231F20" d="m26.865 18.582-3.338-3.338s2.181-2.221 3.02-2.754c.85-.532.983-.573.983-.573s-.133.799-.133 1.116c0 .42.277.471.277.471s3.327 1.147 3.573 1.239c.42.153 1.116.42 1.116.42a66 66 0 0 1-1.157 1.904c-.256.42-.82.41-.82.41H28.38s-.4 0-.624.225l-.891.89zm-1.238.308-2.888-2.888H11.713s-.614-.03-1.382-.051c-1.403-.02-2.6-.338-2.6-.338s.286 1.065 1.556 1.556c.696.266 2.109.686 2.109.686v3.737s-.133 1.69-.932 2.14c-.799.44-.89.358-.89.44v3.072s0 1.023 1.023 1.023c.942 0 1.157-.706 1.157-1.023v-2.222s.041-.492.44-.492c.4 0 1.515-.092 2.181-.716a35 35 0 0 0 1.515-1.556h7.556v4.576s-.041 1.423 1.116 1.423c1.065 0 1.065-1.065 1.065-1.29v-8.098z"/>
        <path fill="#E31937" fill-rule="evenodd" d="M19.997 3.747c8.978 0 16.258 7.28 16.258 16.258 0 3.973-1.424 7.617-3.799 10.433L9.564 7.545a16.15 16.15 0 0 1 10.433-3.798m10.575 28.595a16.17 16.17 0 0 1-10.575 3.91c-8.98 0-16.248-7.278-16.248-16.247 0-4.044 1.474-7.73 3.91-10.576l22.913 22.923zM19.997.389c10.831 0 19.605 8.774 19.605 19.606S30.828 39.6 19.997 39.6.39 30.827.39 19.995 9.165.389 19.997.389" clip-rule="evenodd"/>
    </symbol>
    <symbol xmlns="http://www.w3.org/2000/svg" id="bookings" fill="none" viewBox="0 0 40 40">
        <path fill="currentColor" d="M40 0H0v40h40z"/>
        <path fill="#fff" d="M32.893 6.078H7.126A2.37 2.37 0 0 0 4.754 8.45v24.637a2.37 2.37 0 0 0 2.372 2.372h25.767a2.37 2.37 0 0 0 2.373-2.372V8.45a2.37 2.37 0 0 0-2.373-2.372"/>
        <path fill="currentColor" d="M32.832 8.857H7.166v6.648h25.666z"/>
        <path fill="#fff" d="M16.4 10.038c0 .937-.763 1.7-1.7 1.7s-1.7-.753-1.7-1.7V4.581c0-.936.763-1.69 1.7-1.69s1.7.754 1.7 1.69zm10.598 0c0 .937-.764 1.7-1.7 1.7-.937 0-1.7-.753-1.7-1.7V4.581c0-.936.763-1.69 1.7-1.69s1.7.754 1.7 1.69z"/>
        <path fill="currentColor" d="M13.827 32.426v-8.298h-3.218v-1.954c2.25.05 3.502-.794 3.747-2.535h2.066v12.787zm11.941-5.681q-1.055 2.901-1.1 5.68h-2.78c.296-3.838 1.721-7.289 4.297-10.374h-6.068V19.64h8.735v2.23c-1.262 1.109-2.29 2.728-3.085 4.876"/>
    </symbol>
    <symbol xmlns="http://www.w3.org/2000/svg" id="boat" fill="none" viewBox="0 0 40 40">
        <path fill="currentColor" d="M0 0h40v40H0z"/>
        <path fill="#fff" d="M18.93 11.252a1.486 1.486 0 0 1 2.969 0 1.486 1.486 0 0 1-2.97 0ZM4.68 30.468c1.546-.04 4.463-1.34 5.057-1.34h.39c1.207 0 3.92 1.463 4.975 1.494h.952c1.26-.102 4.351-1.73 5.662-1.73 1.628 0 3.726 1.781 5.774 1.781 1.7 0 4.679-1.812 6.307-1.884.665-.03.317 0 .829 0 .246 0 .47.031.717.082v-1.955l-.349-.082s-.409-.02-.665-.02-.676.02-.676.02l-.767.102-.768.205-1.546.543c-.932.348-2.273 1.034-3.092 1.034-1.29 0-3.665-1.69-5.232-1.751-.43-.02-.502 0-.645 0-1.536-.051-4.832 1.648-5.641 1.669h-.563c-1.024 0-3.604-1.464-5.13-1.464h-.665c-.88 0-3.552 1.238-4.904 1.33v1.966z"/>
        <path fill="#fff" d="M9.726 24.95h.39c1.207 0 3.92 1.464 4.975 1.495h.952c1.26-.103 4.351-1.73 5.662-1.73l2.395-1.137c7.3-3.317 11.16-10.34 11.16-10.34h-6.9l-5.488-3.584v6.932l-.83.184v-1.884a1.647 1.647 0 1 0-3.296 0v2.652L4.699 20.927l1.28 5.067s3.297-1.064 3.747-1.064z"/>
    </symbol>
    <symbol xmlns="http://www.w3.org/2000/svg" id="campervan" fill="none" viewBox="0 0 40 40">
        <path fill="currentColor" d="M0 0h40v40H0z"/>
        <path fill="#fff" d="M29.17 29.929a2.71 2.71 0 0 1-2.715-2.716 2.715 2.715 0 0 1 2.715-2.716 2.72 2.72 0 0 1 2.715 2.716 2.72 2.72 0 0 1-2.715 2.716m-15.994 0a2.715 2.715 0 0 1-2.715-2.716 2.715 2.715 0 0 1 2.715-2.716 2.72 2.72 0 0 1 2.714 2.716 2.72 2.72 0 0 1-2.714 2.716"/>
        <path fill="#fff" d="M35.689 26.735v-5.86l-2.522-5.982h2.176s-1.606-3.845-1.83-4.344h-7.9c-.509 0-6.233 2.208-6.233 2.208H6.72s-2.328 6.612-2.328 7.375 2.328 6.613 2.328 6.613h2.705a3.774 3.774 0 0 1 3.741-3.245 3.775 3.775 0 0 1 3.742 3.265h8.45A3.775 3.775 0 0 1 29.1 23.5a3.774 3.774 0 0 1 3.742 3.255h2.847z"/>
        <path fill="currentColor" d="M27.88 21.13v-5.738h4.16l2.084 5.483-.01 2.014h-2.42l-.732-1.76zm-3.843-5.738v5.737h-3.71v-5.737zm-9.823 0v5.737h-6.04v-5.737z"/>
    </symbol>
    <symbol xmlns="http://www.w3.org/2000/svg" id="car" fill="none" viewBox="0 0 40 40">
        <path fill="currentColor" d="M0 0h40v40H0z"/>
        <path fill="#fff" fill-rule="evenodd" d="M31.43 17.343c.84.215 1.608 1.321 1.608 2.232v5.293c0 .563-1.004.82-1.004.82v3.02c0 .44-.122.757-.44.757h-2.959c-.501 0-.44-.502-.44-.88v-2.898l.02.031h-16.38v2.897c0 .38.061.88-.44.88h-2.96c-.317 0-.44-.317-.44-.757v-3.03s-1.003-.256-1.003-.82v-5.292c0-.922.799-2.058 1.659-2.242l1.986-5.785c.256-.819.563-1.075 1.198-1.075H28.03c.88 0 1.198.164 1.516 1.075l1.924 5.774z" clip-rule="evenodd"/>
        <path fill="currentColor" d="M28.81 16.924c.317 0 .45-.267.317-.605l-1.28-3.757c-.144-.4-.144-.491-.748-.491H12.766c-.41 0-.573.153-.686.491l-1.29 3.757c-.112.308.256.605.574.605h17.445M8.723 20.742a2.36 2.36 0 0 1 2.365-2.365 2.36 2.36 0 0 1 2.365 2.365 2.35 2.35 0 0 1-2.365 2.355 2.357 2.357 0 0 1-2.365-2.355m17.824 0a2.357 2.357 0 0 1 2.355-2.365c1.3 0 2.365 1.055 2.365 2.365a2.35 2.35 0 0 1-2.365 2.355 2.35 2.35 0 0 1-2.355-2.355"/>
    </symbol>
    <symbol xmlns="http://www.w3.org/2000/svg" id="caravan" fill="none" viewBox="0 0 40 40">
        <path fill="currentColor" d="M0 0h40v40H0z"/>
        <path fill="#fff" d="M27.957 10.199c2.028.02 2.557-.204 3.169.794.142.235 1.864 6.837 1.874 7.866.02 3.005.03-2.782 0 7.122.357 0 2.14.02 3.454 0v.784H22.007c.071-.815-.774-4.096-4.218-4.045-3.21.051-4.096 2.914-4.065 4.055-.591.02-8.569.02-10.097.02.03 0 0-.346 0-7.926 0-.856 1.742-7.692 1.773-7.774.163-.417.621-.886 1.008-.886h21.56z"/>
        <path fill="currentColor" d="M23.322 14.111h7.326v5.471h-7.326zm-17.107 0h9.791v5.471H6.215z"/>
        <path fill="#fff" d="M15.068 26.847a2.78 2.78 0 0 1 2.782-2.782 2.78 2.78 0 0 1 2.781 2.782 2.78 2.78 0 0 1-2.781 2.781 2.78 2.78 0 0 1-2.782-2.781"/>
    </symbol>
    <symbol xmlns="http://www.w3.org/2000/svg" id="four-wheel-driving" fill="none" viewBox="0 0 40 40">
        <path fill="currentColor" d="M0 0h40v40H0z"/>
        <path fill="#fff" d="M4.762 33.806V19.401s2.069.614 3.759 1.403c1.679.788 2.293.952 3.358 1.74 1.066.788 1.29 1.116 1.29 1.116s.728-.655 1.342-.727c.82-.092 1.854.277 2.407.901l1.126 1.229s.84-.727 2.745.276c1.905 1.014 3.195 1.966 4.147 3.307s1.004 1.566 1.004 1.566 1.014-.675 2.294.113c1.29.788 2.017 1.74 2.191 1.853.164.113 1.905-.225 2.694.277.788.501 1.679 1.34 1.679 1.34H4.752zm15.566-11.18a3.36 3.36 0 0 1 3.36-3.358 3.36 3.36 0 0 1 3.358 3.358 3.36 3.36 0 0 1-3.359 3.358 3.36 3.36 0 0 1-3.359-3.358M7.66 17.466a3.36 3.36 0 0 1 3.36-3.358 3.36 3.36 0 0 1 3.358 3.358 3.36 3.36 0 0 1-3.359 3.358 3.36 3.36 0 0 1-3.359-3.358"/>
        <path fill="#fff" d="m19.231 20.415-3.471-1.628s.112-1.74-.164-2.631c-.287-.901-.87-2.058-2.407-2.918-1.003-.563-1.566-.676-2.017-.788a17 17 0 0 0-1.854-.338s1.403-2.918 1.567-3.307c.164-.39.84-.45 1.342-.225s5.263 1.955 5.601 2.016c.338.052.615 0 .84-.276.225-.287 2.806-3.921 2.97-4.208s.614-.563.952-.389 11.664 5.826 12.105 6.05c.45.226.502.277.389.728s-5.51 11.978-5.714 12.275c-.297.43-.676.113-.676.113s.112-.277.112-.84.103-2.62-.758-3.921c-.808-1.239-1.74-2.099-3.532-2.385-1.793-.277-3.165.256-4.066 1.146-.901.901-1.229 1.515-1.229 1.515z"/>
        <path fill="currentColor" d="M6.686 30.888h2.621v1.188h1.598v-1.188h.717V29.64h-.717v-3.256H9.338l-2.652 3.154z"/>
        <path fill="#fff" d="M9.309 27.899v1.74H7.957z"/>
        <path fill="currentColor" d="M12.084 32.076h1.864l.604-1.219.604 1.219h1.874l-1.464-2.222 1.444-2.007h-1.844l-.563 1.055-.532-1.055h-1.864l1.393 2.017zm5.366-1.188h2.631v1.188h1.598v-1.188h.706V29.64h-.706v-3.256h-1.567l-2.663 3.154v1.351Z"/>
        <path fill="#fff" d="M20.08 27.899v1.74h-1.36l1.362-1.74Z"/>
        <path fill="currentColor" fill-rule="evenodd" d="m26.85 9.695-4.362-2.16-2.222 4.229 4.362 2.16zm6.145 3.103-4.363-2.15-2.222 4.218 4.363 2.16z" clip-rule="evenodd"/>
    </symbol>
    <symbol xmlns="http://www.w3.org/2000/svg" id="hiking" fill="none" viewBox="0 0 40 40">
        <path fill="currentColor" d="M0 0h40v40H0z"/>
        <path fill="#fff" d="M17.175 8.53h-2.087c-2.148 0-2.627 3.45-3.176 6.218-.56 2.82-.662 3.512-.754 4.244-.132.998.51 1.883 1.07 1.904.966.02 2.402 0 2.402 0l2.545-12.357v-.01Zm-1.159 9.933.305-1.455s.743-3.664.906-4.357c.295-1.262 1.039-2.005 2.596-1.923 1.466.071 2.108.488 3.075 2.3.254.478.397.926.804 1.66l1.497 2.991s.122.143.397.265c.346.163 2.972 1.445 3.532 1.66.56.213.988 1.017.672 1.658s-.824.774-1.547.56-4.358-2.168-4.602-2.3c-.244-.133-1.578-3.054-1.629-3.267s-.132-.102-.132.132c0 .132-.153 1.343-.295 2.483-3.655.845-5.57-.407-5.57-.407h-.01Z"/>
        <path fill="#fff" d="M21.46 19.827a56 56 0 0 1-.142 1.079c-.03.214-.203.855.03 1.232.296.478 1.579 2.727 1.844 3.104.794 1.11.366 2.107.295 2.463-.082.377-1.1 5.11-1.252 5.588-.163.478-.723.936-1.334.834-.764-.132-1.15-.855-.988-1.364.204-.63 1.1-5.16 1.202-5.455.122-.346.224-.478 0-.774-.265-.346-2.352-3.857-2.596-4.04s-.886-.326-.988.163c-.112.488-.743 4.091-.804 4.305-.071.305-.244.509-.479.885-.244.377-4.041 5.028-4.276 5.405-.244.377-.61.55-.987.56-1.018.01-1.507-1.201-1.049-1.812.459-.61 4.286-5.394 4.419-5.588 0 0 .081-.203.163-.62.06-.296.804-3.878 1.323-6.372 0 0 1.873 1.19 5.64.427l-.02-.02ZM19.14 7.98a2.48 2.48 0 0 1 2.485-2.484 2.48 2.48 0 0 1 2.484 2.484 2.48 2.48 0 0 1-2.484 2.483A2.48 2.48 0 0 1 19.14 7.98"/>
    </symbol>
    <symbol xmlns="http://www.w3.org/2000/svg" id="mountain-biking" fill="none" viewBox="0 0 40 40">
        <path fill="currentColor" d="M0 0h40v40H0z"/>
        <path fill="#fff" d="M20.979 20.497c-.02.153-.041.276-.041.348-.051.48.338 1.105.91 1.208a.8.8 0 0 0 .216 0c-.113.41-.184.829-.184 1.27 0 2.63 2.13 4.76 4.76 4.76s4.761-2.13 4.761-4.76a4.775 4.775 0 0 0-4.085-4.72l.113-1.526.573-.676-.164-.102a.85.85 0 0 0 .645-.235c.532-.482.43-1.065.236-1.403-.44-.778-4.096-5.447-4.68-5.836s-1.35-.286-1.883-.143-5.13 1.648-6.03 2.6c-.369.39-.676.973 0 1.823l-.287.327a4.78 4.78 0 0 0-2.928-1.003 4.76 4.76 0 0 0-4.76 4.76 4.758 4.758 0 0 0 9.08 1.997l3.707 1.29z"/>
        <path fill="#fff" d="M6.418 33.478v-12.91s3.89 1.065 6.379 2.816c.972.686 1.157 1.003 1.157 1.003s.655-.625 1.208-.655c.706-.03 1.658.256 2.16.809l1.003 1.105s.758-.655 2.457.256c1.71.901 2.867 1.761 3.717 2.959.85 1.208.9 1.403.9 1.403s.902-.604 2.059.102 1.812 1.556 1.955 1.659c.154.102 1.71-.205 2.406.256.706.45 1.505 1.208 1.505 1.208H6.408z"/>
        <path fill="currentColor" d="M15.778 14.948a3.61 3.61 0 0 1 .686 3.102l-2.724-.963.44-.48z"/>
        <path fill="currentColor" d="m15.09 14.282-2.55 2.744v.532l3.635 1.26a3.6 3.6 0 0 1-3.225 1.996 3.62 3.62 0 0 1-3.624-3.624 3.62 3.62 0 0 1 3.624-3.625c.799 0 1.536.256 2.14.697zm12.042 1.7-.37.42-2.876-1.065c-.04-.307-.235-.471-.645-.676-.235-.113-2.6-1.444-2.6-1.444s2.508-.982 2.99-1.064c.255-.041.337 0 .572.235.246.246 2.458 2.938 2.755 3.379.05.071.102.143.174.204zm.112 3.768a3.624 3.624 0 0 1 3.02 3.582 3.624 3.624 0 0 1-3.624 3.625 3.62 3.62 0 0 1-3.624-3.625 3.62 3.62 0 0 1 3.255-3.603l-.235 3.675.921.195.287-3.84zm-4.054.296c.184-1.106.46-2.805.614-3.727l2.63.994-.081 1.259a4.8 4.8 0 0 0-3.164 1.474m-2.079-.348-3.553-1.28a4.74 4.74 0 0 0-.973-4.31l.307-.328c1.433 1.034 4.72 2.355 4.72 2.754 0 .267-.297 1.956-.502 3.154z"/>
        <path fill="#fff" d="M28.512 9.194a2.025 2.025 0 0 0-1.648-3.205c-.328 0-.635.072-.901.215l2.56 2.99zm-3.049-2.652a2.02 2.02 0 0 0-.635 1.474c0 1.116.911 2.027 2.027 2.027.471 0 .901-.163 1.24-.43l-2.642-3.07z"/>
    </symbol>
    <symbol xmlns="http://www.w3.org/2000/svg" id="gps" fill="none" viewBox="0 0 40 40">
        <path fill="currentColor" d="M 40,0 H 0 v 40 h 40 z" />
        <path fill="#ffffff" fill-rule="evenodd" d="m 11.499802,11.499406 a 8.5001982,8.5001982 0 1 1 9.562723,8.434321 v 11.753649 a 1.062525,1.062525 0 0 1 -2.12505,0 V 19.935852 A 8.5001982,8.5001982 0 0 1 11.499802,11.49728 Z M 16.79755,29.71958 a 1.0625248,1.0625248 0 0 1 -0.873395,1.221904 c -1.513035,0.250756 -2.720063,0.626889 -3.516957,1.047649 a 2.7625644,2.7625644 0 0 0 -0.786268,0.563138 0.63751486,0.63751486 0 0 0 -0.121128,0.191255 v 0.0064 l 0.0042,0.017 0.034,0.07013 a 1.2750297,1.2750297 0 0 0 0.308132,0.318757 c 0.350633,0.276257 0.924397,0.573764 1.727665,0.839395 1.595913,0.531262 3.86759,0.87977 6.42615,0.87977 2.558559,0 4.830237,-0.346383 6.42615,-0.87977 0.803268,-0.267756 1.377032,-0.563138 1.727665,-0.839395 a 1.2750297,1.2750297 0 0 0 0.310257,-0.318757 l 0.03188,-0.07013 0.0042,-0.017 v -0.0085 a 0.63751486,0.63751486 0 0 0 -0.121083,-0.19128 2.7625644,2.7625644 0 0 0 -0.786268,-0.561013 c -0.799019,-0.42076 -2.003921,-0.796893 -3.516957,-1.047649 a 1.0625248,1.0625248 0 1 1 0.348508,-2.095299 c 1.636288,0.269881 3.085572,0.697016 4.158722,1.262279 0.979648,0.516387 2.042172,1.366407 2.042172,2.641437 0,0.905271 -0.552512,1.598037 -1.156027,2.076173 -0.616264,0.484512 -1.445033,0.877646 -2.371555,1.185778 C 25.23182,36.634492 22.722136,37 19.999948,37 17.277759,37 14.768076,36.634492 12.902283,36.011852 11.975761,35.70372 11.146992,35.310586 10.530728,34.826074 9.9272134,34.347938 9.3747005,33.655172 9.3747005,32.749901 c 0,-1.272905 1.0625245,-2.12505 2.0421725,-2.641437 1.07315,-0.565263 2.522434,-0.992398 4.158722,-1.262279 a 1.0625248,1.0625248 0 0 1 1.221903,0.873395" />
    </symbol>
</svg>