<svg xmlns="http://www.w3.org/2000/svg" style="display: none;">
    <symbol id='mapbox-assist--add'
        xmlns="http://www.w3.org/2000/svg" fill="currentColor" viewBox="0 0 16 16">
        <path d="M14 1a1 1 0 0 1 1 1v12a1 1 0 0 1-1 1H2a1 1 0 0 1-1-1V2a1 1 0 0 1 1-1zM2 0a2 2 0 0 0-2 2v12a2 2 0 0 0 2 2h12a2 2 0 0 0 2-2V2a2 2 0 0 0-2-2z"/>
        <path d="M8 4a.5.5 0 0 1 .5.5v3h3a.5.5 0 0 1 0 1h-3v3a.5.5 0 0 1-1 0v-3h-3a.5.5 0 0 1 0-1h3v-3A.5.5 0 0 1 8 4"/>
    </symbol>
    <symbol id='mapbox-assist--chevron-up'
        xmlns="http://www.w3.org/2000/svg" fill="currentColor" viewBox="0 0 16 16">
        <path fill-rule="evenodd" d="M7.646 4.646a.5.5 0 0 1 .708 0l6 6a.5.5 0 0 1-.708.708L8 5.707l-5.646 5.647a.5.5 0 0 1-.708-.708z" />
    </symbol>
    <symbol id='mapbox-assist--grip'
        xmlns="http://www.w3.org/2000/svg" fill="currentColor" viewBox="0 0 16 16">
        <path d="M2 8a1 1 0 1 1 0 2 1 1 0 0 1 0-2m0-3a1 1 0 1 1 0 2 1 1 0 0 1 0-2m3 3a1 1 0 1 1 0 2 1 1 0 0 1 0-2m0-3a1 1 0 1 1 0 2 1 1 0 0 1 0-2m3 3a1 1 0 1 1 0 2 1 1 0 0 1 0-2m0-3a1 1 0 1 1 0 2 1 1 0 0 1 0-2m3 3a1 1 0 1 1 0 2 1 1 0 0 1 0-2m0-3a1 1 0 1 1 0 2 1 1 0 0 1 0-2m3 3a1 1 0 1 1 0 2 1 1 0 0 1 0-2m0-3a1 1 0 1 1 0 2 1 1 0 0 1 0-2" />
    </symbol>
    <symbol id='mapbox-assist--bin'
        xmlns="http://www.w3.org/2000/svg" fill="currentColor" viewBox="0 0 16 16">
        <path d="M5.5 5.5A.5.5 0 0 1 6 6v6a.5.5 0 0 1-1 0V6a.5.5 0 0 1 .5-.5m2.5 0a.5.5 0 0 1 .5.5v6a.5.5 0 0 1-1 0V6a.5.5 0 0 1 .5-.5m3 .5a.5.5 0 0 0-1 0v6a.5.5 0 0 0 1 0z" />
        <path d="M14.5 3a1 1 0 0 1-1 1H13v9a2 2 0 0 1-2 2H5a2 2 0 0 1-2-2V4h-.5a1 1 0 0 1-1-1V2a1 1 0 0 1 1-1H6a1 1 0 0 1 1-1h2a1 1 0 0 1 1 1h3.5a1 1 0 0 1 1 1zM4.118 4 4 4.059V13a1 1 0 0 0 1 1h6a1 1 0 0 0 1-1V4.059L11.882 4zM2.5 3h11V2h-11z" />
    </symbol>
    <symbol id='mapbox-assist--warning'
        xmlns="http://www.w3.org/2000/svg" fill="currentColor" viewBox="0 0 16 16">
        <path d="M7.938 2.016A.13.13 0 0 1 8.002 2a.13.13 0 0 1 .063.016.15.15 0 0 1 .054.057l6.857 11.667c.036.06.035.124.002.183a.2.2 0 0 1-.054.06.1.1 0 0 1-.066.017H1.146a.1.1 0 0 1-.066-.017.2.2 0 0 1-.054-.06.18.18 0 0 1 .002-.183L7.884 2.073a.15.15 0 0 1 .054-.057m1.044-.45a1.13 1.13 0 0 0-1.96 0L.165 13.233c-.457.778.091 1.767.98 1.767h13.713c.889 0 1.438-.99.98-1.767z"/>
        <path d="M7.002 12a1 1 0 1 1 2 0 1 1 0 0 1-2 0M7.1 5.995a.905.905 0 1 1 1.8 0l-.35 3.507a.552.552 0 0 1-1.1 0z"/>
    </symbol>
    <symbol id='mapbox-assist--ascend'
        xmlns="http://www.w3.org/2000/svg" fill="currentColor" viewBox="0 0 576 512">
        <path d="M384 160c-17.7 0-32-14.3-32-32s14.3-32 32-32l160 0c17.7 0 32 14.3 32 32l0 160c0 17.7-14.3 32-32 32s-32-14.3-32-32l0-82.7L342.6 374.6c-12.5 12.5-32.8 12.5-45.3 0L192 269.3 54.6 406.6c-12.5 12.5-32.8 12.5-45.3 0s-12.5-32.8 0-45.3l160-160c12.5-12.5 32.8-12.5 45.3 0L320 306.7 466.7 160 384 160z"/>
    </symbol>
    <symbol id='mapbox-assist--info'
        xmlns="http://www.w3.org/2000/svg" fill="currentColor" viewBox="0 0 16 16">
        <path d="M14 1a1 1 0 0 1 1 1v12a1 1 0 0 1-1 1H2a1 1 0 0 1-1-1V2a1 1 0 0 1 1-1zM2 0a2 2 0 0 0-2 2v12a2 2 0 0 0 2 2h12a2 2 0 0 0 2-2V2a2 2 0 0 0-2-2z"/>
        <path d="m8.93 6.588-2.29.287-.082.38.45.083c.294.07.352.176.288.469l-.738 3.468c-.194.897.105 1.319.808 1.319.545 0 1.178-.252 1.465-.598l.088-.416c-.2.176-.492.246-.686.246-.275 0-.375-.193-.304-.533zM9 4.5a1 1 0 1 1-2 0 1 1 0 0 1 2 0"/>
    </symbol>
    <symbol id='mapbox-assist--clipboard'
        xmlns="http://www.w3.org/2000/svg" fill="currentColor" viewBox="0 0 16 16">
        <path d="M4 1.5H3a2 2 0 0 0-2 2V14a2 2 0 0 0 2 2h10a2 2 0 0 0 2-2V3.5a2 2 0 0 0-2-2h-1v1h1a1 1 0 0 1 1 1V14a1 1 0 0 1-1 1H3a1 1 0 0 1-1-1V3.5a1 1 0 0 1 1-1h1z"/>
        <path d="M9.5 1a.5.5 0 0 1 .5.5v1a.5.5 0 0 1-.5.5h-3a.5.5 0 0 1-.5-.5v-1a.5.5 0 0 1 .5-.5zm-3-1A1.5 1.5 0 0 0 5 1.5v1A1.5 1.5 0 0 0 6.5 4h3A1.5 1.5 0 0 0 11 2.5v-1A1.5 1.5 0 0 0 9.5 0z"/>
    </symbol>
    <symbol id='mapbox-assist--share'
        xmlns="http://www.w3.org/2000/svg" fill="currentColor" viewBox="0 0 16 16">
        <path d="M11 2.5a2.5 2.5 0 1 1 .603 1.628l-6.718 3.12a2.5 2.5 0 0 1 0 1.504l6.718 3.12a2.5 2.5 0 1 1-.488.876l-6.718-3.12a2.5 2.5 0 1 1 0-3.256l6.718-3.12A2.5 2.5 0 0 1 11 2.5"/>
    </symbol>
    <symbol id='mapbox-assist--download'
        xmlns="http://www.w3.org/2000/svg" fill="currentColor" viewBox="0 0 16 16">
        <path d="M.5 9.9a.5.5 0 0 1 .5.5v2.5a1 1 0 0 0 1 1h12a1 1 0 0 0 1-1v-2.5a.5.5 0 0 1 1 0v2.5a2 2 0 0 1-2 2H2a2 2 0 0 1-2-2v-2.5a.5.5 0 0 1 .5-.5"/>
        <path d="M7.646 11.854a.5.5 0 0 0 .708 0l3-3a.5.5 0 0 0-.708-.708L8.5 10.293V1.5a.5.5 0 0 0-1 0v8.793L5.354 8.146a.5.5 0 1 0-.708.708z"/>
    </symbol>
    <symbol id='mapbox-assist--cancel-square'
        xmlns="http://www.w3.org/2000/svg" fill="currentColor" viewBox="0 0 16 16">
        <path d="M14 1a1 1 0 0 1 1 1v12a1 1 0 0 1-1 1H2a1 1 0 0 1-1-1V2a1 1 0 0 1 1-1zM2 0a2 2 0 0 0-2 2v12a2 2 0 0 0 2 2h12a2 2 0 0 0 2-2V2a2 2 0 0 0-2-2z"/>
        <path d="M4.646 4.646a.5.5 0 0 1 .708 0L8 7.293l2.646-2.647a.5.5 0 0 1 .708.708L8.707 8l2.647 2.646a.5.5 0 0 1-.708.708L8 8.707l-2.646 2.647a.5.5 0 0 1-.708-.708L7.293 8 4.646 5.354a.5.5 0 0 1 0-.708"/>
    </symbol>
    <symbol id='mapbox-assist--cancel'
        xmlns="http://www.w3.org/2000/svg" fill="currentColor" viewBox="0 0 16 16">
        <path d="M2.146 2.854a.5.5 0 1 1 .708-.708L8 7.293l5.146-5.147a.5.5 0 0 1 .708.708L8.707 8l5.147 5.146a.5.5 0 0 1-.708.708L8 8.707l-5.146 5.147a.5.5 0 0 1-.708-.708L7.293 8z"/>
    </symbol>
    <symbol id='mapbox-assist--cancel-solid'
        xmlns="http://www.w3.org/2000/svg" fill="currentColor" viewBox="0 0 16 16">
        <path d="M 11.357659,0 H 4.6503172 C 1.7368654,0 0,1.736 0,4.648 v 6.696 C 0,14.264 1.7368654,16 4.6503172,16 h 6.6993378 c 2.913452,0 4.650317,-1.736 4.650317,-4.648 V 4.648 C 16.007976,1.736 14.271111,0 11.357659,0 Z m -0.664331,9.84 c 0.232116,0.232 0.232116,0.616 0,0.848 -0.12006,0.12 -0.272135,0.176 -0.424211,0.176 -0.152076,0 -0.3041517,-0.056 -0.4242115,-0.176 l -1.8409173,-1.84 -1.8409173,1.84 c -0.1200598,0.12 -0.2721356,0.176 -0.4242113,0.176 -0.1520758,0 -0.3041516,-0.056 -0.4242114,-0.176 -0.2321157,-0.232 -0.2321157,-0.616 0,-0.848 L 7.1555655,8 5.3146482,6.16 c -0.2321157,-0.232 -0.2321157,-0.616 0,-0.848 0.2321156,-0.232 0.6163071,-0.232 0.8484227,0 l 1.8409173,1.84 1.8409173,-1.84 c 0.2321155,-0.232 0.6163075,-0.232 0.8484225,0 0.232116,0.232 0.232116,0.616 0,0.848 L 8.852411,8 Z" style="stroke-width:0.8" />
    </symbol>
    <symbol id="mapbox-assist--gpx-logo"
        xmlns="http://www.w3.org/2000/svg" fill="currentColor" viewBox="0 0 16 16">
        <circle cx="8" cy="8" r="8" />
        <text x="7.8425622" y="10.42952" fill="#ffffff" font-family="Arial, sans-serif" font-size="6.7881px" font-weight="bold" stroke-width=".22627" text-anchor="middle">GPX</text>
    </symbol>
    <symbol id="mapbox-assist--geo-locate"
        xmlns="http://www.w3.org/2000/svg" fill="currentColor" viewBox="0 0 16 16">
        <path d="M 8,0 C 6.6666667,0 6.6666667,1.3333333 6.6666667,1.3333333 v 0.1333334 a 6.6666667,6.6666667 0 0 0 -5.2,5.2 H 1.3333333 C 1.3333333,6.6666667 0,6.6666667 0,8 0,9.3333333 1.3333333,9.3333333 1.3333333,9.3333333 h 0.1333334 a 6.6666667,6.6666667 0 0 0 5.2,5.1999997 v 0.133334 c 0,0 0,1.333333 1.3333333,1.333333 1.3333333,0 1.3333333,-1.333333 1.3333333,-1.333333 V 14.533333 A 6.6666667,6.6666667 0 0 0 14.533333,9.3333333 h 0.133334 c 0,0 1.333333,0 1.333333,-1.3333333 0,-1.3333333 -1.333333,-1.3333333 -1.333333,-1.3333333 h -0.133334 a 6.6666667,6.6666667 0 0 0 -5.1999997,-5.2 V 1.3333333 C 9.3333333,1.3333333 9.3333333,0 8,0 Z M 8,3.3333333 A 4.6666669,4.6666669 0 1 1 8,12.666667 4.6666669,4.6666669 0 1 1 8,3.3333333 Z" style="stroke-width:1.33333" />
        <circle cx="8" cy="8" r="2.6666667" style="stroke-width:1.33333" />
        <path d="M 13.333333,1.3333333 14.666667,2.6666667 2.6666667,14.666667 1.3333333,13.333333 Z" display="none" style="stroke-width:1.33333" />
    </symbol>
    <symbol id='mapbox-assist--help'
        xmlns="http://www.w3.org/2000/svg" fill="currentColor" viewBox="0 0 16 16">
        <path fill-rule="evenodd" d="M4.475 5.458c-.284 0-.514-.237-.47-.517C4.28 3.24 5.576 2 7.825 2c2.25 0 3.767 1.36 3.767 3.215 0 1.344-.665 2.288-1.79 2.973-1.1.659-1.414 1.118-1.414 2.01v.03a.5.5 0 0 1-.5.5h-.77a.5.5 0 0 1-.5-.495l-.003-.2c-.043-1.221.477-2.001 1.645-2.712 1.03-.632 1.397-1.135 1.397-2.028 0-.979-.758-1.698-1.926-1.698-1.009 0-1.71.529-1.938 1.402-.066.254-.278.461-.54.461h-.777ZM7.496 14c.622 0 1.095-.474 1.095-1.09 0-.618-.473-1.092-1.095-1.092-.606 0-1.087.474-1.087 1.091S6.89 14 7.496 14"/>
    </symbol>
</svg>