<svg
   viewBox="0 0 1024 1024"
   id="icon-block-empty"
   xmlns="http://www.w3.org/2000/svg"
   xmlns:svg="http://www.w3.org/2000/svg">
  <path
     d="M 153.57,971.42 H 870.23 A 153.57,153.57 0 0 0 1023.8,817.85 V 203.57 A 153.57,153.57 0 0 0 870.23,50 H 153.57 A 153.57,153.57 0 0 0 0,203.57 V 817.85 A 153.57,153.57 0 0 0 153.57,971.42 Z M 102.38,203.57 a 51.19,51.19 0 0 1 51.19,-51.19 h 716.66 a 51.19,51.19 0 0 1 51.19,51.19 v 614.28 a 51.19,51.19 0 0 1 -51.19,51.19 H 153.57 a 51.19,51.19 0 0 1 -51.19,-51.19 z"
     style="stroke-width:51.19" />
</svg>
