<svg
   viewBox="0 0 1024 1024"
   id="icon-blog"
   xmlns="http://www.w3.org/2000/svg"
   xmlns:svg="http://www.w3.org/2000/svg">
  <path
     d="m 384,64 c 0,35.4 28.6,64 64,64 247.4,0 448,200.6 448,448 0,35.4 28.6,64 64,64 35.4,0 64,-28.6 64,-64 C 1024,257.8 766.2,0 448,0 412.6,0 384,28.6 384,64 Z m 0,192 c 0,35.4 28.6,64 64,64 141.4,0 256,114.6 256,256 0,35.4 28.6,64 64,64 35.4,0 64,-28.6 64,-64 0,-212 -172,-384 -384,-384 -35.4,0 -64,28.6 -64,64 z m -192,32 c 0,-53 -43,-96 -96,-96 -53,0 -96,43 -96,96 v 448 c 0,159 129,288 288,288 159,0 288,-129 288,-288 C 576,577 447,448 288,448 h -32 v 192 h 32 c 53,0 96,43 96,96 0,53 -43,96 -96,96 -53,0 -96,-43 -96,-96 z"
     style="stroke-width:2" />
</svg>
