<svg
   viewBox="0 0 1024 1024"
   id="icon-call-to-action"
   xmlns="http://www.w3.org/2000/svg"
   xmlns:svg="http://www.w3.org/2000/svg">
  <path
     d="m 432,128 c -26.6,0 -48,21.4 -48,48 0,26.6 21.4,48 48,48 h 32 v 66.6 C 239.2,314.4 64,504.8 64,736 H 960 C 960,504.8 784.8,314.4 560,290.6 V 224 h 32 c 26.6,0 48,-21.4 48,-48 0,-26.6 -21.4,-48 -48,-48 H 512 Z M 48,800 c -26.6,0 -48,21.4 -48,48 0,26.6 21.4,48 48,48 h 928 c 26.6,0 48,-21.4 48,-48 0,-26.6 -21.4,-48 -48,-48 z"
     style="stroke-width:2" />
</svg>
