<svg
   viewBox="0 0 1024 1024"
   id="icon-csv-table"
   xmlns="http://www.w3.org/2000/svg"
   xmlns:svg="http://www.w3.org/2000/svg">
  <path
     d="M 106.32913 -0.00390625 C 92.478145 -0.00390625 81.209991 11.264248 81.209991 25.115234 L 81.209991 34.201172 L 12.265655 34.201172 C 5.2786617 34.201172 1.6507143 42.938747 6.5967094 47.885742 L 69.33792 110.62695 L 6.5967094 173.36719 C 1.6507143 178.31418 5.2776617 187.05176 12.265655 187.05176 L 81.209991 187.05176 L 81.209991 486.87207 C 81.209991 500.72306 92.478145 511.99121 106.32913 511.99121 L 482.57913 511.99121 C 496.43012 511.99121 507.69827 500.72306 507.69827 486.87207 L 507.69827 452.66699 C 507.69827 448.24 504.10969 444.65039 499.68069 444.65039 C 495.2527 444.65039 491.66409 448.239 491.66409 452.66699 L 491.66409 486.87207 C 491.66409 491.88207 487.58815 495.95801 482.57815 495.95801 L 106.32815 495.95801 C 101.31816 495.95801 97.242217 491.88207 97.242217 486.87207 L 97.242217 187.05176 L 149.08304 187.05176 C 153.51103 187.05176 157.09964 183.46315 157.09964 179.03516 C 157.09964 174.60716 153.51203 171.01758 149.08304 171.01758 L 31.623077 171.01758 L 86.346709 116.29395 C 89.477706 113.16295 89.477706 108.08703 86.346709 104.95703 L 31.623077 50.234375 L 380.50296 50.234375 L 380.50296 171.01367 L 183.293 171.01367 C 178.865 171.01367 175.2764 174.60325 175.2764 179.03125 C 175.2764 183.45925 178.864 187.04785 183.293 187.04785 L 388.52347 187.04785 C 392.95146 187.04785 396.54007 183.45925 396.54007 179.03125 L 396.54007 42.210938 C 396.54007 37.783942 392.95246 34.194336 388.52347 34.194336 L 97.252959 34.194336 L 97.252959 25.108398 C 97.252959 20.098403 101.3289 16.022461 106.3389 16.022461 L 414.71878 16.022461 L 414.71878 67.863281 C 414.71878 81.714267 425.98693 92.982422 439.83792 92.982422 L 491.67874 92.982422 L 491.67874 418.46191 C 491.67874 422.89191 495.26732 426.48145 499.69632 426.48145 L 499.67972 426.49023 C 504.10771 426.49023 507.6973 422.90065 507.6973 418.47266 L 507.6973 84.972656 C 507.6973 82.872658 506.83464 80.789686 505.34964 79.304688 L 428.38968 2.3447266 C 426.90168 0.85872805 424.82078 -0.00390625 422.71878 -0.00390625 L 106.32913 -0.00390625 z M 430.73636 27.370117 L 480.32522 76.959961 L 439.8223 76.959961 C 434.8123 76.959961 430.73636 72.884018 430.73636 67.874023 L 430.73636 27.370117 z M 217.48733 76.956055 C 213.05934 76.956055 209.46976 80.544661 209.46976 84.972656 L 209.46976 110.62598 C 209.46976 115.05297 213.05834 118.64258 217.48733 118.64258 L 235.12405 118.64258 L 235.12405 128.2627 L 217.48733 128.2627 C 213.05934 128.2627 209.46976 131.85228 209.46976 136.28027 C 209.46976 140.70827 213.05834 144.29688 217.48733 144.29688 L 243.13968 144.29688 C 247.56767 144.29688 251.15726 140.70827 251.15726 136.28027 L 251.15726 110.62598 C 251.15726 106.19898 247.56867 102.61035 243.13968 102.61035 L 225.50296 102.61035 L 225.50296 92.990234 L 243.13968 92.990234 C 247.56767 92.990234 251.15726 89.400652 251.15726 84.972656 C 251.15726 80.544661 247.56867 76.956055 243.13968 76.956055 L 217.48733 76.956055 z M 268.64065 76.959961 C 267.85205 76.975944 267.05158 77.109383 266.2637 77.37207 C 262.06271 78.772069 259.79437 83.3117 261.19437 87.512695 L 278.29593 138.82031 C 279.38593 142.09331 282.4504 144.30078 285.9014 144.30078 C 289.35239 144.30078 292.41589 142.09331 293.50589 138.82031 L 310.60843 87.512695 C 311.99043 83.367699 309.68406 78.754069 305.54007 77.37207 C 301.39507 75.990072 296.78044 78.297364 295.39944 82.443359 L 285.90237 110.93262 L 276.4053 82.443359 C 275.26699 79.03005 272.05795 76.890702 268.64065 76.959961 z M 166.18655 76.962891 C 161.75856 76.962891 158.16995 80.552473 158.16995 84.980469 L 158.16995 136.28711 C 158.16995 140.7141 161.75756 144.30371 166.18655 144.30371 L 191.83987 144.30371 C 196.26787 144.30371 199.85745 140.7151 199.85745 136.28711 C 199.85745 131.85911 196.26887 128.26953 191.83987 128.26953 L 174.20315 128.26953 L 174.20315 92.99707 L 191.83987 92.99707 C 196.26787 92.99707 199.85745 89.408464 199.85745 84.980469 C 199.85745 80.552473 196.26887 76.962891 191.83987 76.962891 L 166.18655 76.962891 z M 174.72952 213.78027 C 165.59353 213.78027 158.16214 221.21167 158.16214 230.34766 L 158.16214 452.67773 C 158.16214 461.81373 165.59353 469.24609 174.72952 469.24609 L 414.16019 469.24609 C 423.29618 469.24609 430.72757 461.81373 430.72757 452.67773 L 430.72757 230.34766 C 430.72757 221.21167 423.29618 213.78027 414.16019 213.78027 L 174.72952 213.78027 z M 174.73147 229.81641 L 414.16116 229.81641 C 414.45516 229.81641 414.69534 230.05461 414.69534 230.34961 L 414.69534 452.67969 C 414.69534 452.97469 414.45516 453.21387 414.16116 453.21387 L 174.73147 453.21387 C 174.43748 453.21387 174.1973 452.97469 174.1973 452.67969 L 174.1973 230.34961 C 174.1973 230.05461 174.43748 229.81641 174.73147 229.81641 z M 208.9346 256.53027 C 204.5066 256.53027 200.918 260.11888 200.918 264.54688 C 200.918 268.97487 204.5056 272.56445 208.9346 272.56445 L 243.13968 272.56445 C 247.56767 272.56445 251.15726 268.97487 251.15726 264.54688 C 251.15726 260.11888 247.56867 256.53027 243.13968 256.53027 L 208.9346 256.53027 z M 277.34964 256.53027 C 272.92164 256.53027 269.33304 260.11888 269.33304 264.54688 C 269.33304 268.97487 272.92064 272.56445 277.34964 272.56445 L 379.95999 272.56445 C 384.38799 272.56445 387.97659 268.97487 387.97659 264.54688 C 387.97659 260.11888 384.38799 256.53027 379.95999 256.53027 L 277.34964 256.53027 z M 208.9346 307.83984 C 204.5066 307.83984 200.918 311.42943 200.918 315.85742 C 200.918 320.28542 204.5056 323.87402 208.9346 323.87402 L 243.13968 323.87402 C 247.56767 323.87402 251.15726 320.28542 251.15726 315.85742 C 251.15726 311.42943 247.56867 307.83984 243.13968 307.83984 L 208.9346 307.83984 z M 277.34964 307.83984 C 272.92164 307.83984 269.33304 311.42943 269.33304 315.85742 C 269.33304 320.28542 272.92064 323.87402 277.34964 323.87402 L 379.95999 323.87402 C 384.38799 323.87402 387.97659 320.28542 387.97659 315.85742 C 387.97659 311.42943 384.38799 307.83984 379.95999 307.83984 L 277.34964 307.83984 z M 337.16409 359.14844 C 335.36739 359.15716 333.56316 359.76652 332.07522 361.00684 C 328.67423 363.84183 328.21486 368.89685 331.04886 372.29785 L 348.15042 392.82031 L 331.04886 413.3418 C 328.47586 416.42879 328.62728 421.10079 331.40628 424.00879 C 334.66928 427.42179 340.34324 427.23442 343.36624 423.60742 L 358.58499 405.34375 L 373.80374 423.60742 C 376.82674 427.23542 382.5007 427.42179 385.7637 424.00879 C 388.5437 421.10179 388.69412 416.43079 386.12112 413.3418 L 369.01956 392.82031 L 386.12112 372.29785 C 388.95512 368.89685 388.49475 363.84183 385.09476 361.00684 C 381.69476 358.17384 376.63974 358.63321 373.80374 362.0332 L 358.58499 380.2959 L 343.36624 362.0332 C 341.77155 360.11958 339.47413 359.13722 337.16409 359.14844 z M 208.9346 359.15039 C 204.5066 359.15039 200.918 362.739 200.918 367.16699 C 200.918 371.59399 204.5056 375.18359 208.9346 375.18359 L 243.13968 375.18359 C 247.56767 375.18359 251.15726 371.59499 251.15726 367.16699 C 251.15726 362.74 247.56867 359.15039 243.13968 359.15039 L 208.9346 359.15039 z M 277.34671 359.15039 C 272.91871 359.15039 269.33011 362.739 269.33011 367.16699 C 269.33011 371.59399 272.91771 375.18359 277.34671 375.18359 L 303.00003 375.18359 C 307.42803 375.18359 311.01663 371.59499 311.01663 367.16699 C 311.01663 362.74 307.42903 359.15039 303.00003 359.15039 L 277.34671 359.15039 z M 208.9346 410.45996 C 204.5066 410.45996 200.918 414.04857 200.918 418.47656 C 200.918 422.90356 204.5056 426.49414 208.9346 426.49414 L 243.13968 426.49414 C 247.56767 426.49414 251.15726 422.90456 251.15726 418.47656 C 251.15726 414.04857 247.56867 410.45996 243.13968 410.45996 L 208.9346 410.45996 z M 277.34671 410.45996 C 272.91871 410.45996 269.33011 414.04857 269.33011 418.47656 C 269.33011 422.90356 272.91771 426.49414 277.34671 426.49414 L 303.00003 426.49414 C 307.42803 426.49414 311.01663 422.90456 311.01663 418.47656 C 311.01663 414.04857 307.42903 410.45996 303.00003 410.45996 L 277.34671 410.45996 z "
     transform="matrix(2,0,0,2,-4.3067,0)" />
</svg>
