<svg
   viewBox="0 0 1024 1024"
   id="icon-document-list"
   xmlns="http://www.w3.org/2000/svg"
   xmlns:svg="http://www.w3.org/2000/svg">
  <path
     style="display:inline;stroke-width:1.59448"
     d="M 447.29869,0.01185814 C 424.10619,-0.16882555 400.55358,1.7955156 377.65653,0.46008125 H 202.8899 C 141.37573,-1.4846554 92.964093,58.835165 100.84242,118.23373 c 0.34942,202.31991 -0.70112,404.67716 0.52696,606.97484 3.83526,53.09521 52.4216,90.81412 103.2488,92.32184 2.09372,30.45537 9.94211,59.52787 36.76438,79.34963 19.71393,16.39464 42.66311,21.6511 66.57527,23.12588 2.00141,30.77987 9.7141,60.23246 36.79871,80.24808 41.39419,34.4246 96.88999,20.3492 146.13689,23.3258 112.44638,-0.3438 224.92829,0.6935 337.35249,-0.527 58.87523,-4.2525 99.00345,-63.5222 91.62327,-119.86735 -0.32763,-153.24004 0.65718,-306.51178 -0.49669,-459.73154 -5.40384,-54.33323 -55.48236,-83.8427 -88.66337,-121.40587 C 814.40568,306.42223 798.72077,290.07472 782.82194,273.97106 765.32577,254.75659 744.17617,237.73925 727.33515,218.67407 711.0317,203.04825 695.34679,186.70074 679.44796,170.59708 661.95176,151.38264 640.80215,134.36529 623.96118,115.30009 587.41079,81.213971 555.65606,41.268907 514.78049,12.434906 493.32326,2.5187765 470.49119,0.19254184 447.29869,0.01185814 Z M 202.8899,76.995186 h 255.11566 c 0.61826,45.937274 -1.28137,92.000724 1.03576,137.852824 6.75714,39.48658 49.24562,43.04021 81.44134,40.72773 h 96.10347 v 459.21063 c -3.1103,34.00711 -41.3677,24.00693 -64.82679,25.51036 H 202.8899 c -34.00842,-3.10936 -24.00947,-41.36712 -25.51238,-64.82679 V 102.50756 C 177.06518,88.862086 189.24442,76.682848 202.8899,76.995186 Z M 713.14546,358.94972 h 26.81464 v 459.21063 c -3.11045,34.00702 -41.36768,24.00696 -64.82678,25.51035 H 306.26387 c -17.86639,-1.63355 -23.48526,-13.02546 -25.10857,-26.81868 113.45184,-0.0105 226.91689,0.49311 340.34267,-0.54715 58.8756,-4.25207 99.00355,-63.52219 91.62326,-119.86738 -0.2405,-112.48983 0.21535,-224.99672 0.0242,-337.48777 z m -193.08321,48.40607 c -2.80391,0.0998 -5.72815,0.51718 -8.76255,1.29016 H 292.17917 c -54.76087,-1.42111 -45.16172,87.69098 7.86409,76.53511 76.47909,-0.50663 153.0593,1.01882 229.47407,-0.77531 47.55294,-8.71656 32.60366,-78.54592 -9.45508,-77.04996 z m 296.45719,54.96791 h 26.81464 v 459.21063 c -3.11045,34.00702 -41.36768,24.00696 -64.82678,25.51035 H 409.63785 c -17.90479,-1.63707 -23.50545,-13.07611 -25.11462,-26.90954 0.99008,0.0464 2.01097,0.0112 2.99622,0.0707 112.44639,-0.34379 224.92829,0.69351 337.3525,-0.52696 58.87522,-4.25255 99.00345,-63.52222 91.62326,-119.86738 -0.2405,-112.4898 0.21536,-224.99675 0.0242,-337.48777 z m -331.86277,80.41364 c -5.9377,6.72198 4.40553,0.7117 0,0 z m 35.40558,17.68866 c -2.80395,0.0998 -5.72809,0.51716 -8.76255,1.29016 H 292.17917 c -54.76171,-1.4224 -45.16081,87.69026 7.86409,76.53511 76.47909,-0.50669 153.05931,1.01902 229.47407,-0.77531 47.55224,-8.71794 32.60422,-78.54641 -9.45508,-77.04996 z m 67.96839,85.68532 c -5.93769,6.72198 4.40553,0.7117 0,0 z" />
</svg>
