<svg
   viewBox="0 0 1024 1024"
   id="icon-file-import"
   xmlns="http://www.w3.org/2000/svg"
   xmlns:svg="http://www.w3.org/2000/svg">
  <path
     d="M 256,128 C 256,57.4 313.4,0 384,0 h 320 v 256 c 0,35.4 28.6,64 64,64 h 256 v 576 c 0,70.6 -57.4,128 -128,128 H 384 C 313.4,1024 256,966.6 256,896 V 672 h 348.2 l -78,78 c -18.8,18.8 -18.8,49.2 0,67.8 18.8,18.6 49.2,18.8 67.8,0 l 160,-160 C 772.8,639 772.8,608.6 754,590 L 594,430 c -18.8,-18.8 -49.2,-18.8 -67.8,0 -18.6,18.8 -18.8,49.2 0,67.8 l 78,78 H 256 Z m 0,448 v 96 H 48 C 21.4,672 0,650.6 0,624 0,597.4 21.4,576 48,576 Z M 1024,256 H 768 V 0 Z"
     style="stroke-width:2" />
</svg>
