<svg 
   viewBox="0 0 1024 1024" 
   id="icon-image-carousel"
   xmlns="http://www.w3.org/2000/svg"
   xmlns:svg="http://www.w3.org/2000/svg">
   <path 
      style="stroke-width:10.125" 
      d="M 315.5 250 C 279.32766 250 250 279.32766 250 315.5 L 250 708.5 C 250 744.67234 279.32766 774 315.5 774 L 708.5 774 C 744.67234 774 774 744.67234 774 708.5 L 774 315.5 C 774 279.32766 744.67234 250 708.5 250 L 315.5 250 z M 381 315.5 C 417.17234 315.5 446.5 344.82766 446.5 381 C 446.5 417.17234 417.17234 446.5 381 446.5 C 344.82766 446.5 315.5 417.17234 315.5 381 C 315.5 344.82766 344.82766 315.5 381 315.5 z M 381 348.25 C 362.92202 348.25 348.25 362.92202 348.25 381 C 348.25 399.07798 362.92202 413.75 381 413.75 C 399.07798 413.75 413.75 399.07798 413.75 381 C 413.75 362.92202 399.07798 348.25 381 348.25 z M 40.5 355.80078 C 18.133958 355.80078 0 373.93473 0 396.30078 L 0 639.30078 C 0 661.66683 18.133958 679.80078 40.5 679.80078 L 225.1582 679.80078 L 225.1582 653.45508 L 156.57227 583.9668 L 225.1582 515.38281 L 225.1582 355.80078 L 40.5 355.80078 z M 795.39453 355.80078 L 795.39453 399.06836 C 810.52103 404.93994 821.26367 419.60054 821.26367 436.80078 C 821.26367 454.00102 810.52103 468.66163 795.39453 474.5332 L 795.39453 562.2793 L 800.45703 557.74414 L 902.27344 659.55078 L 795.39453 659.55078 L 795.39453 679.80078 L 983.26367 679.80078 C 1005.6298 679.80078 1023.7637 661.66683 1023.7637 639.30078 L 1023.7637 396.30078 C 1023.7637 373.93473 1005.6298 355.80078 983.26367 355.80078 L 795.39453 355.80078 z M 81 396.30078 C 103.36604 396.30078 121.5 414.43473 121.5 436.80078 C 121.5 459.16683 103.36604 477.30078 81 477.30078 C 58.633958 477.30078 40.5 459.16683 40.5 436.80078 C 40.5 414.43473 58.633958 396.30078 81 396.30078 z M 81 416.55078 C 69.822044 416.55078 60.75 425.62282 60.75 436.80078 C 60.75 447.97874 69.822044 457.05078 81 457.05078 C 92.177956 457.05078 101.25 447.97874 101.25 436.80078 C 101.25 425.62282 92.177956 416.55078 81 416.55078 z M 795.39453 422.86523 L 795.39453 450.73633 C 798.85649 447.10242 801.01367 442.21218 801.01367 436.80078 C 801.01367 431.3894 798.85649 426.49914 795.39453 422.86523 z M 643 479.23438 L 741.25 577.48438 L 741.25 708.5 C 741.25 726.57798 726.57798 741.25 708.5 741.25 L 623.87305 741.25 L 503.22266 619.00977 L 643 479.23438 z M 942.76367 497.54102 L 1003.5137 558.29102 L 1003.5137 639.30078 C 1003.5137 650.47874 994.44163 659.55078 983.26367 659.55078 L 930.9375 659.55078 L 856.33594 583.9668 L 942.76367 497.54102 z M 100.69336 557.74414 L 202.50977 659.55078 L 40.5 659.55078 C 29.322044 659.55078 20.25 650.47874 20.25 639.30078 L 20.25 629.79297 L 100.69336 557.74414 z M 412.84961 576.59961 L 577.51562 741.25 L 315.5 741.25 C 297.42202 741.25 282.75 726.57798 282.75 708.5 L 282.75 693.12305 L 412.84961 576.59961 z " 
   />
</svg>
