<svg
   viewBox="0 0 1024 1024"
   id="icon-image-card-grid"
   xmlns="http://www.w3.org/2000/svg"
   xmlns:svg="http://www.w3.org/2000/svg">
   <path
      style="stroke-width:0.9375"
      d="M 60 64 C 26.906283 64 0 90.906283 0 124 L 0 424 C 0 457.09372 26.906283 484 60 484 L 420 484 C 453.09372 484 480 457.09372 480 424 L 480 124 C 480 90.906283 453.09372 64 420 64 L 60 64 z M 604 64 C 570.90628 64 544 90.906283 544 124 L 544 424 C 544 457.09372 570.90628 484 604 484 L 964 484 C 997.09372 484 1024 457.09372 1024 424 L 1024 124 C 1024 90.906283 997.09372 64 964 64 L 604 64 z M 105 124 A 45 45 0 0 1 105 214 A 45 45 0 0 1 105 124 z M 649 124 A 45 45 0 0 1 649 214 A 45 45 0 0 1 649 124 z M 285 214 C 292.40624 214 299.34375 217.65626 303.5625 223.84375 L 416.0625 388.84375 C 420.75 395.68749 421.21875 404.59376 417.375 412 C 413.53125 419.40624 405.84374 424 397.5 424 L 202.5 424 L 172.5 424 L 82.5 424 C 73.875009 424 65.999996 419.03124 62.25 411.25 C 58.500004 403.46876 59.531255 394.18749 64.96875 387.4375 L 124.96875 312.4375 C 129.1875 307.09376 135.75001 304 142.5 304 C 149.24999 304 155.71875 307.09376 160.03125 312.4375 L 184.875 343.46875 L 266.4375 223.84375 C 270.5625 217.65626 277.59376 214 285 214 z M 829 214 C 836.40624 214 843.34375 217.65626 847.5625 223.84375 L 960.0625 388.84375 C 964.75 395.68749 965.21875 404.59376 961.375 412 C 957.53125 419.40624 949.84374 424 941.5 424 L 746.5 424 L 716.5 424 L 626.5 424 C 617.87501 424 610 419.03124 606.25 411.25 C 602.5 403.46876 603.53126 394.18749 608.96875 387.4375 L 668.96875 312.4375 C 673.1875 307.09376 679.75001 304 686.5 304 C 693.24999 304 699.71875 307.09376 704.03125 312.4375 L 728.875 343.46875 L 810.4375 223.84375 C 814.5625 217.65626 821.59376 214 829 214 z M 60 544 C 26.906283 544 0 570.90628 0 604 L 0 904 C 0 937.09372 26.906283 964 60 964 L 420 964 C 453.09372 964 480 937.09372 480 904 L 480 604 C 480 570.90628 453.09372 544 420 544 L 60 544 z M 604 544 C 570.90628 544 544 570.90628 544 604 L 544 904 C 544 937.09372 570.90628 964 604 964 L 964 964 C 997.09372 964 1024 937.09372 1024 904 L 1024 604 C 1024 570.90628 997.09372 544 964 544 L 604 544 z M 105 604 A 45 45 0 0 1 105 694 A 45 45 0 0 1 105 604 z M 649 604 A 45 45 0 0 1 649 694 A 45 45 0 0 1 649 604 z M 285 694 C 292.40624 694 299.34375 697.65626 303.5625 703.84375 L 416.0625 868.84375 C 420.75 875.68749 421.21875 884.59376 417.375 892 C 413.53125 899.40624 405.84374 904 397.5 904 L 202.5 904 L 172.5 904 L 82.5 904 C 73.875009 904 65.999996 899.03124 62.25 891.25 C 58.500004 883.46876 59.531255 874.18749 64.96875 867.4375 L 124.96875 792.4375 C 129.1875 787.09376 135.75001 784 142.5 784 C 149.24999 784 155.71875 787.09376 160.03125 792.4375 L 184.875 823.46875 L 266.4375 703.84375 C 270.5625 697.65626 277.59376 694 285 694 z M 829 694 C 836.40624 694 843.34375 697.65626 847.5625 703.84375 L 960.0625 868.84375 C 964.75 875.68749 965.21875 884.59376 961.375 892 C 957.53125 899.40624 949.84374 904 941.5 904 L 746.5 904 L 716.5 904 L 626.5 904 C 617.87501 904 610 899.03124 606.25 891.25 C 602.5 883.46876 603.53126 874.18749 608.96875 867.4375 L 668.96875 792.4375 C 673.1875 787.09376 679.75001 784 686.5 784 C 693.24999 784 699.71875 787.09376 704.03125 792.4375 L 728.875 823.46875 L 810.4375 703.84375 C 814.5625 697.65626 821.59376 694 829 694 z " 
   />
</svg>
