<svg
   viewBox="0 0 1024 1024"
   id="icon-image-text-card"
   xmlns="http://www.w3.org/2000/svg"
   xmlns:svg="http://www.w3.org/2000/svg">
  <path
     d="M 128,64 C 57.40007,64 0,121.40007 0,192 v 640 c 0,70.59992 57.40007,128 128,128 h 768 c 70.59992,0 128,-57.40008 128,-128 V 192 C 1024,121.40007 966.59992,64 896,64 Z m 96,128 a 96,96 0 0 1 0,192 96,96 0 0 1 0,-192 z m 171.86328,4.1914 h 487.92968 l 6.60938,140.16406 h -16.7461 c -3.23226,-24.68284 -7.63962,-42.31616 -13.22264,-52.89452 -9.10916,-17.04292 -21.30608,-29.53108 -36.58594,-37.46484 -14.98602,-8.22762 -34.82106,-12.33986 -59.5039,-12.33986 h -84.1836 V 452.7539 L 887.60156,757 c 10,14.59998 10.99686,33.59846 2.79688,49.39844 C 882.19844,822.19842 865.79998,832 848,832 H 432 368 176 c -18.39998,0 -35.19923,-10.59924 -43.19922,-27.19922 -7.99999,-16.59998 -5.79921,-36.4008 5.80078,-50.80078 l 128,-160 c 9,-11.39998 22.99846,-18 37.39844,-18 14.39998,0 28.19844,6.60002 37.39844,18 l 53,66.19922 174,-255.19922 c 6.43086,-9.6463 16.18728,-16.36656 27.1328,-19.3086 V 233.65624 H 523.6875 c -27.91512,0 -47.75016,2.05808 -59.5039,6.17188 -15.27986,5.58304 -28.35436,16.30824 -39.22656,32.17578 -10.87222,15.86756 -17.33764,37.31798 -19.39454,64.35156 h -16.75 z m 199.66796,189.5 v 304.59766 c 0,33.49816 -3.23074,54.94858 -9.6953,64.35156 -10.57836,15.27986 -28.5029,22.92188 -53.77344,22.92188 h -21.15626 v 16.3086 H 764.34376 V 777.5625 H 743.6289 c -23.21362,0 -40.40426,-6.1742 -51.5703,-18.51562 -7.93378,-9.10916 -11.89844,-32.02738 -11.89844,-68.75782 V 452.7539 L 647.60156,405 C 638.60158,391.80002 623.79998,384 608,384 c -4.25366,0 -8.43642,0.60756 -12.46876,1.6914 z"
     style="stroke-width:2" />
</svg>
