<svg
   viewBox="0 0 1024 1024"
   id="icon-laptop-code"
   xmlns="http://www.w3.org/2000/svg"
   xmlns:svg="http://www.w3.org/2000/svg">
  <path
     d="M 102.4,256.4 C 102.4,199.92 148.32,154 204.8,154 h 614.4 c 56.48,0 102.4,45.92 102.4,102.4 V 666 H 819.2 V 256.4 H 204.8 V 666 H 102.4 Z M 0,747.92 C 0,730.96 13.76,717.2 30.72,717.2 h 962.56 c 16.96,0 30.72,13.76 30.72,30.72 0,67.84 -55.04,122.88 -122.88,122.88 H 122.88 C 55.04,870.8 0,815.76 0,747.92 Z M 449.6,437.2 400,486.8 l 49.6,49.6 c 15.04,15.04 15.04,39.36 0,54.24 -15.04,14.88 -39.36,15.04 -54.24,0 l -76.8,-76.8 c -15.04,-15.04 -15.04,-39.36 0,-54.24 l 76.8,-76.8 c 15.04,-15.04 39.36,-15.04 54.24,0 14.88,15.04 15.04,39.36 0,54.24 z m 179.2,-54.4 76.8,76.8 c 15.04,15.04 15.04,39.36 0,54.24 l -76.8,76.8 c -15.04,15.04 -39.36,15.04 -54.24,0 -14.88,-15.04 -15.04,-39.36 0,-54.24 l 49.6,-49.6 -49.6,-49.6 c -15.04,-15.04 -15.04,-39.36 0,-54.24 15.04,-14.88 39.36,-15.04 54.24,0 z"
     style="stroke-width:1.6" />
</svg>
