<svg
   viewBox="0 0 1024 1024"
   id="icon-map-marker"
   xmlns="http://www.w3.org/2000/svg"
   xmlns:svg="http://www.w3.org/2000/svg">
  <path
     d="m 725.33333,278.33329 c 0,97.06665 -129.95555,270.04439 -187.02222,341.33326 -13.68889,17.06666 -39.11111,17.06666 -52.62222,0 C 428.62222,548.37768 298.66667,375.39994 298.66667,278.33329 298.66667,160.46665 394.13333,65 512,65 c 117.86667,0 213.33333,95.46665 213.33333,213.33329 z m 14.22223,142.93331 c 6.22222,-12.26667 11.91111,-24.53334 17.06666,-36.62223 0.88889,-2.13333 1.77778,-4.44444 2.66667,-6.57777 L 965.51111,295.57773 C 993.6,284.37773 1024,304.99995 1024,335.22216 v 481.42212 c 0,17.42223 -10.6667,33.06667 -26.84444,39.64445 l -257.6,102.9333 z M 244.62222,310.86662 c 4.26667,25.06665 12.8,50.3111 22.75556,73.77775 5.15555,12.08889 10.84444,24.35556 17.06666,36.62223 V 868.19983 L 58.488889,958.6887 C 30.4,969.8887 0,949.26649 0,919.04426 V 437.62214 C 0,420.19993 10.666667,404.55549 26.844444,397.97771 L 244.8,310.86662 Z M 582.75556,655.2221 c 24.71111,-30.93333 63.46666,-81.24443 99.91111,-136.88886 v 443.1999 L 341.33333,863.93316 V 518.33324 c 36.44445,55.64443 75.2,105.95553 99.91111,136.88886 36.44445,45.5111 105.06667,45.5111 141.51112,0 z M 512,335.22216 a 71.111111,71.111096 0 1 0 0,-142.22219 71.111111,71.111096 0 1 0 0,142.22219 z"
     style="stroke-width:1.77778" />
</svg>
