<svg
  viewBox="0 0 1024 1024"
  id="icon-social-media"
  xmlns="http://www.w3.org/2000/svg"
  xmlns:svg="http://www.w3.org/2000/svg">
  <path
    style="stroke-width:1.07083"
    d="M 240 30 C 200.40606 30 160.81231 30.563129 141.00195 31.6875 C 102.66624 33.507911 68.614 42.288006 40.451172 70.34375 C 12.288345 98.399495 3.614994 132.45174 1.6875 170.89453 C -0.56124283 210.51524 -0.56124283 329.26992 1.6875 368.89062 C 3.507911 407.33343 12.288345 441.38565 40.451172 469.44141 C 68.614 497.49715 102.55916 506.27953 141.00195 508.20703 C 180.62266 510.45577 299.37734 510.45577 338.99805 508.20703 C 377.44084 506.38662 411.49309 497.60423 439.54883 469.44141 C 467.60457 441.38565 476.38501 407.33343 478.3125 368.89062 C 480.56125 329.26992 480.56125 210.62266 478.3125 171.00195 C 476.49209 132.55916 467.71165 98.506917 439.54883 70.451172 C 411.49309 42.395428 377.44084 33.614994 338.99805 31.6875 C 319.18769 30.563129 279.59394 30 240 30 z M 822.01953 30 C 753.37585 30 708.50586 71.607107 708.50586 146.92578 L 708.50586 213.13086 L 632.20312 213.13086 L 632.20312 300 L 708.50586 300 L 708.50586 510 L 802.41602 510 L 802.41602 300 L 872.4375 300 L 885.76953 213.13086 L 802.41602 213.13086 L 802.41602 156.75977 C 802.41602 132.99416 814.05941 109.82813 851.39062 109.82812 L 889.28516 109.82812 L 889.28516 35.869141 C 889.28516 35.869141 854.89762 30 822.01953 30 z M 207.66602 72.978516 C 220.09601 73.053808 231.32547 73.234375 240.05273 73.234375 C 274.96179 73.234375 350.02737 70.451419 381.50977 82.873047 C 402.49803 91.225521 418.66739 107.39489 427.12695 128.49023 C 439.65566 160.07972 436.76562 235.03821 436.76562 269.94727 C 436.76562 304.85632 439.65566 379.91995 427.12695 411.40234 C 418.77448 432.39061 402.60511 448.56192 381.50977 457.02148 C 349.92028 469.55019 274.96179 466.6582 240.05273 466.6582 C 205.14368 466.6582 130.08006 469.44311 98.597656 457.02148 C 77.609389 448.669 61.438072 432.4977 52.978516 411.40234 C 40.449805 379.81287 43.341797 304.85632 43.341797 269.94727 C 43.341797 235.03821 40.556888 159.97263 52.978516 128.49023 C 61.330989 107.50197 77.502306 91.332603 98.597656 82.873047 C 122.28977 73.476514 170.37604 72.752637 207.66602 72.978516 z M 368.125 113.17773 C 352.27672 113.17773 339.42578 126.02672 339.42578 141.875 C 339.42578 157.72328 352.16964 170.57422 368.125 170.57422 C 383.97328 170.57422 396.82227 157.83036 396.82227 141.875 C 396.82227 126.02672 383.97328 113.17773 368.125 113.17773 z M 240.05273 146.9082 C 171.94795 146.9082 117.01563 201.84248 117.01562 269.94727 C 117.01562 338.05205 171.94795 392.98438 240.05273 392.98438 C 308.15752 392.98438 363.0918 338.05205 363.0918 269.94727 C 363.0918 201.84248 308.15752 146.9082 240.05273 146.9082 z M 240.05273 189.95508 C 284.17093 189.95508 320.04492 225.82907 320.04492 269.94727 C 320.04492 314.06546 284.06385 349.9375 240.05273 349.9375 C 196.04163 349.9375 160.0625 314.06546 160.0625 269.94727 C 160.0625 225.82907 195.93454 189.95508 240.05273 189.95508 z M 593.43164 540.58594 A 57.632147 57.632132 0 0 0 544 597.61719 C 544 629.43858 569.81141 655.79492 601.63281 655.79492 C 633.44349 655.79492 659.26367 629.43858 659.26367 597.61719 A 57.632147 57.632132 0 0 0 593.43164 540.58594 z M 0 586 L 181.38281 823.28906 L 9.3867188 1019.8984 L 83.128906 1019.8984 L 215.80273 868.24219 L 331.89062 1019.8984 L 480 1019.8984 L 290.79492 769.78125 L 451.62891 586 L 377.99219 586 L 256.6875 724.61719 L 151.86523 586 L 0 586 z M 85.841797 627.7207 L 129.64844 627.7207 L 392.9082 975.88281 L 352.125 975.88281 L 85.841797 627.7207 z M 904.77148 691.47461 C 856.35367 691.47461 823.90094 718.04606 810.61523 743.22461 L 809.2207 743.22461 L 809.2207 699.50977 L 713.7793 699.50977 L 713.7793 1019.9746 L 813.18555 1019.9746 L 813.18555 861.29492 C 813.18555 819.50926 821.11428 779.11719 872.85352 779.11719 C 923.84275 779.11719 924.59375 826.79608 924.59375 863.97461 L 924.59375 1019.9746 L 1023.8926 1019.9746 L 1024 1019.9746 L 1024 843.9375 C 1024 757.79475 1005.4856 691.47461 904.77148 691.47461 z M 551.92773 699.50977 L 551.92773 1019.9746 L 651.44336 1019.9746 L 651.44336 699.50977 L 551.92773 699.50977 z " 
  />
</svg>
