<svg
   viewBox="0 0 24 24"
   id="icon-table"
   fill="none"
   version="1.1"
   xmlns="http://www.w3.org/2000/svg"
   xmlns:svg="http://www.w3.org/2000/svg">

  <path
     d="M 1.2677583,7.9754479 H 22.732241 M 1.2677583,16.024628 H 22.732241 M 8.422586,7.9754479 V 22.732277 M 15.577415,7.9754479 V 22.732277 m -10.4937486,0 H 18.916333 c 1.335687,0 2.00359,0 2.51373,-0.292453 0.448726,-0.257171 0.813623,-0.66768 1.04222,-1.172497 0.259958,-0.573906 0.259958,-1.325298 0.259958,-2.827946 V 5.5606939 c 0,-1.5026477 0,-2.253985 -0.259958,-2.8279184 C 22.243686,2.2279176 21.878789,1.817463 21.430063,1.560238 20.919923,1.2677979 20.25202,1.2677979 18.916333,1.2677979 H 5.0836664 c -1.3356872,0 -2.0035426,0 -2.5137056,0.2924401 C 2.121198,1.817463 1.7563495,2.2279176 1.527705,2.7327755 1.2677583,3.3067089 1.2677583,4.0580327 1.2677583,5.5606939 V 18.439381 c 0,1.502648 0,2.25404 0.2599467,2.827946 0.2286445,0.504817 0.593493,0.915326 1.0422558,1.172497 0.510163,0.292453 1.1780066,0.292453 2.5137056,0.292453 z"
     stroke="currentColor"
     stroke-width="2.52961"
     stroke-linecap="round"
     stroke-linejoin="round"
    />
</svg>
