<svg
   viewBox="0 0 1024 1024"
   id="icon-text-card-grid"
   xmlns="http://www.w3.org/2000/svg"
   xmlns:svg="http://www.w3.org/2000/svg">
  <path
     style="stroke-width:32"
     d="M 64 0 C 28.640035 0 3.1796756e-15 28.640035 0 64 L 0 384 C 0 419.32796 28.640035 448 64 448 L 384 448 C 419.32796 448 448 419.32796 448 384 L 448 64 C 448 28.640035 419.32796 0 384 0 L 64 0 z M 640 0 C 604.64004 0 576 28.640035 576 64 L 576 384 C 576 419.32796 604.64004 448 640 448 L 960 448 C 995.35996 448 1024 419.32796 1024 384 L 1024 64 C 1024 28.640035 995.35996 3.1796756e-15 960 0 L 640 0 z M 64 64 L 384 64 L 384 384 L 64 384 L 64 64 z M 640 64 L 960 64 L 960 384 L 640 384 L 640 64 z M 710.78516 98.982422 L 710.78516 349.51953 L 806.31836 349.51953 C 822.26886 349.51953 835.7129 348.15234 846.65039 345.41797 C 857.70181 342.56966 866.8724 338.4121 874.16406 332.94336 C 881.45572 327.47461 887.55209 319.7272 892.45117 309.70117 C 897.46419 299.56121 899.9707 288.62369 899.9707 276.88867 C 899.9707 262.30535 895.86913 249.65884 887.66602 238.94922 C 879.57683 228.23959 867.95571 220.6621 852.80273 216.21875 C 864.53775 210.40821 873.31055 202.77473 879.12109 193.31836 C 884.93163 183.86199 887.83594 173.77994 887.83594 163.07031 C 887.83594 151.56316 884.53189 140.5677 877.92383 130.08594 C 871.42969 119.49024 862.37304 111.68684 850.75195 106.67383 C 839.2448 101.54688 823.9199 98.982422 804.7793 98.982422 L 710.78516 98.982422 z M 202.83984 102.76172 L 106.62305 353.29883 L 141.82812 353.29883 L 169.34375 277.41992 L 274.10352 277.41992 L 303.32812 353.29883 L 341.0957 353.29883 L 238.55664 102.76172 L 202.83984 102.76172 z M 743.93945 128.54883 L 794.01367 128.54883 C 812.01496 128.54883 824.71746 129.74414 832.12305 132.13672 C 839.52864 134.41536 845.22526 138.7448 849.21289 145.125 C 853.20052 151.39127 855.19531 158.68295 855.19531 167 C 855.19531 175.77278 853.03059 183.06446 848.70117 188.875 C 844.48568 194.68554 838.16145 198.84505 829.73047 201.35156 C 823.35027 203.28841 812.81249 204.25586 798.11523 204.25586 L 743.93945 204.25586 L 743.93945 128.54883 z M 219.92969 129.08008 C 223.80338 142.63801 229.72787 159.95575 237.70312 181.0332 L 263.84961 250.41797 L 178.91406 250.41797 L 206.42773 176.93164 C 212.23828 161.09507 216.73959 145.14452 219.92969 129.08008 z M 743.93945 233.82227 L 801.875 233.82227 C 817.8255 233.82227 830.01628 235.24545 838.44727 238.09375 C 846.99218 240.82812 853.65625 245.67123 858.44141 252.62109 C 863.22656 259.45702 865.61914 267.54623 865.61914 276.88867 C 865.61914 284.86392 863.9681 291.92774 860.66406 298.08008 C 857.36003 304.11848 853.14453 308.73177 848.01758 311.92188 C 842.89063 315.11198 836.51041 317.39063 828.87695 318.75781 C 824.54753 319.55534 817.02798 319.95508 806.31836 319.95508 L 743.93945 319.95508 L 743.93945 233.82227 z M 64 576 C 28.640035 576 3.1796756e-15 604.64004 0 640 L 0 960 C 0 995.35996 28.640035 1024 64 1024 L 384 1024 C 419.32796 1024 448 995.35996 448 960 L 448 640 C 448 604.64004 419.32796 576 384 576 L 64 576 z M 640 576 C 604.64004 576 576 604.64004 576 640 L 576 960 C 576 995.35996 604.64004 1024 640 1024 L 960 1024 C 995.35996 1024 1024 995.35996 1024 960 L 1024 640 C 1024 604.64004 995.35996 576 960 576 L 640 576 z M 64 640 L 384 640 L 384 960 L 64 960 L 64 640 z M 640 640 L 960 640 L 960 960 L 640 960 L 640 640 z M 234.83008 671.05664 C 212.72724 671.05664 192.44725 676.12761 173.99023 686.26758 C 155.64715 696.29361 141.46158 711.04689 131.43555 730.5293 C 121.52345 749.89777 116.56836 772.62828 116.56836 798.71875 C 116.56836 822.64451 120.95378 845.03127 129.72656 865.88086 C 138.61327 886.73045 151.48765 902.681 168.34961 913.73242 C 185.3255 924.66991 207.31448 930.13867 234.31641 930.13867 C 260.40687 930.13867 282.45379 923.01887 300.45508 908.77734 C 318.57029 894.42189 331.10287 873.62823 338.05273 846.39844 L 304.89844 838.02539 C 300.34115 859.10284 291.62434 874.99545 278.75 885.70508 C 265.87566 896.4147 250.15298 901.76953 231.58203 901.76953 C 216.31512 901.76953 202.1315 897.83984 189.0293 889.97852 C 175.9271 882.1172 166.24283 870.26821 159.97656 854.43164 C 153.82422 838.48114 150.74805 819.85219 150.74805 798.54688 C 150.74805 782.02671 153.36849 766.02017 158.60938 750.52539 C 163.85026 734.91668 172.90691 722.49804 185.78125 713.26953 C 198.76952 704.04102 214.89195 699.42578 234.14648 699.42578 C 250.89451 699.42578 264.79428 703.58529 275.8457 711.90234 C 286.89712 720.21939 295.32813 733.49155 301.13867 751.7207 L 333.7793 744.03125 C 327.0573 720.90302 315.15233 702.95767 298.0625 690.19727 C 280.97267 677.43686 259.89516 671.05664 234.83008 671.05664 z M 702.81836 675.33008 L 702.81836 925.86719 L 793.22266 925.86719 C 808.37564 925.86719 821.76368 924.44205 833.38477 921.59375 C 845.11978 918.74545 855.0879 914.58789 863.29102 909.11914 C 871.60806 903.53646 879.24154 895.95897 886.19141 886.38867 C 893.14127 876.70444 898.8379 864.51366 903.28125 849.81641 C 907.7246 835.11916 909.94727 818.25714 909.94727 799.23047 C 909.94727 776.89976 906.64322 757.0755 900.03516 739.75781 C 893.54102 722.32619 883.68488 708.02863 870.46875 696.86328 C 860.32879 688.20444 848.08202 682.222 833.72656 678.91797 C 823.47267 676.52539 808.6035 675.33008 789.12109 675.33008 L 702.81836 675.33008 z M 735.97266 704.89453 L 788.60938 704.89453 C 808.31964 704.89453 822.6172 706.60352 831.50391 710.02148 C 843.80858 714.80664 854.23438 724.26303 862.7793 738.39062 C 871.43814 752.40428 875.76758 772.51435 875.76758 798.71875 C 875.76758 817.63149 873.54492 833.75197 869.10156 847.08203 C 864.77214 860.29816 858.67773 870.8379 850.81641 878.69922 C 845.23373 884.2819 837.71418 888.61133 828.25781 891.6875 C 818.91537 894.76367 805.98306 896.30078 789.46289 896.30078 L 735.97266 896.30078 L 735.97266 704.89453 z " />
</svg>
