<svg
   viewBox="0 0 1024 1024"
   id="icon-text-card"
   xmlns="http://www.w3.org/2000/svg"
   xmlns:svg="http://www.w3.org/2000/svg">
  <path
     style="stroke-width:51.19"
     d="M 153.57031 50 A 153.57 153.57 0 0 0 0 203.57031 L 0 817.84961 A 153.57 153.57 0 0 0 153.57031 971.41992 L 870.23047 971.41992 A 153.57 153.57 0 0 0 1023.8008 817.84961 L 1023.8008 203.57031 A 153.57 153.57 0 0 0 870.23047 50 L 153.57031 50 z M 153.57031 152.38086 L 870.23047 152.38086 A 51.19 51.19 0 0 1 921.41992 203.57031 L 921.41992 817.84961 A 51.19 51.19 0 0 1 870.23047 869.03906 L 153.57031 869.03906 A 51.19 51.19 0 0 1 102.38086 817.84961 L 102.38086 203.57031 A 51.19 51.19 0 0 1 153.57031 152.38086 z M 368.22656 286.07031 L 228.03125 650.98633 C 215.8829 683.03083 204.81136 704.28454 194.81836 714.74805 C 189.91983 719.9798 179.14328 724.23015 162.48828 727.5 L 162.48828 739.59766 L 287.98828 739.59766 L 287.98828 727.5 C 268.78605 725.97407 256.24738 722.70517 250.36914 717.69141 C 244.68685 712.45965 241.8457 706.46471 241.8457 699.70703 C 241.8457 691.20543 245.17589 678.34424 251.83789 661.12305 L 278.87695 591.14648 L 433.18164 591.14648 L 457.2832 654.91016 C 465.12085 675.61919 469.03906 690.76782 469.03906 700.35938 C 469.03906 707.55304 466.19792 713.65811 460.51562 718.67188 C 455.02927 723.68564 444.34975 726.62804 428.47852 727.5 L 428.47852 739.59766 L 585.72266 739.59766 L 585.72266 727.5 C 569.45954 726.41005 556.72291 721.50475 547.51367 712.78516 C 538.50038 703.84757 528.40888 684.55677 517.24023 654.91016 L 378.51367 286.07031 L 368.22656 286.07031 z M 357.35156 387.76172 L 424.95117 566.95117 L 287.98828 566.95117 L 357.35156 387.76172 z M 722.68555 431.25195 C 691.5309 431.25195 667.33071 439.09966 650.08789 454.79492 C 632.84507 470.49019 624.22461 487.71186 624.22461 506.45898 C 624.22461 516.26853 626.47773 524.00609 630.98438 529.67383 C 635.68696 535.34156 641.66424 538.17578 648.91406 538.17578 C 656.35983 538.17578 662.33515 535.4517 666.8418 530.00195 C 671.54439 524.55221 673.89648 516.81269 673.89648 506.78516 L 673.30859 487.82031 C 673.30859 478.22876 677.0308 469.72611 684.47656 462.31445 C 691.72639 454.9028 701.52289 451.19727 713.86719 451.19727 C 730.13031 451.19727 742.47492 456.75557 750.90039 467.87305 C 759.5218 478.99053 763.83203 499.48305 763.83203 529.34766 L 763.83203 541.11914 C 717.58991 559.86626 684.47624 575.77999 664.49023 588.85938 C 644.70017 601.93876 630.78945 615.88958 622.75586 630.71289 C 616.87762 641.39439 613.9375 654.03726 613.9375 668.64258 C 613.9375 691.7495 619.91282 710.3873 631.86523 724.55664 C 644.01359 738.72598 659.39535 745.81055 678.00977 745.81055 C 689.96218 745.81055 701.22972 743.08646 711.81055 737.63672 C 718.86443 733.93089 736.20432 720.19643 763.83203 696.43555 C 764.02797 714.31071 766.9681 726.95553 772.65039 734.36719 C 778.33268 741.77884 785.97505 745.48438 795.57617 745.48438 C 815.56217 745.48438 836.52724 729.13402 858.47266 696.43555 L 858.47266 678.125 C 846.71619 691.20439 838.78078 699.16223 834.66602 701.99609 C 832.31472 703.52202 829.57061 704.2832 826.43555 704.2832 C 823.49643 704.2832 820.85129 703.19357 818.5 701.01367 C 816.34465 698.83377 814.77658 694.58342 813.79688 688.26172 C 812.81717 681.72202 812.32812 664.17385 812.32812 635.61719 L 812.32812 533.92578 C 812.32813 504.93314 810.56405 485.74856 807.03711 476.375 C 801.55076 461.98767 793.02733 451.41589 781.4668 444.6582 C 766.18338 435.72062 746.59037 431.25195 722.68555 431.25195 z M 763.83203 561.06445 L 763.83203 675.18164 C 739.53532 696.98062 719.94231 707.88086 705.05078 707.88086 C 694.07807 707.88086 684.3786 702.75724 675.95312 692.51172 C 667.52765 682.04821 663.31445 668.97066 663.31445 653.27539 C 663.31445 640.84997 666.64659 629.40492 673.30859 618.94141 C 679.97059 608.4779 691.04018 598.45093 706.51953 588.85938 C 715.14094 583.40963 734.24491 574.14384 763.83203 561.06445 z " />
</svg>
