<svg
   viewBox="0 0 1024 1024"
   id="icon-video"
   xmlns="http://www.w3.org/2000/svg"
   xmlns:svg="http://www.w3.org/2000/svg">
  <path
     d="M 0,192 C 0,121.4 57.4,64 128,64 h 768 c 70.6,0 128,57.4 128,128 v 640 c 0,70.6 -57.4,128 -128,128 H 128 C 57.4,960 0,902.6 0,832 Z m 96,544 v 64 c 0,17.6 14.4,32 32,32 h 64 c 17.6,0 32,-14.4 32,-32 v -64 c 0,-17.6 -14.4,-32 -32,-32 h -64 c -17.6,0 -32,14.4 -32,32 z m 736,-32 c -17.6,0 -32,14.4 -32,32 v 64 c 0,17.6 14.4,32 32,32 h 64 c 17.6,0 32,-14.4 32,-32 v -64 c 0,-17.6 -14.4,-32 -32,-32 z M 96,480 v 64 c 0,17.6 14.4,32 32,32 h 64 c 17.6,0 32,-14.4 32,-32 v -64 c 0,-17.6 -14.4,-32 -32,-32 h -64 c -17.6,0 -32,14.4 -32,32 z m 736,-32 c -17.6,0 -32,14.4 -32,32 v 64 c 0,17.6 14.4,32 32,32 h 64 c 17.6,0 32,-14.4 32,-32 v -64 c 0,-17.6 -14.4,-32 -32,-32 z M 96,224 v 64 c 0,17.6 14.4,32 32,32 h 64 c 17.6,0 32,-14.4 32,-32 v -64 c 0,-17.6 -14.4,-32 -32,-32 h -64 c -17.6,0 -32,14.4 -32,32 z m 736,-32 c -17.6,0 -32,14.4 -32,32 v 64 c 0,17.6 14.4,32 32,32 h 64 c 17.6,0 32,-14.4 32,-32 v -64 c 0,-17.6 -14.4,-32 -32,-32 z m -512,64 v 128 c 0,35.4 28.6,64 64,64 h 256 c 35.4,0 64,-28.6 64,-64 V 256 c 0,-35.4 -28.6,-64 -64,-64 H 384 c -35.4,0 -64,28.6 -64,64 z m 64,320 c -35.4,0 -64,28.6 -64,64 v 128 c 0,35.4 28.6,64 64,64 h 256 c 35.4,0 64,-28.6 64,-64 V 640 c 0,-35.4 -28.6,-64 -64,-64 z"
     style="stroke-width:2" />
</svg>
