<svg 
   viewBox="0 0 1024 1024" 
   id="icon-mail-settings"
   xmlns="http://www.w3.org/2000/svg"
   xmlns:svg="http://www.w3.org/2000/svg">
  <path 
    style="stroke-width:1.7048" 
    d="M 81.830078 64 C 36.653002 64 -9.4738937e-15 100.653 0 145.83008 C 0 171.57248 12.104399 195.78129 32.732422 211.29492 L 403.69531 489.51758 C 423.12998 504.00834 449.72549 504.00834 469.16016 489.51758 L 840.12305 211.29492 C 860.75107 195.78129 872.85547 171.57248 872.85547 145.83008 C 872.85547 100.653 836.20247 64 791.02539 64 L 81.830078 64 z M 0 254.9375 L 0 609.53516 C 0 669.71443 48.928147 718.64258 109.10742 718.64258 L 476.50977 718.64258 L 477.34766 717.89453 C 476.39719 712.01892 475.87891 705.97077 475.87891 699.83594 C 475.87891 693.70111 476.39719 687.65249 477.34766 681.86328 L 458.16406 664.75586 C 452.02924 659.22587 449.60962 650.67162 452.80664 643.1543 C 454.79398 638.48836 456.95563 633.99413 459.375 629.67383 L 461.9668 625.0957 C 464.64538 620.77541 467.49728 616.54155 470.52148 612.48047 C 475.44663 605.91361 484.08674 603.75353 491.86328 606.3457 L 516.31641 614.29492 C 525.56186 606.69119 536.10369 600.55663 547.5957 596.23633 L 552.86523 571.0918 C 554.50695 563.14243 560.72939 556.66141 568.85156 555.71094 C 574.55436 555.01969 580.34314 554.67383 586.21875 554.67383 L 586.82422 554.67383 C 592.69983 554.67383 598.4886 555.01922 604.19141 555.79688 C 612.31357 556.74734 618.53407 563.14197 620.17578 571.17773 L 625.44727 596.23633 C 636.85286 600.47022 647.48111 606.69119 656.72656 614.29492 L 681.0918 606.25781 C 688.86834 603.66564 697.5104 605.82571 702.43555 612.39258 C 705.45975 616.45366 708.31016 620.68751 710.90234 625.00781 L 713.58203 629.67383 C 716.0014 633.99413 718.1611 638.48883 720.14844 643.06836 C 723.34546 650.67209 720.92585 659.22635 714.79102 664.66992 L 714.61719 664.58203 L 695.43555 681.69141 C 696.38602 687.56702 696.9043 693.61517 696.9043 699.75 C 696.9043 705.88482 696.38602 711.93298 695.43555 717.80859 L 696.37109 718.64258 L 763.75 718.64258 C 823.92927 718.64258 872.85547 669.71443 872.85547 609.53516 L 872.85547 254.9375 L 501.89258 533.16016 C 463.02325 562.31216 409.83222 562.31216 370.96289 533.16016 L 0 254.9375 z M 696.37109 718.64258 L 622.7832 718.64258 A 41.47495 41.47495 0 0 1 550.17188 718.64258 L 476.50977 718.64258 L 458.16406 735.00391 C 452.02924 740.44749 449.60962 749.00173 452.80664 756.60547 C 454.79398 761.18498 456.95563 765.67728 459.375 770.08398 L 461.9668 774.57812 C 464.55898 778.98483 467.41087 783.13227 470.52148 787.19336 C 475.44663 793.76021 484.08674 795.92031 491.86328 793.32812 L 516.23047 785.29297 C 525.47592 792.8967 536.10221 799.11767 547.50781 803.35156 L 552.7793 828.49609 C 554.42101 836.53186 560.6415 842.92454 568.76367 843.875 C 574.55288 844.56625 580.42861 844.91211 586.39062 844.91211 C 592.35265 844.91211 598.22836 844.56625 604.01758 843.875 C 612.13974 842.92454 618.36219 836.44546 620.00391 828.49609 L 625.27344 803.35156 C 636.76544 799.03126 647.30728 792.8967 656.55273 785.29297 L 680.91992 793.32812 C 688.69646 795.92031 697.33657 793.76021 702.26172 787.19336 C 705.28594 783.13227 708.13828 778.98483 710.73047 774.57812 L 713.4082 769.91211 C 715.82757 765.5918 717.98727 761.09905 719.97461 756.51953 C 723.17164 749.0022 720.75202 740.44796 714.61719 734.91797 L 696.37109 718.64258 z M 550.17188 718.64258 L 622.7832 718.64258 A 41.47495 41.47495 0 0 0 627.95312 699.83594 A 41.475586 41.475586 0 1 0 545.00195 699.83594 A 41.47495 41.47495 0 0 0 550.17188 718.64258 z M 798.20117 716.95312 C 796.24489 717.08003 794.28375 717.52887 792.38281 718.32812 C 787.80329 720.31546 783.311 722.47516 778.9043 724.89453 L 774.41211 727.48633 C 770.0054 730.07851 765.85601 732.9304 761.79492 736.04102 C 755.22807 740.96616 753.06797 749.60627 755.66016 757.38281 L 763.69727 781.75 C 756.09353 790.99545 749.87257 801.6237 745.63867 813.0293 L 720.49414 818.21289 C 712.45838 819.85461 706.06374 826.07509 705.11328 834.19727 C 704.42203 839.98647 704.07617 845.8622 704.07617 851.82422 C 704.07617 857.78623 704.42203 863.66197 705.11328 869.45117 C 706.06374 877.57334 712.54478 883.79578 720.49414 885.4375 L 745.63867 890.70703 C 749.95897 902.19904 756.09353 912.74089 763.69727 921.98633 L 755.66016 946.35352 C 753.06797 954.13007 755.22807 962.77022 761.79492 967.69531 C 765.85601 970.71951 770.0054 973.57187 774.41211 976.16406 L 779.07617 978.8418 C 783.39648 981.26119 787.89119 983.42081 792.4707 985.4082 C 799.98804 988.6052 808.54227 986.18558 814.07227 980.05078 L 831.17969 960.86914 C 837.0553 961.8196 843.10345 962.33789 849.23828 962.33789 C 855.37311 962.33789 861.42126 961.8196 867.29688 960.86914 L 884.40625 980.05078 L 884.32031 980.22461 C 889.76389 986.3594 898.31814 988.77903 905.92188 985.58203 C 910.5014 983.59463 914.99416 981.43307 919.31445 979.01367 L 923.98047 976.33594 C 928.30077 973.74374 932.53462 970.89334 936.5957 967.86914 C 943.16257 962.94405 945.32265 954.30193 942.73047 946.52539 L 934.69531 922.16016 C 942.29904 912.91471 948.52001 902.28646 952.75391 890.88086 L 977.89844 885.60938 C 985.93423 883.96766 992.32694 877.74717 993.27734 869.625 C 993.96864 863.8358 994.31445 857.96007 994.31445 851.99805 C 994.31445 846.03603 993.96864 840.1603 993.27734 834.37109 C 992.32694 826.24892 985.84783 820.02648 977.89844 818.38477 L 952.75391 813.0293 C 948.4336 801.5373 942.29904 790.99545 934.69531 781.75 L 942.73047 757.38281 C 945.32265 749.60627 943.16257 740.96616 936.5957 736.04102 C 932.53462 733.01681 928.30077 730.16492 923.98047 727.48633 L 919.40039 724.89453 C 915.08008 722.47516 910.5878 720.31546 905.92188 718.32812 C 898.40455 715.1311 889.8503 717.54876 884.32031 723.68359 L 867.21094 742.86719 C 861.33532 741.91672 855.28717 741.39844 849.15234 741.39844 C 843.01751 741.39844 836.96935 741.91672 831.09375 742.86719 L 813.98438 723.68359 C 809.90169 719.08247 804.07003 716.5724 798.20117 716.95312 z M 849.15234 810.43555 A 41.475586 41.475586 0 1 1 849.15234 893.38672 A 41.475586 41.475586 0 1 1 849.15234 810.43555 z " 
  />
</svg>
