<svg 
   viewBox="0 0 1024 1024" 
   id="icon-spam"
   xmlns="http://www.w3.org/2000/svg"
   xmlns:svg="http://www.w3.org/2000/svg">
   <path 
      style="stroke-width:1.7048" 
      d="M 81.830078 64 C 36.653002 64 -9.4738937e-15 100.653 0 145.83008 C 0 171.57248 12.104399 195.78129 32.732422 211.29492 L 403.69531 489.51758 C 423.12998 504.00834 449.72549 504.00834 469.16016 489.51758 L 840.12305 211.29492 C 860.75107 195.78129 872.85547 171.57248 872.85547 145.83008 C 872.85547 100.653 836.20247 64 791.02539 64 L 81.830078 64 z M 0 254.9375 L 0 609.53516 C 0 669.71443 48.928147 718.64258 109.10742 718.64258 L 508.78125 718.64258 A 256.00003 256.00003 0 0 1 872.85547 508.14258 L 872.85547 254.9375 L 501.89258 533.16016 C 463.02325 562.31216 409.83222 562.31216 370.96289 533.16016 L 0 254.9375 z M 872.85547 508.14258 L 872.85547 581.11523 C 922.65022 615.81177 955.27734 673.45533 955.27734 738.7168 C 955.27734 780.21676 942.17732 818.61605 919.77734 849.91602 L 786.16602 716.30664 C 778.9267 717.82387 771.43472 718.64258 763.75 718.64258 L 697.9043 718.64258 L 874.47656 895.2168 C 843.17659 917.61677 804.7773 930.7168 763.27734 930.7168 C 657.27745 930.7168 571.27734 844.71668 571.27734 738.7168 C 571.27734 731.92403 571.75223 725.2517 572.4375 718.64258 L 508.78125 718.64258 A 256.00003 256.00003 0 0 0 507.27734 738.7168 A 256.00002 256.00002 0 0 0 1019.2773 738.7168 A 256.00003 256.00003 0 0 0 872.85547 508.14258 z M 572.4375 718.64258 L 697.9043 718.64258 L 606.77734 627.51562 C 588.04382 653.69237 575.93886 684.87373 572.4375 718.64258 z M 786.16602 716.30664 C 835.61799 705.9424 872.85547 662.0297 872.85547 609.53516 L 872.85547 581.11523 C 841.77189 559.45648 804.01577 546.7168 763.27734 546.7168 C 721.77739 546.7168 683.37614 559.81682 652.07617 582.2168 L 786.16602 716.30664 z " 
   />
</svg>
