<svg
   id="icon-code-block"
   viewBox="0 0 1024 1024"
   fill="none"
   xmlns="http://www.w3.org/2000/svg"
   xmlns:svg="http://www.w3.org/2000/svg">
  <path
     d="M 384.01977,665.57283 230.4435,511.99742 384.01977,358.42201 m 255.96046,0 153.57628,153.57541 -153.57628,153.57541 m 87.02653,307.15082 H 296.99321 c -86.01294,0 -129.0143,0 -161.86938,-16.73971 C 106.22589,941.26121 82.733841,917.76926 68.010995,888.87149 51.271181,856.01657 51.271181,813.01548 51.271181,727.00302 V 296.99184 c 0,-86.01042 0,-129.01563 16.739814,-161.86695 C 82.733841,106.22763 106.22589,82.733658 135.12383,68.009875 167.97891,51.271177 210.98027,51.271177 296.99321,51.271177 h 430.01355 c 86.01093,0 129.01637,0 161.86786,16.738698 28.89741,14.723783 52.3915,38.217755 67.11537,67.115015 16.73883,32.85132 16.73883,75.85653 16.73883,161.86695 v 430.01118 c 0,86.01246 0,129.01355 -16.73883,161.86847 -14.72387,28.89777 -38.21796,52.38972 -67.11537,67.11245 -32.85149,16.73971 -75.85693,16.73971 -161.86786,16.73971 z"
     stroke="currentColor"
     stroke-width="102.384"
     stroke-linecap="round"
     stroke-linejoin="round"
     style="stroke-width:102.384;stroke-dasharray:none" />
</svg>
