<svg
   id="icon-left-align"
   viewBox="0 0 1024 1024"
   xmlns="http://www.w3.org/2000/svg"
   xmlns:svg="http://www.w3.org/2000/svg">
   <path
      d="M 584.19821,168.76226 H 73.024776 C 32.701407,168.76226 0,137.69252 0,99.38113 0, 61.069736 32.701407,30 73.024776,30 H 584.19821 c 40.39183,0 73.02477,31.069736 73.02477, 69.38113 0,38.31139 -32.63294,69.38113 -73.02477,69.38113 z m 0, 555.04902 H 73.024776 C 32.701407,723.81128 0,692.80659 0,654.43015 0,616.05372 32.701407, 585.04902 73.024776,585.04902 H 584.19821 c 40.39183,0 73.02477,31.0047 73.02477,69.38113 0, 38.37644 -32.63294,69.38113 -73.02477,69.38113 z M 0,376.90564 C 0,338.5292 32.701407, 307.52451 73.024776,307.52451 H 949.32209 c 40.39183,0 73.02481,31.00469 73.02481,69.38113 0,        38.37644 -32.63298,69.38113 -73.02481,69.38113 H 73.024776 C 32.701407,446.28677 0,415.28208 0, 376.90564 Z M 949.32209,1001.3358 H 73.024776 C 32.701407,1001.3358 0,970.3311 0,931.95467 0, 893.57823 32.701407,862.57354 73.024776,862.57354 H 949.32209 c 40.39183,0 73.02481, 31.00469 73.02481,69.38113 0,38.37643 -32.63298,69.38113 -73.02481,69.38113 z"
   />
</svg>
